%TF.GenerationSoftware,KiCad,Pcbnew,(6.0.4)*%
%TF.CreationDate,2022-06-08T19:20:38+01:00*%
%TF.ProjectId,Eiffel - Rev B,45696666-656c-4202-9d20-52657620422e,rev?*%
%TF.SameCoordinates,Original*%
%TF.FileFunction,Copper,L2,Bot*%
%TF.FilePolarity,Positive*%
%FSLAX46Y46*%
G04 Gerber Fmt 4.6, Leading zero omitted, Abs format (unit mm)*
G04 Created by KiCad (PCBNEW (6.0.4)) date 2022-06-08 19:20:38*
%MOMM*%
%LPD*%
G01*
G04 APERTURE LIST*
G04 Aperture macros list*
%AMRoundRect*
0 Rectangle with rounded corners*
0 $1 Rounding radius*
0 $2 $3 $4 $5 $6 $7 $8 $9 X,Y pos of 4 corners*
0 Add a 4 corners polygon primitive as box body*
4,1,4,$2,$3,$4,$5,$6,$7,$8,$9,$2,$3,0*
0 Add four circle primitives for the rounded corners*
1,1,$1+$1,$2,$3*
1,1,$1+$1,$4,$5*
1,1,$1+$1,$6,$7*
1,1,$1+$1,$8,$9*
0 Add four rect primitives between the rounded corners*
20,1,$1+$1,$2,$3,$4,$5,0*
20,1,$1+$1,$4,$5,$6,$7,0*
20,1,$1+$1,$6,$7,$8,$9,0*
20,1,$1+$1,$8,$9,$2,$3,0*%
G04 Aperture macros list end*
%TA.AperFunction,Profile*%
%ADD10C,0.100000*%
%TD*%
%TA.AperFunction,ComponentPad*%
%ADD11R,1.600000X1.600000*%
%TD*%
%TA.AperFunction,ComponentPad*%
%ADD12O,1.600000X1.600000*%
%TD*%
%TA.AperFunction,ComponentPad*%
%ADD13R,1.520000X1.520000*%
%TD*%
%TA.AperFunction,ComponentPad*%
%ADD14C,1.520000*%
%TD*%
%TA.AperFunction,ComponentPad*%
%ADD15R,1.500000X1.500000*%
%TD*%
%TA.AperFunction,ComponentPad*%
%ADD16C,1.500000*%
%TD*%
%TA.AperFunction,ComponentPad*%
%ADD17C,3.700000*%
%TD*%
%TA.AperFunction,ComponentPad*%
%ADD18C,4.000000*%
%TD*%
%TA.AperFunction,ComponentPad*%
%ADD19C,1.600000*%
%TD*%
%TA.AperFunction,SMDPad,CuDef*%
%ADD20RoundRect,0.250000X0.262500X0.450000X-0.262500X0.450000X-0.262500X-0.450000X0.262500X-0.450000X0*%
%TD*%
%TA.AperFunction,SMDPad,CuDef*%
%ADD21RoundRect,0.250000X-0.262500X-0.450000X0.262500X-0.450000X0.262500X0.450000X-0.262500X0.450000X0*%
%TD*%
%TA.AperFunction,SMDPad,CuDef*%
%ADD22RoundRect,0.250000X-0.450000X0.262500X-0.450000X-0.262500X0.450000X-0.262500X0.450000X0.262500X0*%
%TD*%
%TA.AperFunction,SMDPad,CuDef*%
%ADD23C,0.500000*%
%TD*%
%TA.AperFunction,SMDPad,CuDef*%
%ADD24RoundRect,0.250000X0.450000X-0.262500X0.450000X0.262500X-0.450000X0.262500X-0.450000X-0.262500X0*%
%TD*%
%TA.AperFunction,SMDPad,CuDef*%
%ADD25RoundRect,0.250000X-0.250000X-0.475000X0.250000X-0.475000X0.250000X0.475000X-0.250000X0.475000X0*%
%TD*%
%TA.AperFunction,ViaPad*%
%ADD26C,0.800000*%
%TD*%
%TA.AperFunction,Conductor*%
%ADD27C,0.250000*%
%TD*%
G04 APERTURE END LIST*
D10*
X71120000Y-85090000D02*
X96520000Y-69850000D01*
X139700000Y-136070000D02*
X139700000Y-85090000D01*
X71120000Y-85090000D02*
X71120000Y-136070000D01*
X71120000Y-136070000D02*
X138430000Y-136070000D01*
X114300000Y-69850000D02*
X139700000Y-85090000D01*
X138430000Y-136070000D02*
X139700000Y-136070000D01*
X96520000Y-69850000D02*
X114300000Y-69850000D01*
D11*
%TO.P,U1,1,~{MCLR}/Vpp*%
%TO.N,Net-(R3-Pad2)*%
X101610000Y-88885000D03*
D12*
%TO.P,U1,2,AN0/RA0*%
%TO.N,Net-(R14-Pad2)*%
X101610000Y-91425000D03*
%TO.P,U1,3,AN1/RA1*%
%TO.N,Net-(R16-Pad2)*%
X101610000Y-93965000D03*
%TO.P,U1,4,Vref-/AN2/RA2*%
%TO.N,Net-(R18-Pad2)*%
X101610000Y-96505000D03*
%TO.P,U1,5,Vref+/AN3/RA3*%
%TO.N,Net-(R20-Pad2)*%
X101610000Y-99045000D03*
%TO.P,U1,6,T0CKI/RA4*%
%TO.N,Net-(R22-Pad2)*%
X101610000Y-101585000D03*
%TO.P,U1,7,~{SS}/AN4/RA5*%
%TO.N,Net-(R24-Pad2)*%
X101610000Y-104125000D03*
%TO.P,U1,8,VSS*%
%TO.N,GND*%
X101610000Y-106665000D03*
%TO.P,U1,9,OSC1/CLKI*%
%TO.N,Net-(C1-Pad1)*%
X101610000Y-109205000D03*
%TO.P,U1,10,OSC2/CLKO*%
%TO.N,Net-(C2-Pad1)*%
X101610000Y-111745000D03*
%TO.P,U1,11,RC0/T1OSO/T1CKI*%
%TO.N,Net-(R13-Pad1)*%
X101610000Y-114285000D03*
%TO.P,U1,12,RC1/T1OSI/CCP2*%
%TO.N,Net-(R12-Pad1)*%
X101610000Y-116825000D03*
%TO.P,U1,13,RC2/CCP1*%
%TO.N,Net-(R10-Pad1)*%
X101610000Y-119365000D03*
%TO.P,U1,14,RC3/SCK/SCL*%
%TO.N,Net-(R8-Pad2)*%
X101610000Y-121905000D03*
%TO.P,U1,15,RC4/SDI/SDA*%
%TO.N,Net-(R11-Pad1)*%
X109230000Y-121905000D03*
%TO.P,U1,16,RC5/SDO*%
%TO.N,unconnected-(U1-Pad16)*%
X109230000Y-119365000D03*
%TO.P,U1,17,RC6/CK/TX*%
%TO.N,Net-(J4-Pad4)*%
X109230000Y-116825000D03*
%TO.P,U1,18,RC7/DT/RX*%
%TO.N,Net-(J4-Pad3)*%
X109230000Y-114285000D03*
%TO.P,U1,19,VSS*%
%TO.N,GND*%
X109230000Y-111745000D03*
%TO.P,U1,20,VDD*%
%TO.N,Net-(C3-Pad1)*%
X109230000Y-109205000D03*
%TO.P,U1,21,INT/RB0*%
%TO.N,Net-(J1-Pad1)*%
X109230000Y-106665000D03*
%TO.P,U1,22,RB1*%
%TO.N,Net-(J1-Pad5)*%
X109230000Y-104125000D03*
%TO.P,U1,23,RB2*%
%TO.N,Net-(J2-Pad1)*%
X109230000Y-101585000D03*
%TO.P,U1,24,PGM/RB3*%
%TO.N,Net-(J2-Pad5)*%
X109230000Y-99045000D03*
%TO.P,U1,25,RB4*%
%TO.N,unconnected-(U1-Pad25)*%
X109230000Y-96505000D03*
%TO.P,U1,26,RB5*%
%TO.N,unconnected-(U1-Pad26)*%
X109230000Y-93965000D03*
%TO.P,U1,27,PGC/RB6*%
%TO.N,Net-(R2-Pad1)*%
X109230000Y-91425000D03*
%TO.P,U1,28,PGD/RB7*%
%TO.N,Net-(R1-Pad1)*%
X109230000Y-88885000D03*
%TD*%
D13*
%TO.P,ATARI MEGA/TT,1*%
%TO.N,Net-(C3-Pad1)*%
X108580000Y-82700000D03*
D14*
%TO.P,ATARI MEGA/TT,2*%
X107310000Y-80160000D03*
%TO.P,ATARI MEGA/TT,3*%
%TO.N,Net-(J4-Pad3)*%
X106040000Y-82700000D03*
%TO.P,ATARI MEGA/TT,4*%
%TO.N,Net-(J4-Pad4)*%
X104770000Y-80160000D03*
%TO.P,ATARI MEGA/TT,5*%
%TO.N,GND*%
X103500000Y-82700000D03*
%TO.P,ATARI MEGA/TT,6*%
X102230000Y-80160000D03*
%TD*%
D15*
%TO.P,MSE,1*%
%TO.N,Net-(J2-Pad1)*%
X82580000Y-126820000D03*
D16*
%TO.P,MSE,2*%
%TO.N,unconnected-(J2-Pad2)*%
X79980000Y-126820000D03*
%TO.P,MSE,3*%
%TO.N,GND*%
X84530000Y-126820000D03*
%TO.P,MSE,4*%
%TO.N,Net-(C3-Pad1)*%
X78030000Y-126820000D03*
%TO.P,MSE,5*%
%TO.N,Net-(J2-Pad5)*%
X84530000Y-124320000D03*
%TO.P,MSE,6*%
%TO.N,unconnected-(J2-Pad6)*%
X78030000Y-124320000D03*
D17*
%TO.P,MSE,MH1*%
%TO.N,N/C*%
X87980000Y-129720000D03*
D18*
%TO.P,MSE,MH2*%
X81280000Y-130620000D03*
D17*
%TO.P,MSE,MH3*%
X74580000Y-129720000D03*
%TD*%
D18*
%TO.P,Joystick,0*%
%TO.N,N/C*%
X80840300Y-89090000D03*
X80840300Y-114090000D03*
D11*
%TO.P,Joystick,1,1*%
%TO.N,Net-(J5-Pad1)*%
X82260300Y-96050000D03*
D19*
%TO.P,Joystick,2,2*%
%TO.N,Net-(J5-Pad2)*%
X82260300Y-98820000D03*
%TO.P,Joystick,3,3*%
%TO.N,Net-(J5-Pad3)*%
X82260300Y-101590000D03*
%TO.P,Joystick,4,4*%
%TO.N,Net-(J5-Pad4)*%
X82260300Y-104360000D03*
%TO.P,Joystick,5,5*%
%TO.N,unconnected-(J5-Pad5)*%
X82260300Y-107130000D03*
%TO.P,Joystick,6,6*%
%TO.N,Net-(J5-Pad6)*%
X79420300Y-97435000D03*
%TO.P,Joystick,7,7*%
%TO.N,Net-(C3-Pad1)*%
X79420300Y-100205000D03*
%TO.P,Joystick,8,8*%
%TO.N,GND*%
X79420300Y-102975000D03*
%TO.P,Joystick,9,9*%
%TO.N,unconnected-(J5-Pad9)*%
X79420300Y-105745000D03*
%TD*%
D15*
%TO.P,KEY,1*%
%TO.N,Net-(J1-Pad1)*%
X130810000Y-127000000D03*
D16*
%TO.P,KEY,2*%
%TO.N,unconnected-(J1-Pad2)*%
X128210000Y-127000000D03*
%TO.P,KEY,3*%
%TO.N,GND*%
X132760000Y-127000000D03*
%TO.P,KEY,4*%
%TO.N,Net-(C3-Pad1)*%
X126260000Y-127000000D03*
%TO.P,KEY,5*%
%TO.N,Net-(J1-Pad5)*%
X132760000Y-124500000D03*
%TO.P,KEY,6*%
%TO.N,unconnected-(J1-Pad6)*%
X126260000Y-124500000D03*
D17*
%TO.P,KEY,MH1*%
%TO.N,N/C*%
X136210000Y-129900000D03*
D18*
%TO.P,KEY,MH2*%
X129510000Y-130800000D03*
D17*
%TO.P,KEY,MH3*%
X122810000Y-129900000D03*
%TD*%
D18*
%TO.P,Joystick,0*%
%TO.N,N/C*%
X129979700Y-89110000D03*
X129979700Y-114110000D03*
D11*
%TO.P,Joystick,1,1*%
%TO.N,Net-(J3-Pad1)*%
X128559700Y-107150000D03*
D19*
%TO.P,Joystick,2,2*%
%TO.N,Net-(J3-Pad2)*%
X128559700Y-104380000D03*
%TO.P,Joystick,3,3*%
%TO.N,Net-(J3-Pad3)*%
X128559700Y-101610000D03*
%TO.P,Joystick,4,4*%
%TO.N,Net-(J3-Pad4)*%
X128559700Y-98840000D03*
%TO.P,Joystick,5,5*%
%TO.N,unconnected-(J3-Pad5)*%
X128559700Y-96070000D03*
%TO.P,Joystick,6,6*%
%TO.N,Net-(J3-Pad6)*%
X131399700Y-105765000D03*
%TO.P,Joystick,7,7*%
%TO.N,Net-(C3-Pad1)*%
X131399700Y-102995000D03*
%TO.P,Joystick,8,8*%
%TO.N,GND*%
X131399700Y-100225000D03*
%TO.P,Joystick,9,9*%
%TO.N,unconnected-(J3-Pad9)*%
X131399700Y-97455000D03*
%TD*%
D20*
%TO.P,R9,1*%
%TO.N,Net-(R8-Pad2)*%
X117684700Y-91440000D03*
%TO.P,R9,2*%
%TO.N,Net-(C3-Pad1)*%
X115859700Y-91440000D03*
%TD*%
D21*
%TO.P,R17,1*%
%TO.N,Net-(R16-Pad2)*%
X87987500Y-91440000D03*
%TO.P,R17,2*%
%TO.N,Net-(J5-Pad1)*%
X89812500Y-91440000D03*
%TD*%
D20*
%TO.P,R13,1*%
%TO.N,Net-(R13-Pad1)*%
X117395000Y-111760000D03*
%TO.P,R13,2*%
%TO.N,Net-(C3-Pad1)*%
X115570000Y-111760000D03*
%TD*%
%TO.P,R20,1*%
%TO.N,Net-(C3-Pad1)*%
X94892500Y-101600000D03*
%TO.P,R20,2*%
%TO.N,Net-(R20-Pad2)*%
X93067500Y-101600000D03*
%TD*%
D21*
%TO.P,R4,1*%
%TO.N,Net-(J3-Pad6)*%
X120582200Y-106680000D03*
%TO.P,R4,2*%
%TO.N,Net-(R11-Pad1)*%
X122407200Y-106680000D03*
%TD*%
%TO.P,R3,1*%
%TO.N,Net-(C3-Pad1)*%
X94695000Y-83820000D03*
%TO.P,R3,2*%
%TO.N,Net-(R3-Pad2)*%
X96520000Y-83820000D03*
%TD*%
%TO.P,R25,1*%
%TO.N,Net-(R24-Pad2)*%
X87987500Y-111760000D03*
%TO.P,R25,2*%
%TO.N,Net-(J5-Pad6)*%
X89812500Y-111760000D03*
%TD*%
D20*
%TO.P,R18,1*%
%TO.N,Net-(C3-Pad1)*%
X94892500Y-96520000D03*
%TO.P,R18,2*%
%TO.N,Net-(R18-Pad2)*%
X93067500Y-96520000D03*
%TD*%
D22*
%TO.P,R14,1*%
%TO.N,Net-(C3-Pad1)*%
X93980000Y-115927500D03*
%TO.P,R14,2*%
%TO.N,Net-(R14-Pad2)*%
X93980000Y-117752500D03*
%TD*%
D23*
%TO.P,REF\u002A\u002A,*%
%TO.N,*%
X114900000Y-77900000D03*
%TD*%
D21*
%TO.P,R23,1*%
%TO.N,Net-(R22-Pad2)*%
X87987500Y-106680000D03*
%TO.P,R23,2*%
%TO.N,Net-(J5-Pad4)*%
X89812500Y-106680000D03*
%TD*%
D24*
%TO.P,R27,1*%
%TO.N,Net-(C3-Pad1)*%
X132080000Y-121562500D03*
%TO.P,R27,2*%
%TO.N,Net-(J1-Pad5)*%
X132080000Y-119737500D03*
%TD*%
D21*
%TO.P,R7,1*%
%TO.N,Net-(J3-Pad3)*%
X120650000Y-96520000D03*
%TO.P,R7,2*%
%TO.N,Net-(R10-Pad1)*%
X122475000Y-96520000D03*
%TD*%
D24*
%TO.P,R26,1*%
%TO.N,Net-(C3-Pad1)*%
X127000000Y-121562500D03*
%TO.P,R26,2*%
%TO.N,Net-(J1-Pad1)*%
X127000000Y-119737500D03*
%TD*%
D21*
%TO.P,R21,1*%
%TO.N,Net-(R20-Pad2)*%
X87987500Y-101600000D03*
%TO.P,R21,2*%
%TO.N,Net-(J5-Pad3)*%
X89812500Y-101600000D03*
%TD*%
D23*
%TO.P,REF\u002A\u002A,*%
%TO.N,*%
X97750000Y-124450000D03*
X97750000Y-124450000D03*
%TD*%
D24*
%TO.P,R29,1*%
%TO.N,Net-(C3-Pad1)*%
X78740000Y-121562500D03*
%TO.P,R29,2*%
%TO.N,Net-(J2-Pad5)*%
X78740000Y-119737500D03*
%TD*%
%TO.P,R28,1*%
%TO.N,Net-(C3-Pad1)*%
X83820000Y-121562500D03*
%TO.P,R28,2*%
%TO.N,Net-(J2-Pad1)*%
X83820000Y-119737500D03*
%TD*%
D21*
%TO.P,R12,1*%
%TO.N,Net-(R12-Pad1)*%
X115859700Y-101600000D03*
%TO.P,R12,2*%
%TO.N,Net-(C3-Pad1)*%
X117684700Y-101600000D03*
%TD*%
%TO.P,R10,1*%
%TO.N,Net-(R10-Pad1)*%
X115859700Y-96520000D03*
%TO.P,R10,2*%
%TO.N,Net-(C3-Pad1)*%
X117684700Y-96520000D03*
%TD*%
D24*
%TO.P,R15,1*%
%TO.N,Net-(R14-Pad2)*%
X88900000Y-117752500D03*
%TO.P,R15,2*%
%TO.N,GND*%
X88900000Y-115927500D03*
%TD*%
D21*
%TO.P,R8,1*%
%TO.N,Net-(J3-Pad4)*%
X120650000Y-91440000D03*
%TO.P,R8,2*%
%TO.N,Net-(R8-Pad2)*%
X122475000Y-91440000D03*
%TD*%
D20*
%TO.P,R24,1*%
%TO.N,Net-(C3-Pad1)*%
X94892500Y-111760000D03*
%TO.P,R24,2*%
%TO.N,Net-(R24-Pad2)*%
X93067500Y-111760000D03*
%TD*%
D21*
%TO.P,R11,1*%
%TO.N,Net-(R11-Pad1)*%
X115859700Y-106680000D03*
%TO.P,R11,2*%
%TO.N,Net-(C3-Pad1)*%
X117684700Y-106680000D03*
%TD*%
D20*
%TO.P,R22,1*%
%TO.N,Net-(C3-Pad1)*%
X94892500Y-106680000D03*
%TO.P,R22,2*%
%TO.N,Net-(R22-Pad2)*%
X93067500Y-106680000D03*
%TD*%
%TO.P,R6,1*%
%TO.N,Net-(R13-Pad1)*%
X122475000Y-111760000D03*
%TO.P,R6,2*%
%TO.N,Net-(J3-Pad1)*%
X120650000Y-111760000D03*
%TD*%
D21*
%TO.P,R5,1*%
%TO.N,Net-(J3-Pad2)*%
X120939700Y-101600000D03*
%TO.P,R5,2*%
%TO.N,Net-(R12-Pad1)*%
X122764700Y-101600000D03*
%TD*%
%TO.P,R19,1*%
%TO.N,Net-(R18-Pad2)*%
X87987500Y-96520000D03*
%TO.P,R19,2*%
%TO.N,Net-(J5-Pad2)*%
X89812500Y-96520000D03*
%TD*%
D23*
%TO.P,REF\u002A\u002A,*%
%TO.N,*%
X113100000Y-124400000D03*
X113100000Y-124400000D03*
%TD*%
%TO.P,REF\u002A\u002A,*%
%TO.N,*%
X95968239Y-77883119D03*
X95968239Y-77883119D03*
%TD*%
D25*
%TO.P,C3,1*%
%TO.N,Net-(C3-Pad1)*%
X104460000Y-127000000D03*
%TO.P,C3,2*%
%TO.N,GND*%
X106360000Y-127000000D03*
%TD*%
D20*
%TO.P,R16,1*%
%TO.N,Net-(C3-Pad1)*%
X94892500Y-91440000D03*
%TO.P,R16,2*%
%TO.N,Net-(R16-Pad2)*%
X93067500Y-91440000D03*
%TD*%
D26*
%TO.N,Net-(J4-Pad4)*%
X105470200Y-109123800D03*
%TO.N,Net-(R12-Pad1)*%
X113149200Y-112165300D03*
%TD*%
D27*
%TO.N,GND*%
X131785000Y-128075400D02*
X132760000Y-127100400D01*
X123813600Y-127425000D02*
X124464000Y-128075400D01*
X108217300Y-111745000D02*
X108217300Y-110845100D01*
X132760000Y-127100400D02*
X132760000Y-127000000D01*
X132760000Y-127000000D02*
X133839600Y-125920400D01*
X101610000Y-106665000D02*
X104037200Y-106665000D01*
X133839600Y-102664900D02*
X131399700Y-100225000D01*
X133839600Y-125920400D02*
X133839600Y-102664900D01*
X87836900Y-123754300D02*
X92155400Y-128072800D01*
X88900000Y-115927500D02*
X87836900Y-116990600D01*
X92155400Y-128072800D02*
X105712200Y-128072800D01*
X105712200Y-128072800D02*
X106360000Y-127425000D01*
X79420300Y-103890000D02*
X79420300Y-102975000D01*
X87595700Y-123754300D02*
X84530000Y-126820000D01*
X87836900Y-123754300D02*
X87595700Y-123754300D01*
X106360000Y-127000000D02*
X106360000Y-127425000D01*
X88900000Y-115927500D02*
X81114900Y-108142400D01*
X106360000Y-127425000D02*
X123813600Y-127425000D01*
X108217300Y-110845100D02*
X104037200Y-106665000D01*
X124464000Y-128075400D02*
X131785000Y-128075400D01*
X87836900Y-116990600D02*
X87836900Y-123754300D01*
X81114900Y-105584600D02*
X79420300Y-103890000D01*
X109230000Y-111745000D02*
X108217300Y-111745000D01*
X81114900Y-108142400D02*
X81114900Y-105584600D01*
%TO.N,Net-(C3-Pad1)*%
X94892500Y-101600000D02*
X94892500Y-96520000D01*
X78289600Y-99074300D02*
X79420300Y-100205000D01*
X117684700Y-98537200D02*
X119216100Y-100068600D01*
X108580000Y-82157300D02*
X108580000Y-81614700D01*
X129739500Y-98364700D02*
X128829800Y-97455000D01*
X110355300Y-107235800D02*
X110355300Y-96944400D01*
X81088100Y-96240100D02*
X78976300Y-96240100D01*
X94695000Y-89948600D02*
X86292500Y-89948600D01*
X105855400Y-81614600D02*
X107217700Y-80252300D01*
X103732100Y-127000000D02*
X104460000Y-127000000D01*
X122471900Y-89899200D02*
X115859700Y-89899200D01*
X81088100Y-102068700D02*
X82096100Y-103076700D01*
X127397000Y-125863000D02*
X127397000Y-121959500D01*
X81088100Y-96240100D02*
X81088100Y-102068700D01*
X94892500Y-90146100D02*
X94695000Y-89948600D01*
X109230000Y-109205000D02*
X109230000Y-108079700D01*
X117684700Y-96520000D02*
X117684700Y-98537200D01*
X78289600Y-96926800D02*
X78289600Y-99074300D01*
X126260000Y-127000000D02*
X127397000Y-125863000D01*
X124143800Y-100068600D02*
X119216100Y-100068600D01*
X83449100Y-121933400D02*
X79110900Y-121933400D01*
X128282400Y-97455000D02*
X127342700Y-96515300D01*
X127397000Y-121959500D02*
X127000000Y-121562500D01*
X126316800Y-118872800D02*
X129390300Y-118872800D01*
X115859700Y-89899200D02*
X115859700Y-91440000D01*
X77677400Y-101947900D02*
X77677400Y-120499900D01*
X131399700Y-102995000D02*
X129984000Y-102995000D01*
X127000000Y-121562500D02*
X125973600Y-120536100D01*
X115570000Y-117822400D02*
X115570000Y-111760000D01*
X119216100Y-100068600D02*
X117684700Y-101600000D01*
X116963600Y-119216000D02*
X125973600Y-119216000D01*
X104460000Y-127000000D02*
X106356700Y-125103300D01*
X109230000Y-108079700D02*
X109511400Y-108079700D01*
X128829800Y-97455000D02*
X128282400Y-97455000D01*
X79110900Y-125739100D02*
X78030000Y-126820000D01*
X96900400Y-81614600D02*
X105855400Y-81614600D01*
X127342700Y-96515300D02*
X127342700Y-94770000D01*
X94892500Y-104553400D02*
X93415800Y-103076700D01*
X129390300Y-118872800D02*
X132080000Y-121562500D01*
X78976300Y-96240100D02*
X78289600Y-96926800D01*
X125973600Y-119216000D02*
X126316800Y-118872800D01*
X86292500Y-89948600D02*
X81088100Y-95153000D01*
X126825700Y-102750500D02*
X124143800Y-100068600D01*
X125973600Y-120536100D02*
X125973600Y-119216000D01*
X79110900Y-121933400D02*
X79110900Y-125739100D01*
X97901400Y-119848900D02*
X97901400Y-121169300D01*
X94892500Y-111760000D02*
X94892500Y-115015000D01*
X129739500Y-102750500D02*
X129739500Y-98364700D01*
X131399700Y-102995000D02*
X132530300Y-104125600D01*
X132530300Y-104125600D02*
X132530300Y-115732800D01*
X94695000Y-83820000D02*
X96900400Y-81614600D01*
X115570000Y-117822400D02*
X116963600Y-119216000D01*
X110355300Y-96944400D02*
X115859700Y-91440000D01*
X117684700Y-106680000D02*
X117684700Y-109645300D01*
X108580000Y-82700000D02*
X108580000Y-82157300D01*
X108580000Y-82157300D02*
X115859700Y-89437000D01*
X129984000Y-102995000D02*
X129739500Y-102750500D01*
X107217700Y-80252300D02*
X108580000Y-81614700D01*
X97901400Y-121169300D02*
X103732100Y-127000000D01*
X127342700Y-94770000D02*
X122471900Y-89899200D01*
X132530300Y-115732800D02*
X129390300Y-118872800D01*
X94892500Y-91440000D02*
X94892500Y-90146100D01*
X79420300Y-100205000D02*
X77677400Y-101947900D01*
X93415800Y-103076700D02*
X94892500Y-101600000D01*
X94695000Y-89948600D02*
X94695000Y-83820000D01*
X129739500Y-102750500D02*
X126825700Y-102750500D01*
X106356700Y-125103300D02*
X108289100Y-125103300D01*
X77677400Y-120499900D02*
X78740000Y-121562500D01*
X109511400Y-108079700D02*
X110355300Y-107235800D01*
X78740000Y-121562500D02*
X79110900Y-121933400D01*
X115859700Y-89437000D02*
X115859700Y-89899200D01*
X81088100Y-95153000D02*
X81088100Y-96240100D01*
X117684700Y-109645300D02*
X115570000Y-111760000D01*
X82096100Y-103076700D02*
X93415800Y-103076700D01*
X83820000Y-121562500D02*
X83449100Y-121933400D01*
X107217700Y-80252300D02*
X107310000Y-80160000D01*
X94892500Y-106680000D02*
X94892500Y-104553400D01*
X94892500Y-115015000D02*
X93980000Y-115927500D01*
X108289100Y-125103300D02*
X115570000Y-117822400D01*
X93980000Y-115927500D02*
X97901400Y-119848900D01*
%TO.N,Net-(J1-Pad1)*%
X130810000Y-123547500D02*
X130810000Y-127000000D01*
X127000000Y-119737500D02*
X130810000Y-123547500D01*
%TO.N,Net-(J1-Pad5)*%
X132224500Y-119593500D02*
X132224000Y-119593500D01*
X132368900Y-119449100D02*
X132224500Y-119593500D01*
X132224500Y-119593500D02*
X132080000Y-119738000D01*
X133121700Y-120201900D02*
X133121700Y-124138300D01*
X132368900Y-119449100D02*
X133121700Y-120201900D01*
X132224000Y-119593500D02*
X132080000Y-119737500D01*
X133121700Y-124138300D02*
X132760000Y-124500000D01*
%TO.N,Net-(J2-Pad1)*%
X85616800Y-124771800D02*
X84818600Y-125570000D01*
X83820000Y-119737500D02*
X84050500Y-119507000D01*
X85616800Y-119652800D02*
X85616800Y-124771800D01*
X85471000Y-119507000D02*
X85616800Y-119652800D01*
X83830000Y-125570000D02*
X82580000Y-126820000D01*
X84050500Y-119507000D02*
X85471000Y-119507000D01*
X84818600Y-125570000D02*
X83830000Y-125570000D01*
%TO.N,Net-(J2-Pad5)*%
X78770500Y-119738000D02*
X78740500Y-119738000D01*
X79128000Y-119380000D02*
X78770500Y-119738000D01*
X84882100Y-123967900D02*
X84882100Y-121077100D01*
X84530000Y-124320000D02*
X84882100Y-123967900D01*
X84882100Y-121077100D02*
X84455000Y-120650000D01*
X78740500Y-119738000D02*
X78740000Y-119738000D01*
X84455000Y-120650000D02*
X80398000Y-120650000D01*
X78740500Y-119738000D02*
X78740000Y-119737500D01*
X80398000Y-120650000D02*
X79128000Y-119380000D01*
%TO.N,Net-(J3-Pad1)*%
X125260000Y-107150000D02*
X128559700Y-107150000D01*
X120650000Y-111760000D02*
X125260000Y-107150000D01*
%TO.N,Net-(J3-Pad2)*%
X120939700Y-101600000D02*
X122020700Y-100519000D01*
X122020700Y-100519000D02*
X123211200Y-100519000D01*
X123211200Y-100519000D02*
X127072200Y-104380000D01*
X127072200Y-104380000D02*
X128559700Y-104380000D01*
%TO.N,Net-(J3-Pad3)*%
X126568000Y-99618300D02*
X123748300Y-99618300D01*
X128559700Y-101610000D02*
X126568000Y-99618300D01*
X123748300Y-99618300D02*
X120650000Y-96520000D01*
%TO.N,Net-(J3-Pad4)*%
X120650000Y-91440000D02*
X128050000Y-98840000D01*
X128050000Y-98840000D02*
X128559700Y-98840000D01*
%TO.N,Net-(J3-Pad6)*%
X120582200Y-106680000D02*
X121613200Y-107711000D01*
X122940700Y-107711000D02*
X124886700Y-105765000D01*
X124886700Y-105765000D02*
X131399700Y-105765000D01*
X121613200Y-107711000D02*
X122940700Y-107711000D01*
%TO.N,Net-(J4-Pad3)*%
X106040000Y-107638500D02*
X108876500Y-110475000D01*
X110355300Y-111214300D02*
X110355300Y-113159700D01*
X110355300Y-113159700D02*
X109230000Y-114285000D01*
X109616000Y-110475000D02*
X110355300Y-111214300D01*
X106040000Y-82700000D02*
X106040000Y-107638500D01*
X108876500Y-110475000D02*
X109616000Y-110475000D01*
%TO.N,Net-(J4-Pad4)*%
X105470200Y-113065200D02*
X109230000Y-116825000D01*
X105470200Y-109123800D02*
X105470200Y-113065200D01*
%TO.N,Net-(J5-Pad1)*%
X88782700Y-90410200D02*
X86774800Y-90410200D01*
X89812500Y-91440000D02*
X88782700Y-90410200D01*
X86774800Y-90410200D02*
X82260300Y-94924700D01*
X82260300Y-96050000D02*
X82260300Y-94924700D01*
%TO.N,Net-(J5-Pad2)*%
X87512500Y-98820000D02*
X82260300Y-98820000D01*
X89812500Y-96520000D02*
X87512500Y-98820000D01*
%TO.N,Net-(J5-Pad3)*%
X89812500Y-101600000D02*
X88774600Y-100562100D01*
X83288200Y-100562100D02*
X82260300Y-101590000D01*
X88774600Y-100562100D02*
X83288200Y-100562100D01*
%TO.N,Net-(J5-Pad4)*%
X87492500Y-104360000D02*
X82260300Y-104360000D01*
X89812500Y-106680000D02*
X87492500Y-104360000D01*
%TO.N,Net-(J5-Pad6)*%
X80637700Y-98652400D02*
X79420300Y-97435000D01*
X89812500Y-111760000D02*
X83622000Y-105569500D01*
X83622000Y-105569500D02*
X81831100Y-105569500D01*
X81831100Y-105569500D02*
X80637700Y-104376100D01*
X80637700Y-104376100D02*
X80637700Y-98652400D01*
%TO.N,Net-(R3-Pad2)*%
X101610000Y-88885000D02*
X100484700Y-88885000D01*
X96520000Y-83820000D02*
X100484700Y-87784700D01*
X100484700Y-87784700D02*
X100484700Y-88885000D01*
%TO.N,Net-(R11-Pad1)*%
X113874500Y-117260500D02*
X113874500Y-108665200D01*
X122407200Y-106680000D02*
X120909000Y-105181800D01*
X109230000Y-121905000D02*
X113874500Y-117260500D01*
X113874500Y-108665200D02*
X115859700Y-106680000D01*
X115859700Y-106281900D02*
X115859700Y-106680000D01*
X120909000Y-105181800D02*
X116959800Y-105181800D01*
X116959800Y-105181800D02*
X115859700Y-106281900D01*
%TO.N,Net-(R12-Pad1)*%
X116911200Y-102651500D02*
X115859700Y-101600000D01*
X116911200Y-102651500D02*
X113149200Y-106413500D01*
X122764700Y-101600000D02*
X121713200Y-102651500D01*
X121713200Y-102651500D02*
X116911200Y-102651500D01*
X113149200Y-106413500D02*
X113149200Y-112165300D01*
%TO.N,Net-(R13-Pad1)*%
X116754200Y-107425500D02*
X116754200Y-106025400D01*
X120122600Y-112803800D02*
X118557100Y-111238300D01*
X100938200Y-123489000D02*
X109266500Y-123489000D01*
X109266500Y-123489000D02*
X114324800Y-118430700D01*
X116754200Y-106025400D02*
X117147400Y-105632200D01*
X100028000Y-122578800D02*
X100938200Y-123489000D01*
X101328700Y-115410300D02*
X100028000Y-116711000D01*
X101610000Y-115410300D02*
X101328700Y-115410300D01*
X114324800Y-109854900D02*
X116754200Y-107425500D01*
X117147400Y-105632200D02*
X118211300Y-105632200D01*
X114324800Y-118430700D02*
X114324800Y-109854900D01*
X100028000Y-116711000D02*
X100028000Y-122578800D01*
X117916700Y-111238300D02*
X118557100Y-111238300D01*
X117395000Y-111760000D02*
X117916700Y-111238300D01*
X122475000Y-111760000D02*
X121431200Y-112803800D01*
X118211300Y-105632200D02*
X118557100Y-105978000D01*
X101610000Y-114285000D02*
X101610000Y-115410300D01*
X118557100Y-105978000D02*
X118557100Y-111238300D01*
X121431200Y-112803800D02*
X120122600Y-112803800D01*
%TO.N,Net-(R10-Pad1)*%
X121435800Y-95480800D02*
X122475000Y-96520000D01*
X101414000Y-120490300D02*
X101610000Y-120490300D01*
X111456000Y-118738400D02*
X109559400Y-120635000D01*
X101610000Y-119365000D02*
X101610000Y-120490300D01*
X111456000Y-100923700D02*
X111456000Y-118738400D01*
X109559400Y-120635000D02*
X104680200Y-120635000D01*
X104680200Y-120635000D02*
X102277500Y-123037700D01*
X100478300Y-122388000D02*
X100478300Y-121426000D01*
X100478300Y-121426000D02*
X101414000Y-120490300D01*
X101128000Y-123037700D02*
X100478300Y-122388000D01*
X102277500Y-123037700D02*
X101128000Y-123037700D01*
X116898900Y-95480800D02*
X121435800Y-95480800D01*
X115859700Y-96520000D02*
X116898900Y-95480800D01*
X115859700Y-96520000D02*
X111456000Y-100923700D01*
%TO.N,Net-(R8-Pad2)*%
X109586900Y-118095000D02*
X106545300Y-118095000D01*
X106545300Y-118095000D02*
X102735300Y-121905000D01*
X101610000Y-121905000D02*
X102735300Y-121905000D01*
X118743100Y-90381600D02*
X117684700Y-91440000D01*
X111005700Y-98119000D02*
X111005700Y-116676200D01*
X117684700Y-91440000D02*
X111005700Y-98119000D01*
X121416600Y-90381600D02*
X118743100Y-90381600D01*
X111005700Y-116676200D02*
X109586900Y-118095000D01*
X122475000Y-91440000D02*
X121416600Y-90381600D01*
%TO.N,Net-(R14-Pad2)*%
X92913300Y-115162800D02*
X93906400Y-114169700D01*
X88900000Y-117752500D02*
X92913300Y-117752500D01*
X99656100Y-105468900D02*
X101859200Y-105468900D01*
X102735300Y-93394200D02*
X101891400Y-92550300D01*
X92913300Y-117752500D02*
X93980000Y-117752500D01*
X93906400Y-114169700D02*
X93906400Y-111218600D01*
X102735300Y-104592800D02*
X102735300Y-93394200D01*
X101891400Y-92550300D02*
X101610000Y-92550300D01*
X101610000Y-91425000D02*
X101610000Y-92550300D01*
X93906400Y-111218600D02*
X99656100Y-105468900D01*
X101859200Y-105468900D02*
X102735300Y-104592800D01*
X92913300Y-117752500D02*
X92913300Y-115162800D01*
%TO.N,Net-(R16-Pad2)*%
X95592500Y-93965000D02*
X101610000Y-93965000D01*
X93067500Y-91440000D02*
X95592500Y-93965000D01*
X89036300Y-92488800D02*
X87987500Y-91440000D01*
X93067500Y-91440000D02*
X92018700Y-92488800D01*
X92018700Y-92488800D02*
X89036300Y-92488800D01*
%TO.N,Net-(R18-Pad2)*%
X94190700Y-95025500D02*
X93067500Y-96148700D01*
X89022700Y-95484800D02*
X92403600Y-95484800D01*
X101610000Y-96505000D02*
X100484700Y-96505000D01*
X93067500Y-96148700D02*
X93067500Y-96520000D01*
X87987500Y-96520000D02*
X89022700Y-95484800D01*
X99005200Y-95025500D02*
X94190700Y-95025500D01*
X100484700Y-96505000D02*
X99005200Y-95025500D01*
X92403600Y-95484800D02*
X93067500Y-96148700D01*
%TO.N,Net-(R20-Pad2)*%
X101610000Y-99045000D02*
X100484700Y-99045000D01*
X94368400Y-95484700D02*
X96924400Y-95484700D01*
X96924400Y-95484700D02*
X100484700Y-99045000D01*
X93067500Y-101600000D02*
X94053700Y-100613800D01*
X87987500Y-101600000D02*
X89013800Y-102626300D01*
X94053700Y-95799400D02*
X94368400Y-95484700D01*
X89013800Y-102626300D02*
X92041200Y-102626300D01*
X94053700Y-100613800D02*
X94053700Y-95799400D01*
X92041200Y-102626300D02*
X93067500Y-101600000D01*
%TO.N,Net-(R22-Pad2)*%
X94093900Y-107706400D02*
X95488600Y-107706400D01*
X101610000Y-101585000D02*
X100484700Y-101585000D01*
X93067500Y-106680000D02*
X94093900Y-107706400D01*
X100484700Y-102710300D02*
X100484700Y-101585000D01*
X89019200Y-107711700D02*
X87987500Y-106680000D01*
X93067500Y-106680000D02*
X92035800Y-107711700D01*
X95488600Y-107706400D02*
X100484700Y-102710300D01*
X92035800Y-107711700D02*
X89019200Y-107711700D01*
%TO.N,Net-(R24-Pad2)*%
X93067500Y-111760000D02*
X91979000Y-112848500D01*
X93067500Y-111332600D02*
X93067500Y-111760000D01*
X89076000Y-112848500D02*
X87987500Y-111760000D01*
X91979000Y-112848500D02*
X89076000Y-112848500D01*
X100275100Y-104125000D02*
X93067500Y-111332600D01*
X100275100Y-104125000D02*
X101610000Y-104125000D01*
%TD*%
%TA.AperFunction,Conductor*%
%TO.N,GND*%
G36*
X114189079Y-70376456D02*
G01*
X120128305Y-73939991D01*
X139130326Y-85341204D01*
X139178449Y-85393403D01*
X139191500Y-85449248D01*
X139191500Y-135435500D01*
X139171498Y-135503621D01*
X139117842Y-135550114D01*
X139065500Y-135561500D01*
X71754500Y-135561500D01*
X71686379Y-135541498D01*
X71639886Y-135487842D01*
X71628500Y-135435500D01*
X71628500Y-129720000D01*
X72216439Y-129720000D01*
X72216709Y-129724119D01*
X72234212Y-129991152D01*
X72236660Y-130028507D01*
X72296975Y-130331735D01*
X72298300Y-130335639D01*
X72298301Y-130335642D01*
X72332441Y-130436214D01*
X72396354Y-130624496D01*
X72398177Y-130628192D01*
X72398180Y-130628200D01*
X72485475Y-130805214D01*
X72533096Y-130901780D01*
X72535390Y-130905213D01*
X72535391Y-130905215D01*
X72678183Y-131118918D01*
X72704861Y-131158845D01*
X72707575Y-131161939D01*
X72707579Y-131161945D01*
X72906001Y-131388201D01*
X72908710Y-131391290D01*
X72911799Y-131393999D01*
X73138055Y-131592421D01*
X73138061Y-131592425D01*
X73141155Y-131595139D01*
X73144581Y-131597428D01*
X73144586Y-131597432D01*
X73330257Y-131721493D01*
X73398219Y-131766904D01*
X73401918Y-131768728D01*
X73401923Y-131768731D01*
X73503701Y-131818922D01*
X73675504Y-131903646D01*
X73679409Y-131904971D01*
X73679410Y-131904972D01*
X73964358Y-132001699D01*
X73964361Y-132001700D01*
X73968265Y-132003025D01*
X74194961Y-132048117D01*
X74267450Y-132062536D01*
X74267453Y-132062536D01*
X74271493Y-132063340D01*
X74275604Y-132063609D01*
X74275608Y-132063610D01*
X74575881Y-132083291D01*
X74580000Y-132083561D01*
X74584119Y-132083291D01*
X74884392Y-132063610D01*
X74884396Y-132063609D01*
X74888507Y-132063340D01*
X74892547Y-132062536D01*
X74892550Y-132062536D01*
X74965039Y-132048117D01*
X75191735Y-132003025D01*
X75195639Y-132001700D01*
X75195642Y-132001699D01*
X75480590Y-131904972D01*
X75480591Y-131904971D01*
X75484496Y-131903646D01*
X75656299Y-131818922D01*
X75758077Y-131768731D01*
X75758082Y-131768728D01*
X75761781Y-131766904D01*
X75829743Y-131721493D01*
X76015414Y-131597432D01*
X76015419Y-131597428D01*
X76018845Y-131595139D01*
X76021939Y-131592425D01*
X76021945Y-131592421D01*
X76248201Y-131393999D01*
X76251290Y-131391290D01*
X76253999Y-131388201D01*
X76452421Y-131161945D01*
X76452425Y-131161939D01*
X76455139Y-131158845D01*
X76481818Y-131118918D01*
X76624609Y-130905215D01*
X76624610Y-130905213D01*
X76626904Y-130901780D01*
X76674525Y-130805214D01*
X76761820Y-130628200D01*
X76761823Y-130628192D01*
X76763646Y-130624496D01*
X76827559Y-130436214D01*
X76861699Y-130335642D01*
X76861700Y-130335639D01*
X76863025Y-130331735D01*
X76923340Y-130028507D01*
X76925789Y-129991152D01*
X76943291Y-129724119D01*
X76943561Y-129720000D01*
X76923340Y-129411493D01*
X76922205Y-129405784D01*
X76898829Y-129288265D01*
X76863025Y-129108265D01*
X76823491Y-128991800D01*
X76764975Y-128819419D01*
X76763646Y-128815504D01*
X76761823Y-128811808D01*
X76761820Y-128811800D01*
X76628730Y-128541923D01*
X76626904Y-128538220D01*
X76599907Y-128497816D01*
X76457432Y-128284586D01*
X76457428Y-128284581D01*
X76455139Y-128281155D01*
X76452425Y-128278061D01*
X76452421Y-128278055D01*
X76253999Y-128051799D01*
X76251290Y-128048710D01*
X76238698Y-128037667D01*
X76021945Y-127847579D01*
X76021939Y-127847575D01*
X76018845Y-127844861D01*
X76015419Y-127842572D01*
X76015414Y-127842568D01*
X75770886Y-127679180D01*
X75761781Y-127673096D01*
X75758082Y-127671272D01*
X75758077Y-127671269D01*
X75610112Y-127598301D01*
X75484496Y-127536354D01*
X75461542Y-127528562D01*
X75195642Y-127438301D01*
X75195639Y-127438300D01*
X75191735Y-127436975D01*
X74965039Y-127391883D01*
X74892550Y-127377464D01*
X74892547Y-127377464D01*
X74888507Y-127376660D01*
X74884396Y-127376391D01*
X74884392Y-127376390D01*
X74584119Y-127356709D01*
X74580000Y-127356439D01*
X74575881Y-127356709D01*
X74275608Y-127376390D01*
X74275604Y-127376391D01*
X74271493Y-127376660D01*
X74267453Y-127377464D01*
X74267450Y-127377464D01*
X74194961Y-127391883D01*
X73968265Y-127436975D01*
X73964361Y-127438300D01*
X73964358Y-127438301D01*
X73722482Y-127520407D01*
X73675504Y-127536354D01*
X73671808Y-127538177D01*
X73671800Y-127538180D01*
X73481477Y-127632038D01*
X73398220Y-127673096D01*
X73394787Y-127675390D01*
X73394785Y-127675391D01*
X73144586Y-127842568D01*
X73144581Y-127842572D01*
X73141155Y-127844861D01*
X73138061Y-127847575D01*
X73138055Y-127847579D01*
X72921302Y-128037667D01*
X72908710Y-128048710D01*
X72906001Y-128051799D01*
X72707579Y-128278055D01*
X72707575Y-128278061D01*
X72704861Y-128281155D01*
X72702572Y-128284581D01*
X72702568Y-128284586D01*
X72560093Y-128497816D01*
X72533096Y-128538220D01*
X72531270Y-128541923D01*
X72398180Y-128811800D01*
X72398177Y-128811808D01*
X72396354Y-128815504D01*
X72395025Y-128819419D01*
X72336510Y-128991800D01*
X72296975Y-129108265D01*
X72261171Y-129288265D01*
X72237796Y-129405784D01*
X72236660Y-129411493D01*
X72216439Y-129720000D01*
X71628500Y-129720000D01*
X71628500Y-126820000D01*
X76766693Y-126820000D01*
X76785885Y-127039371D01*
X76842880Y-127252076D01*
X76886415Y-127345438D01*
X76933618Y-127446666D01*
X76933621Y-127446671D01*
X76935944Y-127451653D01*
X76939100Y-127456160D01*
X76939101Y-127456162D01*
X77058487Y-127626662D01*
X77062251Y-127632038D01*
X77217962Y-127787749D01*
X77222471Y-127790906D01*
X77222473Y-127790908D01*
X77259315Y-127816705D01*
X77398346Y-127914056D01*
X77597924Y-128007120D01*
X77810629Y-128064115D01*
X78030000Y-128083307D01*
X78249371Y-128064115D01*
X78462076Y-128007120D01*
X78661654Y-127914056D01*
X78800685Y-127816705D01*
X78837527Y-127790908D01*
X78837529Y-127790906D01*
X78842038Y-127787749D01*
X78915905Y-127713882D01*
X78978217Y-127679856D01*
X79049032Y-127684921D01*
X79094095Y-127713882D01*
X79167962Y-127787749D01*
X79172471Y-127790906D01*
X79172473Y-127790908D01*
X79209315Y-127816705D01*
X79348346Y-127914056D01*
X79547924Y-128007120D01*
X79760629Y-128064115D01*
X79980000Y-128083307D01*
X80199371Y-128064115D01*
X80321579Y-128031369D01*
X80392556Y-128033059D01*
X80409194Y-128044320D01*
X80410297Y-128038159D01*
X80458601Y-127986128D01*
X80469801Y-127980203D01*
X80606663Y-127916384D01*
X80606669Y-127916380D01*
X80611654Y-127914056D01*
X80750685Y-127816705D01*
X80787527Y-127790908D01*
X80787529Y-127790906D01*
X80792038Y-127787749D01*
X80947749Y-127632038D01*
X80951514Y-127626662D01*
X81070899Y-127456162D01*
X81070900Y-127456160D01*
X81074056Y-127451653D01*
X81076381Y-127446668D01*
X81076384Y-127446662D01*
X81081305Y-127436108D01*
X81128221Y-127382823D01*
X81196498Y-127363361D01*
X81264458Y-127383902D01*
X81310525Y-127437924D01*
X81321500Y-127489357D01*
X81321500Y-127618134D01*
X81328255Y-127680316D01*
X81379385Y-127816705D01*
X81411725Y-127859856D01*
X81449257Y-127909935D01*
X81474105Y-127976441D01*
X81459052Y-128045824D01*
X81408878Y-128096054D01*
X81348431Y-128111500D01*
X81122179Y-128111500D01*
X80809025Y-128151060D01*
X80668580Y-128187120D01*
X80554385Y-128216440D01*
X80483430Y-128214007D01*
X80468300Y-128203534D01*
X80467527Y-128208131D01*
X80419770Y-128260665D01*
X80400575Y-128270228D01*
X80213495Y-128344298D01*
X80213490Y-128344300D01*
X80209821Y-128345753D01*
X80206353Y-128347659D01*
X80206352Y-128347660D01*
X79993666Y-128464586D01*
X79933221Y-128497816D01*
X79872513Y-128541923D01*
X79682269Y-128680143D01*
X79677860Y-128683346D01*
X79447767Y-128899418D01*
X79246568Y-129142625D01*
X79077438Y-129409131D01*
X79075754Y-129412710D01*
X79075750Y-129412717D01*
X78991625Y-129591493D01*
X78943044Y-129694734D01*
X78845505Y-129994928D01*
X78786359Y-130304980D01*
X78766540Y-130620000D01*
X78786359Y-130935020D01*
X78845505Y-131245072D01*
X78943044Y-131545266D01*
X78944731Y-131548852D01*
X78944733Y-131548856D01*
X79075750Y-131827283D01*
X79075754Y-131827290D01*
X79077438Y-131830869D01*
X79246568Y-132097375D01*
X79249093Y-132100427D01*
X79367545Y-132243610D01*
X79447767Y-132340582D01*
X79677860Y-132556654D01*
X79933221Y-132742184D01*
X80209821Y-132894247D01*
X80213490Y-132895700D01*
X80213495Y-132895702D01*
X80356269Y-132952230D01*
X80503298Y-133010443D01*
X80809025Y-133088940D01*
X81122179Y-133128500D01*
X81437821Y-133128500D01*
X81750975Y-133088940D01*
X82056702Y-133010443D01*
X82203731Y-132952230D01*
X82346505Y-132895702D01*
X82346510Y-132895700D01*
X82350179Y-132894247D01*
X82626779Y-132742184D01*
X82882140Y-132556654D01*
X83086121Y-132365103D01*
X103275343Y-132365103D01*
X103312868Y-132650134D01*
X103388729Y-132927436D01*
X103390413Y-132931384D01*
X103474491Y-133128500D01*
X103501523Y-133191876D01*
X103649161Y-133438561D01*
X103828913Y-133662928D01*
X104037451Y-133860823D01*
X104270917Y-134028586D01*
X104274712Y-134030595D01*
X104274713Y-134030596D01*
X104296469Y-134042115D01*
X104524992Y-134163112D01*
X104794973Y-134261911D01*
X105075864Y-134323155D01*
X105104441Y-134325404D01*
X105298882Y-134340707D01*
X105298891Y-134340707D01*
X105301339Y-134340900D01*
X105456871Y-134340900D01*
X105459007Y-134340754D01*
X105459018Y-134340754D01*
X105667148Y-134326565D01*
X105667154Y-134326564D01*
X105671425Y-134326273D01*
X105675620Y-134325404D01*
X105675622Y-134325404D01*
X105812183Y-134297124D01*
X105952942Y-134267974D01*
X106223943Y-134172007D01*
X106479412Y-134040150D01*
X106482913Y-134037689D01*
X106482917Y-134037687D01*
X106597017Y-133957496D01*
X106714623Y-133874841D01*
X106925222Y-133679140D01*
X107107313Y-133456668D01*
X107257527Y-133211542D01*
X107311346Y-133088940D01*
X107371357Y-132952230D01*
X107373083Y-132948298D01*
X107451844Y-132671806D01*
X107492351Y-132387184D01*
X107492445Y-132369351D01*
X107493835Y-132103983D01*
X107493835Y-132103976D01*
X107493857Y-132099697D01*
X107491919Y-132084972D01*
X107456892Y-131818922D01*
X107456332Y-131814666D01*
X107380471Y-131537364D01*
X107295795Y-131338845D01*
X107269363Y-131276876D01*
X107269361Y-131276872D01*
X107267677Y-131272924D01*
X107170802Y-131111057D01*
X107122243Y-131029921D01*
X107122240Y-131029917D01*
X107120039Y-131026239D01*
X106940287Y-130801872D01*
X106731749Y-130603977D01*
X106498283Y-130436214D01*
X106476443Y-130424650D01*
X106453254Y-130412372D01*
X106244208Y-130301688D01*
X105989579Y-130208507D01*
X105978258Y-130204364D01*
X105978256Y-130204363D01*
X105974227Y-130202889D01*
X105693336Y-130141645D01*
X105662285Y-130139201D01*
X105470318Y-130124093D01*
X105470309Y-130124093D01*
X105467861Y-130123900D01*
X105312329Y-130123900D01*
X105310193Y-130124046D01*
X105310182Y-130124046D01*
X105102052Y-130138235D01*
X105102046Y-130138236D01*
X105097775Y-130138527D01*
X105093580Y-130139396D01*
X105093578Y-130139396D01*
X104957016Y-130167677D01*
X104816258Y-130196826D01*
X104545257Y-130292793D01*
X104289788Y-130424650D01*
X104286287Y-130427111D01*
X104286283Y-130427113D01*
X104276194Y-130434204D01*
X104054577Y-130589959D01*
X103843978Y-130785660D01*
X103661887Y-131008132D01*
X103511673Y-131253258D01*
X103396117Y-131516502D01*
X103394942Y-131520629D01*
X103394941Y-131520630D01*
X103374491Y-131592421D01*
X103317356Y-131792994D01*
X103276849Y-132077616D01*
X103276827Y-132081905D01*
X103276826Y-132081912D01*
X103275487Y-132337530D01*
X103275343Y-132365103D01*
X83086121Y-132365103D01*
X83112233Y-132340582D01*
X83192456Y-132243610D01*
X83310907Y-132100427D01*
X83313432Y-132097375D01*
X83482562Y-131830869D01*
X83484246Y-131827290D01*
X83484250Y-131827283D01*
X83615267Y-131548856D01*
X83615269Y-131548852D01*
X83616956Y-131545266D01*
X83714495Y-131245072D01*
X83773641Y-130935020D01*
X83793460Y-130620000D01*
X83773641Y-130304980D01*
X83714495Y-129994928D01*
X83625165Y-129720000D01*
X85616439Y-129720000D01*
X85616709Y-129724119D01*
X85634212Y-129991152D01*
X85636660Y-130028507D01*
X85696975Y-130331735D01*
X85698300Y-130335639D01*
X85698301Y-130335642D01*
X85732441Y-130436214D01*
X85796354Y-130624496D01*
X85798177Y-130628192D01*
X85798180Y-130628200D01*
X85885475Y-130805214D01*
X85933096Y-130901780D01*
X85935390Y-130905213D01*
X85935391Y-130905215D01*
X86078183Y-131118918D01*
X86104861Y-131158845D01*
X86107575Y-131161939D01*
X86107579Y-131161945D01*
X86306001Y-131388201D01*
X86308710Y-131391290D01*
X86311799Y-131393999D01*
X86538055Y-131592421D01*
X86538061Y-131592425D01*
X86541155Y-131595139D01*
X86544581Y-131597428D01*
X86544586Y-131597432D01*
X86730257Y-131721493D01*
X86798219Y-131766904D01*
X86801918Y-131768728D01*
X86801923Y-131768731D01*
X86903701Y-131818922D01*
X87075504Y-131903646D01*
X87079409Y-131904971D01*
X87079410Y-131904972D01*
X87364358Y-132001699D01*
X87364361Y-132001700D01*
X87368265Y-132003025D01*
X87594961Y-132048117D01*
X87667450Y-132062536D01*
X87667453Y-132062536D01*
X87671493Y-132063340D01*
X87675604Y-132063609D01*
X87675608Y-132063610D01*
X87975881Y-132083291D01*
X87980000Y-132083561D01*
X87984119Y-132083291D01*
X88284392Y-132063610D01*
X88284396Y-132063609D01*
X88288507Y-132063340D01*
X88292547Y-132062536D01*
X88292550Y-132062536D01*
X88365039Y-132048117D01*
X88591735Y-132003025D01*
X88595639Y-132001700D01*
X88595642Y-132001699D01*
X88880590Y-131904972D01*
X88880591Y-131904971D01*
X88884496Y-131903646D01*
X89056299Y-131818922D01*
X89158077Y-131768731D01*
X89158082Y-131768728D01*
X89161781Y-131766904D01*
X89229743Y-131721493D01*
X89415414Y-131597432D01*
X89415419Y-131597428D01*
X89418845Y-131595139D01*
X89421939Y-131592425D01*
X89421945Y-131592421D01*
X89648201Y-131393999D01*
X89651290Y-131391290D01*
X89653999Y-131388201D01*
X89852421Y-131161945D01*
X89852425Y-131161939D01*
X89855139Y-131158845D01*
X89881818Y-131118918D01*
X90024609Y-130905215D01*
X90024610Y-130905213D01*
X90026904Y-130901780D01*
X90074525Y-130805214D01*
X90161820Y-130628200D01*
X90161823Y-130628192D01*
X90163646Y-130624496D01*
X90227559Y-130436214D01*
X90261699Y-130335642D01*
X90261700Y-130335639D01*
X90263025Y-130331735D01*
X90323340Y-130028507D01*
X90325789Y-129991152D01*
X90331763Y-129900000D01*
X120446439Y-129900000D01*
X120446709Y-129904119D01*
X120466292Y-130202889D01*
X120466660Y-130208507D01*
X120526975Y-130511735D01*
X120528300Y-130515639D01*
X120528301Y-130515642D01*
X120618968Y-130782739D01*
X120626354Y-130804496D01*
X120628177Y-130808192D01*
X120628180Y-130808200D01*
X120735706Y-131026239D01*
X120763096Y-131081780D01*
X120765390Y-131085213D01*
X120765391Y-131085215D01*
X120893455Y-131276876D01*
X120934861Y-131338845D01*
X120937575Y-131341939D01*
X120937579Y-131341945D01*
X121119036Y-131548856D01*
X121138710Y-131571290D01*
X121141799Y-131573999D01*
X121368055Y-131772421D01*
X121368061Y-131772425D01*
X121371155Y-131775139D01*
X121374581Y-131777428D01*
X121374586Y-131777432D01*
X121560749Y-131901822D01*
X121628219Y-131946904D01*
X121631918Y-131948728D01*
X121631923Y-131948731D01*
X121739332Y-132001699D01*
X121905504Y-132083646D01*
X121909409Y-132084971D01*
X121909410Y-132084972D01*
X122194358Y-132181699D01*
X122194361Y-132181700D01*
X122198265Y-132183025D01*
X122424961Y-132228117D01*
X122497450Y-132242536D01*
X122497453Y-132242536D01*
X122501493Y-132243340D01*
X122505604Y-132243609D01*
X122505608Y-132243610D01*
X122805881Y-132263291D01*
X122810000Y-132263561D01*
X122814119Y-132263291D01*
X123114392Y-132243610D01*
X123114396Y-132243609D01*
X123118507Y-132243340D01*
X123122547Y-132242536D01*
X123122550Y-132242536D01*
X123195039Y-132228117D01*
X123421735Y-132183025D01*
X123425639Y-132181700D01*
X123425642Y-132181699D01*
X123710590Y-132084972D01*
X123710591Y-132084971D01*
X123714496Y-132083646D01*
X123880668Y-132001699D01*
X123988077Y-131948731D01*
X123988082Y-131948728D01*
X123991781Y-131946904D01*
X124059251Y-131901822D01*
X124245414Y-131777432D01*
X124245419Y-131777428D01*
X124248845Y-131775139D01*
X124251939Y-131772425D01*
X124251945Y-131772421D01*
X124478201Y-131573999D01*
X124481290Y-131571290D01*
X124500964Y-131548856D01*
X124682421Y-131341945D01*
X124682425Y-131341939D01*
X124685139Y-131338845D01*
X124726546Y-131276876D01*
X124854609Y-131085215D01*
X124854610Y-131085213D01*
X124856904Y-131081780D01*
X124884294Y-131026239D01*
X124991820Y-130808200D01*
X124991823Y-130808192D01*
X124993646Y-130804496D01*
X125001032Y-130782739D01*
X125091699Y-130515642D01*
X125091700Y-130515639D01*
X125093025Y-130511735D01*
X125153340Y-130208507D01*
X125153709Y-130202889D01*
X125173291Y-129904119D01*
X125173561Y-129900000D01*
X125153340Y-129591493D01*
X125152205Y-129585784D01*
X125138117Y-129514961D01*
X125093025Y-129288265D01*
X125044725Y-129145976D01*
X124994975Y-128999419D01*
X124993646Y-128995504D01*
X124991823Y-128991808D01*
X124991820Y-128991800D01*
X124858730Y-128721923D01*
X124856904Y-128718220D01*
X124854609Y-128714785D01*
X124687432Y-128464586D01*
X124687428Y-128464581D01*
X124685139Y-128461155D01*
X124682425Y-128458061D01*
X124682421Y-128458055D01*
X124483999Y-128231799D01*
X124481290Y-128228710D01*
X124467299Y-128216440D01*
X124251945Y-128027579D01*
X124251939Y-128027575D01*
X124248845Y-128024861D01*
X124245419Y-128022572D01*
X124245414Y-128022568D01*
X123998622Y-127857667D01*
X123991781Y-127853096D01*
X123988082Y-127851272D01*
X123988077Y-127851269D01*
X123845565Y-127780990D01*
X123714496Y-127716354D01*
X123707214Y-127713882D01*
X123425642Y-127618301D01*
X123425639Y-127618300D01*
X123421735Y-127616975D01*
X123183225Y-127569533D01*
X123122550Y-127557464D01*
X123122547Y-127557464D01*
X123118507Y-127556660D01*
X123114396Y-127556391D01*
X123114392Y-127556390D01*
X122814119Y-127536709D01*
X122810000Y-127536439D01*
X122805881Y-127536709D01*
X122505608Y-127556390D01*
X122505604Y-127556391D01*
X122501493Y-127556660D01*
X122497453Y-127557464D01*
X122497450Y-127557464D01*
X122436775Y-127569533D01*
X122198265Y-127616975D01*
X122194361Y-127618300D01*
X122194358Y-127618301D01*
X121912786Y-127713882D01*
X121905504Y-127716354D01*
X121901808Y-127718177D01*
X121901800Y-127718180D01*
X121720624Y-127807527D01*
X121628220Y-127853096D01*
X121624787Y-127855390D01*
X121624785Y-127855391D01*
X121374586Y-128022568D01*
X121374581Y-128022572D01*
X121371155Y-128024861D01*
X121368061Y-128027575D01*
X121368055Y-128027579D01*
X121152701Y-128216440D01*
X121138710Y-128228710D01*
X121136001Y-128231799D01*
X120937579Y-128458055D01*
X120937575Y-128458061D01*
X120934861Y-128461155D01*
X120932572Y-128464581D01*
X120932568Y-128464586D01*
X120765391Y-128714785D01*
X120763096Y-128718220D01*
X120761270Y-128721923D01*
X120628180Y-128991800D01*
X120628177Y-128991808D01*
X120626354Y-128995504D01*
X120625025Y-128999419D01*
X120575276Y-129145976D01*
X120526975Y-129288265D01*
X120481883Y-129514961D01*
X120467796Y-129585784D01*
X120466660Y-129591493D01*
X120446439Y-129900000D01*
X90331763Y-129900000D01*
X90343291Y-129724119D01*
X90343561Y-129720000D01*
X90323340Y-129411493D01*
X90322205Y-129405784D01*
X90298829Y-129288265D01*
X90263025Y-129108265D01*
X90223491Y-128991800D01*
X90164975Y-128819419D01*
X90163646Y-128815504D01*
X90161823Y-128811808D01*
X90161820Y-128811800D01*
X90028730Y-128541923D01*
X90026904Y-128538220D01*
X89999907Y-128497816D01*
X89857432Y-128284586D01*
X89857428Y-128284581D01*
X89855139Y-128281155D01*
X89852425Y-128278061D01*
X89852421Y-128278055D01*
X89653999Y-128051799D01*
X89651290Y-128048710D01*
X89638698Y-128037667D01*
X89421945Y-127847579D01*
X89421939Y-127847575D01*
X89418845Y-127844861D01*
X89415419Y-127842572D01*
X89415414Y-127842568D01*
X89170886Y-127679180D01*
X89161781Y-127673096D01*
X89158082Y-127671272D01*
X89158077Y-127671269D01*
X89010112Y-127598301D01*
X88884496Y-127536354D01*
X88861542Y-127528562D01*
X88595642Y-127438301D01*
X88595639Y-127438300D01*
X88591735Y-127436975D01*
X88365039Y-127391883D01*
X88292550Y-127377464D01*
X88292547Y-127377464D01*
X88288507Y-127376660D01*
X88284396Y-127376391D01*
X88284392Y-127376390D01*
X87984119Y-127356709D01*
X87980000Y-127356439D01*
X87975881Y-127356709D01*
X87675608Y-127376390D01*
X87675604Y-127376391D01*
X87671493Y-127376660D01*
X87667453Y-127377464D01*
X87667450Y-127377464D01*
X87594961Y-127391883D01*
X87368265Y-127436975D01*
X87364361Y-127438300D01*
X87364358Y-127438301D01*
X87122482Y-127520407D01*
X87075504Y-127536354D01*
X87071808Y-127538177D01*
X87071800Y-127538180D01*
X86881477Y-127632038D01*
X86798220Y-127673096D01*
X86794787Y-127675390D01*
X86794785Y-127675391D01*
X86544586Y-127842568D01*
X86544581Y-127842572D01*
X86541155Y-127844861D01*
X86538061Y-127847575D01*
X86538055Y-127847579D01*
X86321302Y-128037667D01*
X86308710Y-128048710D01*
X86306001Y-128051799D01*
X86107579Y-128278055D01*
X86107575Y-128278061D01*
X86104861Y-128281155D01*
X86102572Y-128284581D01*
X86102568Y-128284586D01*
X85960093Y-128497816D01*
X85933096Y-128538220D01*
X85931270Y-128541923D01*
X85798180Y-128811800D01*
X85798177Y-128811808D01*
X85796354Y-128815504D01*
X85795025Y-128819419D01*
X85736510Y-128991800D01*
X85696975Y-129108265D01*
X85661171Y-129288265D01*
X85637796Y-129405784D01*
X85636660Y-129411493D01*
X85616439Y-129720000D01*
X83625165Y-129720000D01*
X83616956Y-129694734D01*
X83568375Y-129591493D01*
X83484250Y-129412717D01*
X83484246Y-129412710D01*
X83482562Y-129409131D01*
X83313432Y-129142625D01*
X83112233Y-128899418D01*
X82882140Y-128683346D01*
X82877732Y-128680143D01*
X82687487Y-128541923D01*
X82626779Y-128497816D01*
X82566335Y-128464586D01*
X82353648Y-128347660D01*
X82353647Y-128347659D01*
X82350179Y-128345753D01*
X82346510Y-128344300D01*
X82346505Y-128344298D01*
X82289307Y-128321652D01*
X82233333Y-128277977D01*
X82209857Y-128210974D01*
X82226333Y-128141916D01*
X82277529Y-128092727D01*
X82335691Y-128078500D01*
X83378134Y-128078500D01*
X83440316Y-128071745D01*
X83576705Y-128020615D01*
X83693261Y-127933261D01*
X83700418Y-127923711D01*
X83702772Y-127921951D01*
X83704992Y-127919731D01*
X83705312Y-127920051D01*
X83757275Y-127881195D01*
X83828093Y-127876166D01*
X83873516Y-127896059D01*
X83894091Y-127910465D01*
X83903584Y-127915947D01*
X84093113Y-128004326D01*
X84103405Y-128008072D01*
X84305401Y-128062196D01*
X84316196Y-128064099D01*
X84524525Y-128082326D01*
X84535475Y-128082326D01*
X84743804Y-128064099D01*
X84754599Y-128062196D01*
X84956595Y-128008072D01*
X84966887Y-128004326D01*
X85156416Y-127915947D01*
X85165912Y-127910464D01*
X85207148Y-127881590D01*
X85215523Y-127871113D01*
X85208455Y-127857667D01*
X84259884Y-126909095D01*
X84225859Y-126846783D01*
X84227694Y-126821132D01*
X84894408Y-126821132D01*
X84894539Y-126822966D01*
X84898790Y-126829580D01*
X85568391Y-127499180D01*
X85580161Y-127505607D01*
X85592176Y-127496311D01*
X85620466Y-127455907D01*
X85625946Y-127446417D01*
X85714326Y-127256887D01*
X85718072Y-127246595D01*
X85772196Y-127044599D01*
X85774099Y-127033804D01*
X85792326Y-126825475D01*
X85792326Y-126814525D01*
X85774099Y-126606196D01*
X85772196Y-126595401D01*
X85718072Y-126393405D01*
X85714326Y-126383113D01*
X85625946Y-126193583D01*
X85620466Y-126184093D01*
X85591589Y-126142851D01*
X85581113Y-126134477D01*
X85567666Y-126141545D01*
X84902021Y-126807189D01*
X84894408Y-126821132D01*
X84227694Y-126821132D01*
X84230924Y-126775967D01*
X84259885Y-126730905D01*
X84530000Y-126460790D01*
X84750384Y-126240405D01*
X84812696Y-126206379D01*
X84839479Y-126203500D01*
X84858456Y-126203500D01*
X84862391Y-126203003D01*
X84862456Y-126202995D01*
X84874293Y-126202062D01*
X84906551Y-126201048D01*
X84910570Y-126200922D01*
X84918489Y-126200673D01*
X84937943Y-126195021D01*
X84957300Y-126191013D01*
X84969530Y-126189468D01*
X84969531Y-126189468D01*
X84977397Y-126188474D01*
X84984768Y-126185555D01*
X84984770Y-126185555D01*
X85018512Y-126172196D01*
X85029742Y-126168351D01*
X85064583Y-126158229D01*
X85064584Y-126158229D01*
X85072193Y-126156018D01*
X85079012Y-126151985D01*
X85079017Y-126151983D01*
X85089628Y-126145707D01*
X85107376Y-126137012D01*
X85126217Y-126129552D01*
X85161987Y-126103564D01*
X85171907Y-126097048D01*
X85203135Y-126078580D01*
X85203138Y-126078578D01*
X85209962Y-126074542D01*
X85224283Y-126060221D01*
X85239317Y-126047380D01*
X85249294Y-126040131D01*
X85255707Y-126035472D01*
X85283898Y-126001395D01*
X85291888Y-125992616D01*
X86009047Y-125275457D01*
X86017337Y-125267913D01*
X86023818Y-125263800D01*
X86070459Y-125214132D01*
X86073213Y-125211291D01*
X86092934Y-125191570D01*
X86095412Y-125188375D01*
X86103118Y-125179353D01*
X86127958Y-125152901D01*
X86133386Y-125147121D01*
X86139535Y-125135935D01*
X86143146Y-125129368D01*
X86153999Y-125112845D01*
X86161553Y-125103106D01*
X86166413Y-125096841D01*
X86183976Y-125056257D01*
X86189183Y-125045627D01*
X86210495Y-125006860D01*
X86212466Y-124999183D01*
X86212468Y-124999178D01*
X86215532Y-124987242D01*
X86221938Y-124968530D01*
X86226833Y-124957219D01*
X86229981Y-124949945D01*
X86231221Y-124942117D01*
X86231223Y-124942110D01*
X86236899Y-124906276D01*
X86239305Y-124894656D01*
X86248328Y-124859511D01*
X86248328Y-124859510D01*
X86250300Y-124851830D01*
X86250300Y-124831576D01*
X86251851Y-124811865D01*
X86253780Y-124799686D01*
X86255020Y-124791857D01*
X86250859Y-124747838D01*
X86250300Y-124735981D01*
X86250300Y-124439455D01*
X96994825Y-124439455D01*
X96995512Y-124446462D01*
X96995512Y-124446465D01*
X97000761Y-124500000D01*
X97011255Y-124607025D01*
X97064402Y-124766791D01*
X97068049Y-124772813D01*
X97068050Y-124772815D01*
X97141840Y-124894656D01*
X97151624Y-124910812D01*
X97156513Y-124915875D01*
X97156514Y-124915876D01*
X97191064Y-124951653D01*
X97268586Y-125031929D01*
X97274483Y-125035788D01*
X97403577Y-125120266D01*
X97403581Y-125120268D01*
X97409475Y-125124125D01*
X97567289Y-125182815D01*
X97574270Y-125183746D01*
X97574272Y-125183747D01*
X97619812Y-125189823D01*
X97734183Y-125205083D01*
X97741194Y-125204445D01*
X97741198Y-125204445D01*
X97894843Y-125190462D01*
X97901864Y-125189823D01*
X97908566Y-125187645D01*
X97908568Y-125187645D01*
X98055298Y-125139970D01*
X98055301Y-125139969D01*
X98061997Y-125137793D01*
X98206623Y-125051578D01*
X98211717Y-125046727D01*
X98211721Y-125046724D01*
X98323454Y-124940322D01*
X98323455Y-124940320D01*
X98328554Y-124935465D01*
X98334335Y-124926765D01*
X98397578Y-124831576D01*
X98421731Y-124795223D01*
X98426008Y-124783965D01*
X98466839Y-124676473D01*
X98481521Y-124637823D01*
X98498463Y-124517282D01*
X98504404Y-124475010D01*
X98504404Y-124475006D01*
X98504955Y-124471088D01*
X98505249Y-124450000D01*
X98501562Y-124417128D01*
X98487266Y-124289672D01*
X98487265Y-124289669D01*
X98486481Y-124282676D01*
X98431108Y-124123668D01*
X98341884Y-123980879D01*
X98333723Y-123972661D01*
X98228205Y-123866403D01*
X98228201Y-123866400D01*
X98223242Y-123861406D01*
X98081079Y-123771187D01*
X97922462Y-123714706D01*
X97915474Y-123713873D01*
X97915471Y-123713872D01*
X97822300Y-123702762D01*
X97755273Y-123694769D01*
X97748270Y-123695505D01*
X97748269Y-123695505D01*
X97702712Y-123700293D01*
X97587821Y-123712369D01*
X97581155Y-123714638D01*
X97581152Y-123714639D01*
X97435098Y-123764360D01*
X97435095Y-123764361D01*
X97428431Y-123766630D01*
X97422436Y-123770318D01*
X97422432Y-123770320D01*
X97291021Y-123851165D01*
X97291019Y-123851167D01*
X97285022Y-123854856D01*
X97164724Y-123972661D01*
X97073515Y-124114190D01*
X97071105Y-124120810D01*
X97071104Y-124120813D01*
X97070065Y-124123668D01*
X97015927Y-124272409D01*
X96994825Y-124439455D01*
X86250300Y-124439455D01*
X86250300Y-119731563D01*
X86250827Y-119720379D01*
X86252501Y-119712891D01*
X86250362Y-119644832D01*
X86250300Y-119640875D01*
X86250300Y-119612944D01*
X86249794Y-119608938D01*
X86248861Y-119597092D01*
X86247722Y-119560837D01*
X86247473Y-119552910D01*
X86241822Y-119533458D01*
X86237814Y-119514106D01*
X86236267Y-119501863D01*
X86235274Y-119494003D01*
X86223540Y-119464365D01*
X86219000Y-119452897D01*
X86215155Y-119441670D01*
X86213567Y-119436203D01*
X86202818Y-119399207D01*
X86198784Y-119392385D01*
X86198781Y-119392379D01*
X86192506Y-119381768D01*
X86183810Y-119364018D01*
X86179272Y-119352556D01*
X86179269Y-119352551D01*
X86176352Y-119345183D01*
X86153414Y-119313611D01*
X86150373Y-119309425D01*
X86143857Y-119299507D01*
X86125375Y-119268257D01*
X86121342Y-119261437D01*
X86107018Y-119247113D01*
X86094176Y-119232078D01*
X86082272Y-119215693D01*
X86048206Y-119187511D01*
X86039427Y-119179522D01*
X85974652Y-119114747D01*
X85967112Y-119106461D01*
X85963000Y-119099982D01*
X85913348Y-119053356D01*
X85910507Y-119050602D01*
X85890770Y-119030865D01*
X85887573Y-119028385D01*
X85878551Y-119020680D01*
X85846321Y-118990414D01*
X85839375Y-118986595D01*
X85839372Y-118986593D01*
X85828566Y-118980652D01*
X85812047Y-118969801D01*
X85811583Y-118969441D01*
X85796041Y-118957386D01*
X85788772Y-118954241D01*
X85788768Y-118954238D01*
X85755463Y-118939826D01*
X85744813Y-118934609D01*
X85706060Y-118913305D01*
X85696207Y-118910775D01*
X85686438Y-118908267D01*
X85667734Y-118901863D01*
X85656420Y-118896967D01*
X85656419Y-118896967D01*
X85649145Y-118893819D01*
X85641322Y-118892580D01*
X85641312Y-118892577D01*
X85605476Y-118886901D01*
X85593856Y-118884495D01*
X85558711Y-118875472D01*
X85558710Y-118875472D01*
X85551030Y-118873500D01*
X85530776Y-118873500D01*
X85511065Y-118871949D01*
X85510466Y-118871854D01*
X85491057Y-118868780D01*
X85448531Y-118872800D01*
X85447039Y-118872941D01*
X85435181Y-118873500D01*
X84775456Y-118873500D01*
X84709340Y-118854760D01*
X84598968Y-118786725D01*
X84598966Y-118786724D01*
X84592738Y-118782885D01*
X84444419Y-118733690D01*
X84431389Y-118729368D01*
X84431387Y-118729368D01*
X84424861Y-118727203D01*
X84418025Y-118726503D01*
X84418022Y-118726502D01*
X84374969Y-118722091D01*
X84320400Y-118716500D01*
X83319600Y-118716500D01*
X83316354Y-118716837D01*
X83316350Y-118716837D01*
X83220692Y-118726762D01*
X83220688Y-118726763D01*
X83213834Y-118727474D01*
X83207298Y-118729655D01*
X83207296Y-118729655D01*
X83105857Y-118763498D01*
X83046054Y-118783450D01*
X82895652Y-118876522D01*
X82770695Y-119001697D01*
X82766855Y-119007927D01*
X82766854Y-119007928D01*
X82690623Y-119131598D01*
X82677885Y-119152262D01*
X82675581Y-119159209D01*
X82625757Y-119309425D01*
X82622203Y-119320139D01*
X82621503Y-119326975D01*
X82621502Y-119326978D01*
X82617707Y-119364018D01*
X82611500Y-119424600D01*
X82611500Y-119890500D01*
X82591498Y-119958621D01*
X82537842Y-120005114D01*
X82485500Y-120016500D01*
X80712595Y-120016500D01*
X80644474Y-119996498D01*
X80623500Y-119979595D01*
X79945925Y-119302020D01*
X79915497Y-119252802D01*
X79883870Y-119158007D01*
X79883868Y-119158002D01*
X79881550Y-119151054D01*
X79788478Y-119000652D01*
X79663303Y-118875695D01*
X79657072Y-118871854D01*
X79518968Y-118786725D01*
X79518966Y-118786724D01*
X79512738Y-118782885D01*
X79364419Y-118733690D01*
X79351389Y-118729368D01*
X79351387Y-118729368D01*
X79344861Y-118727203D01*
X79338025Y-118726503D01*
X79338022Y-118726502D01*
X79294969Y-118722091D01*
X79240400Y-118716500D01*
X78436900Y-118716500D01*
X78368779Y-118696498D01*
X78322286Y-118642842D01*
X78310900Y-118590500D01*
X78310900Y-115169993D01*
X78330902Y-115101872D01*
X78384558Y-115055379D01*
X78454832Y-115045275D01*
X78519412Y-115074769D01*
X78550908Y-115116345D01*
X78637738Y-115300869D01*
X78806868Y-115567375D01*
X78891101Y-115669195D01*
X78960313Y-115752857D01*
X79008067Y-115810582D01*
X79238160Y-116026654D01*
X79493521Y-116212184D01*
X79496990Y-116214091D01*
X79496993Y-116214093D01*
X79766652Y-116362340D01*
X79770121Y-116364247D01*
X79773790Y-116365700D01*
X79773795Y-116365702D01*
X80052225Y-116475940D01*
X80063598Y-116480443D01*
X80369325Y-116558940D01*
X80682479Y-116598500D01*
X80998121Y-116598500D01*
X81311275Y-116558940D01*
X81617002Y-116480443D01*
X81628375Y-116475940D01*
X81906805Y-116365702D01*
X81906810Y-116365700D01*
X81910479Y-116364247D01*
X81913948Y-116362340D01*
X82183607Y-116214093D01*
X82183610Y-116214091D01*
X82187079Y-116212184D01*
X82442440Y-116026654D01*
X82672533Y-115810582D01*
X82720288Y-115752857D01*
X82789499Y-115669195D01*
X82800924Y-115655385D01*
X87692000Y-115655385D01*
X87696475Y-115670624D01*
X87697865Y-115671829D01*
X87705548Y-115673500D01*
X88627885Y-115673500D01*
X88643124Y-115669025D01*
X88644329Y-115667635D01*
X88646000Y-115659952D01*
X88646000Y-115655385D01*
X89154000Y-115655385D01*
X89158475Y-115670624D01*
X89159865Y-115671829D01*
X89167548Y-115673500D01*
X90089884Y-115673500D01*
X90105123Y-115669025D01*
X90106328Y-115667635D01*
X90107999Y-115659952D01*
X90107999Y-115617905D01*
X90107662Y-115611386D01*
X90097743Y-115515794D01*
X90094851Y-115502400D01*
X90043412Y-115348216D01*
X90037239Y-115335038D01*
X89951937Y-115197193D01*
X89942901Y-115185792D01*
X89828171Y-115071261D01*
X89816760Y-115062249D01*
X89678757Y-114977184D01*
X89665576Y-114971037D01*
X89511290Y-114919862D01*
X89497914Y-114916995D01*
X89403562Y-114907328D01*
X89397145Y-114907000D01*
X89172115Y-114907000D01*
X89156876Y-114911475D01*
X89155671Y-114912865D01*
X89154000Y-114920548D01*
X89154000Y-115655385D01*
X88646000Y-115655385D01*
X88646000Y-114925116D01*
X88641525Y-114909877D01*
X88640135Y-114908672D01*
X88632452Y-114907001D01*
X88402905Y-114907001D01*
X88396386Y-114907338D01*
X88300794Y-114917257D01*
X88287400Y-114920149D01*
X88133216Y-114971588D01*
X88120038Y-114977761D01*
X87982193Y-115063063D01*
X87970792Y-115072099D01*
X87856261Y-115186829D01*
X87847249Y-115198240D01*
X87762184Y-115336243D01*
X87756037Y-115349424D01*
X87704862Y-115503710D01*
X87701995Y-115517086D01*
X87692328Y-115611438D01*
X87692000Y-115617855D01*
X87692000Y-115655385D01*
X82800924Y-115655385D01*
X82873732Y-115567375D01*
X83042862Y-115300869D01*
X83044546Y-115297290D01*
X83044550Y-115297283D01*
X83175567Y-115018856D01*
X83175569Y-115018852D01*
X83177256Y-115015266D01*
X83274795Y-114715072D01*
X83333941Y-114405020D01*
X83353760Y-114090000D01*
X83333941Y-113774980D01*
X83274795Y-113464928D01*
X83177256Y-113164734D01*
X83168041Y-113145151D01*
X83044550Y-112882717D01*
X83044546Y-112882710D01*
X83042862Y-112879131D01*
X82873732Y-112612625D01*
X82691603Y-112392470D01*
X82675058Y-112372470D01*
X82675057Y-112372469D01*
X82672533Y-112369418D01*
X82660397Y-112358021D01*
X82601445Y-112302662D01*
X82442440Y-112153346D01*
X82187079Y-111967816D01*
X82138522Y-111941121D01*
X81913948Y-111817660D01*
X81913947Y-111817659D01*
X81910479Y-111815753D01*
X81906810Y-111814300D01*
X81906805Y-111814298D01*
X81620672Y-111701010D01*
X81620671Y-111701010D01*
X81617002Y-111699557D01*
X81311275Y-111621060D01*
X80998121Y-111581500D01*
X80682479Y-111581500D01*
X80369325Y-111621060D01*
X80063598Y-111699557D01*
X80059929Y-111701010D01*
X80059928Y-111701010D01*
X79773795Y-111814298D01*
X79773790Y-111814300D01*
X79770121Y-111815753D01*
X79766653Y-111817659D01*
X79766652Y-111817660D01*
X79542079Y-111941121D01*
X79493521Y-111967816D01*
X79238160Y-112153346D01*
X79079155Y-112302662D01*
X79020204Y-112358021D01*
X79008067Y-112369418D01*
X79005543Y-112372469D01*
X79005542Y-112372470D01*
X78988997Y-112392470D01*
X78806868Y-112612625D01*
X78637738Y-112879131D01*
X78574273Y-113014001D01*
X78550908Y-113063655D01*
X78503806Y-113116776D01*
X78435461Y-113135999D01*
X78367573Y-113115220D01*
X78321696Y-113061037D01*
X78310900Y-113010007D01*
X78310900Y-106790288D01*
X78330902Y-106722167D01*
X78384558Y-106675674D01*
X78454832Y-106665570D01*
X78519412Y-106695064D01*
X78525995Y-106701193D01*
X78576000Y-106751198D01*
X78580508Y-106754355D01*
X78580511Y-106754357D01*
X78598997Y-106767301D01*
X78763551Y-106882523D01*
X78768533Y-106884846D01*
X78768538Y-106884849D01*
X78966075Y-106976961D01*
X78971057Y-106979284D01*
X78976365Y-106980706D01*
X78976367Y-106980707D01*
X79186898Y-107037119D01*
X79186900Y-107037119D01*
X79192213Y-107038543D01*
X79420300Y-107058498D01*
X79648387Y-107038543D01*
X79653700Y-107037119D01*
X79653702Y-107037119D01*
X79864233Y-106980707D01*
X79864235Y-106980706D01*
X79869543Y-106979284D01*
X79874525Y-106976961D01*
X80072062Y-106884849D01*
X80072067Y-106884846D01*
X80077049Y-106882523D01*
X80241603Y-106767301D01*
X80260089Y-106754357D01*
X80260092Y-106754355D01*
X80264600Y-106751198D01*
X80426498Y-106589300D01*
X80475495Y-106519326D01*
X80504265Y-106478238D01*
X80557823Y-106401749D01*
X80560146Y-106396767D01*
X80560149Y-106396762D01*
X80652261Y-106199225D01*
X80652261Y-106199224D01*
X80654584Y-106194243D01*
X80657633Y-106182866D01*
X80712419Y-105978402D01*
X80712419Y-105978400D01*
X80713843Y-105973087D01*
X80733798Y-105745000D01*
X80731385Y-105717415D01*
X80727834Y-105676831D01*
X80741823Y-105607226D01*
X80791223Y-105556233D01*
X80860349Y-105540043D01*
X80927254Y-105563795D01*
X80942450Y-105576754D01*
X81327443Y-105961747D01*
X81334987Y-105970037D01*
X81339100Y-105976518D01*
X81344877Y-105981943D01*
X81344878Y-105981944D01*
X81359934Y-105996083D01*
X81395899Y-106057296D01*
X81393060Y-106128236D01*
X81362775Y-106177027D01*
X81254102Y-106285700D01*
X81122777Y-106473251D01*
X81120454Y-106478233D01*
X81120451Y-106478238D01*
X81028650Y-106675108D01*
X81026016Y-106680757D01*
X81024594Y-106686065D01*
X81024593Y-106686067D01*
X80971329Y-106884849D01*
X80966757Y-106901913D01*
X80946802Y-107130000D01*
X80966757Y-107358087D01*
X80968181Y-107363400D01*
X80968181Y-107363402D01*
X81020031Y-107556905D01*
X81026016Y-107579243D01*
X81028339Y-107584224D01*
X81028339Y-107584225D01*
X81100227Y-107738389D01*
X81122777Y-107786749D01*
X81163313Y-107844640D01*
X81233776Y-107945271D01*
X81254102Y-107974300D01*
X81416000Y-108136198D01*
X81420508Y-108139355D01*
X81420511Y-108139357D01*
X81488744Y-108187134D01*
X81603551Y-108267523D01*
X81608533Y-108269846D01*
X81608538Y-108269849D01*
X81803371Y-108360700D01*
X81811057Y-108364284D01*
X81816365Y-108365706D01*
X81816367Y-108365707D01*
X82026898Y-108422119D01*
X82026900Y-108422119D01*
X82032213Y-108423543D01*
X82260300Y-108443498D01*
X82488387Y-108423543D01*
X82493700Y-108422119D01*
X82493702Y-108422119D01*
X82704233Y-108365707D01*
X82704235Y-108365706D01*
X82709543Y-108364284D01*
X82717229Y-108360700D01*
X82912062Y-108269849D01*
X82912067Y-108269846D01*
X82917049Y-108267523D01*
X83031856Y-108187134D01*
X83100089Y-108139357D01*
X83100092Y-108139355D01*
X83104600Y-108136198D01*
X83266498Y-107974300D01*
X83286825Y-107945271D01*
X83357287Y-107844640D01*
X83397823Y-107786749D01*
X83420374Y-107738389D01*
X83492261Y-107584225D01*
X83492261Y-107584224D01*
X83494584Y-107579243D01*
X83500570Y-107556905D01*
X83552419Y-107363402D01*
X83552419Y-107363400D01*
X83553843Y-107358087D01*
X83573798Y-107130000D01*
X83553843Y-106901913D01*
X83549271Y-106884849D01*
X83496007Y-106686067D01*
X83496006Y-106686065D01*
X83494584Y-106680757D01*
X83492260Y-106675774D01*
X83492018Y-106675108D01*
X83487515Y-106604254D01*
X83522033Y-106542214D01*
X83584613Y-106508684D01*
X83655386Y-106514310D01*
X83699514Y-106542918D01*
X85640427Y-108483832D01*
X87537369Y-110380774D01*
X87571395Y-110443086D01*
X87566330Y-110513902D01*
X87523783Y-110570737D01*
X87488153Y-110589391D01*
X87401054Y-110618450D01*
X87250652Y-110711522D01*
X87245479Y-110716704D01*
X87219529Y-110742699D01*
X87125695Y-110836697D01*
X87121855Y-110842927D01*
X87121854Y-110842928D01*
X87051382Y-110957255D01*
X87032885Y-110987262D01*
X87020496Y-111024614D01*
X86979370Y-111148607D01*
X86977203Y-111155139D01*
X86966500Y-111259600D01*
X86966500Y-112260400D01*
X86966837Y-112263646D01*
X86966837Y-112263650D01*
X86976629Y-112358021D01*
X86977474Y-112366166D01*
X86979655Y-112372702D01*
X86979655Y-112372704D01*
X86989345Y-112401749D01*
X87033450Y-112533946D01*
X87126522Y-112684348D01*
X87251697Y-112809305D01*
X87257927Y-112813145D01*
X87257928Y-112813146D01*
X87395090Y-112897694D01*
X87402262Y-112902115D01*
X87482005Y-112928564D01*
X87563611Y-112955632D01*
X87563613Y-112955632D01*
X87570139Y-112957797D01*
X87576975Y-112958497D01*
X87576978Y-112958498D01*
X87620031Y-112962909D01*
X87674600Y-112968500D01*
X88247906Y-112968500D01*
X88316027Y-112988502D01*
X88337001Y-113005405D01*
X88572343Y-113240747D01*
X88579887Y-113249037D01*
X88584000Y-113255518D01*
X88589777Y-113260943D01*
X88633667Y-113302158D01*
X88636509Y-113304913D01*
X88656230Y-113324634D01*
X88659425Y-113327112D01*
X88668447Y-113334818D01*
X88700679Y-113365086D01*
X88707628Y-113368906D01*
X88718432Y-113374846D01*
X88734956Y-113385699D01*
X88750959Y-113398113D01*
X88791543Y-113415676D01*
X88802173Y-113420883D01*
X88840940Y-113442195D01*
X88848617Y-113444166D01*
X88848622Y-113444168D01*
X88860558Y-113447232D01*
X88879266Y-113453637D01*
X88897855Y-113461681D01*
X88905680Y-113462920D01*
X88905682Y-113462921D01*
X88941519Y-113468597D01*
X88953140Y-113471004D01*
X88984959Y-113479173D01*
X88995970Y-113482000D01*
X89016231Y-113482000D01*
X89035940Y-113483551D01*
X89055943Y-113486719D01*
X89063835Y-113485973D01*
X89064428Y-113485917D01*
X89099954Y-113482559D01*
X89111811Y-113482000D01*
X91900233Y-113482000D01*
X91911416Y-113482527D01*
X91918909Y-113484202D01*
X91926835Y-113483953D01*
X91926836Y-113483953D01*
X91986986Y-113482062D01*
X91990945Y-113482000D01*
X92018856Y-113482000D01*
X92022791Y-113481503D01*
X92022856Y-113481495D01*
X92034693Y-113480562D01*
X92066951Y-113479548D01*
X92070970Y-113479422D01*
X92078889Y-113479173D01*
X92098343Y-113473521D01*
X92117700Y-113469513D01*
X92129930Y-113467968D01*
X92129931Y-113467968D01*
X92137797Y-113466974D01*
X92145168Y-113464055D01*
X92145170Y-113464055D01*
X92178912Y-113450696D01*
X92190142Y-113446851D01*
X92224983Y-113436729D01*
X92224984Y-113436729D01*
X92232593Y-113434518D01*
X92239412Y-113430485D01*
X92239417Y-113430483D01*
X92250028Y-113424207D01*
X92267776Y-113415512D01*
X92286617Y-113408052D01*
X92306987Y-113393253D01*
X92322387Y-113382064D01*
X92332307Y-113375548D01*
X92363535Y-113357080D01*
X92363538Y-113357078D01*
X92370362Y-113353042D01*
X92384683Y-113338721D01*
X92399717Y-113325880D01*
X92402021Y-113324206D01*
X92416107Y-113313972D01*
X92444298Y-113279895D01*
X92452288Y-113271116D01*
X92717999Y-113005405D01*
X92780311Y-112971379D01*
X92807094Y-112968500D01*
X93146900Y-112968500D01*
X93215021Y-112988502D01*
X93261514Y-113042158D01*
X93272900Y-113094500D01*
X93272900Y-113855105D01*
X93252898Y-113923226D01*
X93235995Y-113944200D01*
X92521047Y-114659148D01*
X92512761Y-114666688D01*
X92506282Y-114670800D01*
X92500857Y-114676577D01*
X92459657Y-114720451D01*
X92456902Y-114723293D01*
X92437165Y-114743030D01*
X92434685Y-114746227D01*
X92426982Y-114755247D01*
X92396714Y-114787479D01*
X92392895Y-114794425D01*
X92392893Y-114794428D01*
X92386952Y-114805234D01*
X92376101Y-114821753D01*
X92363686Y-114837759D01*
X92360541Y-114845028D01*
X92360538Y-114845032D01*
X92346126Y-114878337D01*
X92340909Y-114888987D01*
X92319605Y-114927740D01*
X92317634Y-114935415D01*
X92317634Y-114935416D01*
X92314567Y-114947362D01*
X92308163Y-114966066D01*
X92305774Y-114971588D01*
X92300119Y-114984655D01*
X92298880Y-114992478D01*
X92298877Y-114992488D01*
X92293201Y-115028324D01*
X92290795Y-115039944D01*
X92284860Y-115063063D01*
X92279800Y-115082770D01*
X92279800Y-115103024D01*
X92278249Y-115122734D01*
X92275080Y-115142743D01*
X92275826Y-115150635D01*
X92279241Y-115186761D01*
X92279800Y-115198619D01*
X92279800Y-116993000D01*
X92259798Y-117061121D01*
X92206142Y-117107614D01*
X92153800Y-117119000D01*
X90082634Y-117119000D01*
X90014513Y-117098998D01*
X89975490Y-117059303D01*
X89974933Y-117058402D01*
X89948478Y-117015652D01*
X89930891Y-116998096D01*
X89861537Y-116928862D01*
X89827458Y-116866579D01*
X89832461Y-116795759D01*
X89861382Y-116750671D01*
X89943739Y-116668171D01*
X89952751Y-116656760D01*
X90037816Y-116518757D01*
X90043963Y-116505576D01*
X90095138Y-116351290D01*
X90098005Y-116337914D01*
X90107672Y-116243562D01*
X90108000Y-116237146D01*
X90108000Y-116199615D01*
X90103525Y-116184376D01*
X90102135Y-116183171D01*
X90094452Y-116181500D01*
X87710116Y-116181500D01*
X87694877Y-116185975D01*
X87693672Y-116187365D01*
X87692001Y-116195048D01*
X87692001Y-116237095D01*
X87692338Y-116243614D01*
X87702257Y-116339206D01*
X87705149Y-116352600D01*
X87756588Y-116506784D01*
X87762761Y-116519962D01*
X87848063Y-116657807D01*
X87857099Y-116669208D01*
X87938462Y-116750430D01*
X87972541Y-116812713D01*
X87967538Y-116883533D01*
X87938617Y-116928620D01*
X87855870Y-117011512D01*
X87855866Y-117011517D01*
X87850695Y-117016697D01*
X87846855Y-117022927D01*
X87846854Y-117022928D01*
X87823312Y-117061121D01*
X87757885Y-117167262D01*
X87702203Y-117335139D01*
X87701503Y-117341975D01*
X87701502Y-117341978D01*
X87697091Y-117385031D01*
X87691500Y-117439600D01*
X87691500Y-118065400D01*
X87691837Y-118068646D01*
X87691837Y-118068650D01*
X87701552Y-118162278D01*
X87702474Y-118171166D01*
X87704655Y-118177702D01*
X87704655Y-118177704D01*
X87726886Y-118244338D01*
X87758450Y-118338946D01*
X87851522Y-118489348D01*
X87976697Y-118614305D01*
X87982927Y-118618145D01*
X87982928Y-118618146D01*
X88120090Y-118702694D01*
X88127262Y-118707115D01*
X88186496Y-118726762D01*
X88288611Y-118760632D01*
X88288613Y-118760632D01*
X88295139Y-118762797D01*
X88301975Y-118763497D01*
X88301978Y-118763498D01*
X88343148Y-118767716D01*
X88399600Y-118773500D01*
X89400400Y-118773500D01*
X89403646Y-118773163D01*
X89403650Y-118773163D01*
X89499308Y-118763238D01*
X89499312Y-118763237D01*
X89506166Y-118762526D01*
X89512702Y-118760345D01*
X89512704Y-118760345D01*
X89653900Y-118713238D01*
X89673946Y-118706550D01*
X89824348Y-118613478D01*
X89949305Y-118488303D01*
X89968024Y-118457936D01*
X89975454Y-118445883D01*
X90028226Y-118398390D01*
X90082713Y-118386000D01*
X92797366Y-118386000D01*
X92865487Y-118406002D01*
X92904509Y-118445696D01*
X92931522Y-118489348D01*
X93056697Y-118614305D01*
X93062927Y-118618145D01*
X93062928Y-118618146D01*
X93200090Y-118702694D01*
X93207262Y-118707115D01*
X93266496Y-118726762D01*
X93368611Y-118760632D01*
X93368613Y-118760632D01*
X93375139Y-118762797D01*
X93381975Y-118763497D01*
X93381978Y-118763498D01*
X93423148Y-118767716D01*
X93479600Y-118773500D01*
X94480400Y-118773500D01*
X94483646Y-118773163D01*
X94483650Y-118773163D01*
X94579308Y-118763238D01*
X94579312Y-118763237D01*
X94586166Y-118762526D01*
X94592702Y-118760345D01*
X94592704Y-118760345D01*
X94733900Y-118713238D01*
X94753946Y-118706550D01*
X94904348Y-118613478D01*
X95029305Y-118488303D01*
X95055568Y-118445697D01*
X95118275Y-118343968D01*
X95118276Y-118343966D01*
X95122115Y-118337738D01*
X95150535Y-118252054D01*
X95190966Y-118193695D01*
X95256530Y-118166458D01*
X95326412Y-118178992D01*
X95359223Y-118202627D01*
X96298988Y-119142393D01*
X97230995Y-120074400D01*
X97265021Y-120136712D01*
X97267900Y-120163495D01*
X97267900Y-121090533D01*
X97267373Y-121101716D01*
X97265698Y-121109209D01*
X97265947Y-121117135D01*
X97265947Y-121117136D01*
X97267838Y-121177286D01*
X97267900Y-121181245D01*
X97267900Y-121209156D01*
X97268397Y-121213090D01*
X97268397Y-121213091D01*
X97268405Y-121213156D01*
X97269338Y-121224993D01*
X97270727Y-121269189D01*
X97274885Y-121283500D01*
X97276378Y-121288639D01*
X97280387Y-121308000D01*
X97282926Y-121328097D01*
X97285845Y-121335468D01*
X97285845Y-121335470D01*
X97299204Y-121369212D01*
X97303049Y-121380442D01*
X97315382Y-121422893D01*
X97319415Y-121429712D01*
X97319417Y-121429717D01*
X97325693Y-121440328D01*
X97334388Y-121458076D01*
X97341848Y-121476917D01*
X97346510Y-121483333D01*
X97346510Y-121483334D01*
X97367836Y-121512687D01*
X97374352Y-121522607D01*
X97396858Y-121560662D01*
X97411179Y-121574983D01*
X97424019Y-121590016D01*
X97435928Y-121606407D01*
X97442034Y-121611458D01*
X97470005Y-121634598D01*
X97478784Y-121642588D01*
X103228448Y-127392253D01*
X103235988Y-127400539D01*
X103240100Y-127407018D01*
X103245877Y-127412443D01*
X103289751Y-127453643D01*
X103292593Y-127456398D01*
X103312330Y-127476135D01*
X103315527Y-127478615D01*
X103324547Y-127486318D01*
X103356779Y-127516586D01*
X103363725Y-127520405D01*
X103363728Y-127520407D01*
X103374534Y-127526348D01*
X103391053Y-127537199D01*
X103405342Y-127548282D01*
X103407058Y-127549613D01*
X103406843Y-127549890D01*
X103452047Y-127598301D01*
X103461988Y-127626482D01*
X103462474Y-127631166D01*
X103518450Y-127798946D01*
X103611522Y-127949348D01*
X103736697Y-128074305D01*
X103742927Y-128078145D01*
X103742928Y-128078146D01*
X103880288Y-128162816D01*
X103887262Y-128167115D01*
X103939152Y-128184326D01*
X104048611Y-128220632D01*
X104048613Y-128220632D01*
X104055139Y-128222797D01*
X104061975Y-128223497D01*
X104061978Y-128223498D01*
X104105031Y-128227909D01*
X104159600Y-128233500D01*
X104760400Y-128233500D01*
X104763646Y-128233163D01*
X104763650Y-128233163D01*
X104859308Y-128223238D01*
X104859312Y-128223237D01*
X104866166Y-128222526D01*
X104872702Y-128220345D01*
X104872704Y-128220345D01*
X105004806Y-128176272D01*
X105033946Y-128166550D01*
X105184348Y-128073478D01*
X105219606Y-128038159D01*
X105304131Y-127953486D01*
X105309305Y-127948303D01*
X105312102Y-127943765D01*
X105369353Y-127903176D01*
X105440276Y-127899946D01*
X105501687Y-127935572D01*
X105509062Y-127944068D01*
X105517098Y-127954207D01*
X105631829Y-128068739D01*
X105643240Y-128077751D01*
X105781243Y-128162816D01*
X105794424Y-128168963D01*
X105948710Y-128220138D01*
X105962086Y-128223005D01*
X106056438Y-128232672D01*
X106062854Y-128233000D01*
X106087885Y-128233000D01*
X106103124Y-128228525D01*
X106104329Y-128227135D01*
X106106000Y-128219452D01*
X106106000Y-128214884D01*
X106614000Y-128214884D01*
X106618475Y-128230123D01*
X106619865Y-128231328D01*
X106627548Y-128232999D01*
X106657095Y-128232999D01*
X106663614Y-128232662D01*
X106759206Y-128222743D01*
X106772600Y-128219851D01*
X106926784Y-128168412D01*
X106939962Y-128162239D01*
X107077807Y-128076937D01*
X107089208Y-128067901D01*
X107203739Y-127953171D01*
X107212751Y-127941760D01*
X107297816Y-127803757D01*
X107303963Y-127790576D01*
X107355138Y-127636290D01*
X107358005Y-127622914D01*
X107367672Y-127528562D01*
X107368000Y-127522146D01*
X107368000Y-127272115D01*
X107363525Y-127256876D01*
X107362135Y-127255671D01*
X107354452Y-127254000D01*
X106632115Y-127254000D01*
X106616876Y-127258475D01*
X106615671Y-127259865D01*
X106614000Y-127267548D01*
X106614000Y-128214884D01*
X106106000Y-128214884D01*
X106106000Y-126872000D01*
X106126002Y-126803879D01*
X106179658Y-126757386D01*
X106232000Y-126746000D01*
X107349884Y-126746000D01*
X107365123Y-126741525D01*
X107366328Y-126740135D01*
X107367999Y-126732452D01*
X107367999Y-126477905D01*
X107367662Y-126471386D01*
X107357743Y-126375794D01*
X107354851Y-126362400D01*
X107303412Y-126208216D01*
X107297239Y-126195038D01*
X107211937Y-126057193D01*
X107202901Y-126045792D01*
X107108919Y-125951973D01*
X107074840Y-125889690D01*
X107079843Y-125818870D01*
X107122340Y-125761997D01*
X107188839Y-125737129D01*
X107197937Y-125736800D01*
X108210333Y-125736800D01*
X108221516Y-125737327D01*
X108229009Y-125739002D01*
X108236935Y-125738753D01*
X108236936Y-125738753D01*
X108297086Y-125736862D01*
X108301045Y-125736800D01*
X108328956Y-125736800D01*
X108332891Y-125736303D01*
X108332956Y-125736295D01*
X108344793Y-125735362D01*
X108377051Y-125734348D01*
X108381070Y-125734222D01*
X108388989Y-125733973D01*
X108408443Y-125728321D01*
X108427800Y-125724313D01*
X108440030Y-125722768D01*
X108440031Y-125722768D01*
X108447897Y-125721774D01*
X108455268Y-125718855D01*
X108455270Y-125718855D01*
X108489012Y-125705496D01*
X108500242Y-125701651D01*
X108535083Y-125691529D01*
X108535084Y-125691529D01*
X108542693Y-125689318D01*
X108549512Y-125685285D01*
X108549517Y-125685283D01*
X108560128Y-125679007D01*
X108577876Y-125670312D01*
X108596717Y-125662852D01*
X108632487Y-125636864D01*
X108642407Y-125630348D01*
X108673635Y-125611880D01*
X108673638Y-125611878D01*
X108680462Y-125607842D01*
X108694783Y-125593521D01*
X108709817Y-125580680D01*
X108714458Y-125577308D01*
X108726207Y-125568772D01*
X108754398Y-125534695D01*
X108762388Y-125525916D01*
X109898849Y-124389455D01*
X112344825Y-124389455D01*
X112345512Y-124396462D01*
X112345512Y-124396465D01*
X112348311Y-124425010D01*
X112361255Y-124557025D01*
X112414402Y-124716791D01*
X112418049Y-124722813D01*
X112418050Y-124722815D01*
X112477912Y-124821658D01*
X112501624Y-124860812D01*
X112506513Y-124865875D01*
X112506514Y-124865876D01*
X112544092Y-124904789D01*
X112618586Y-124981929D01*
X112624483Y-124985788D01*
X112753577Y-125070266D01*
X112753581Y-125070268D01*
X112759475Y-125074125D01*
X112917289Y-125132815D01*
X112924270Y-125133746D01*
X112924272Y-125133747D01*
X112969812Y-125139823D01*
X113084183Y-125155083D01*
X113091194Y-125154445D01*
X113091198Y-125154445D01*
X113244843Y-125140462D01*
X113251864Y-125139823D01*
X113258566Y-125137645D01*
X113258568Y-125137645D01*
X113405298Y-125089970D01*
X113405301Y-125089969D01*
X113411997Y-125087793D01*
X113556623Y-125001578D01*
X113561717Y-124996727D01*
X113561721Y-124996724D01*
X113673454Y-124890322D01*
X113673455Y-124890320D01*
X113678554Y-124885465D01*
X113694934Y-124860812D01*
X113767836Y-124751085D01*
X113771731Y-124745223D01*
X113831521Y-124587823D01*
X113846917Y-124478277D01*
X113854404Y-124425010D01*
X113854404Y-124425006D01*
X113854955Y-124421088D01*
X113855249Y-124400000D01*
X113841722Y-124279400D01*
X113837266Y-124239672D01*
X113837265Y-124239669D01*
X113836481Y-124232676D01*
X113781108Y-124073668D01*
X113691884Y-123930879D01*
X113683723Y-123922661D01*
X113578205Y-123816403D01*
X113578201Y-123816400D01*
X113573242Y-123811406D01*
X113431079Y-123721187D01*
X113272462Y-123664706D01*
X113265474Y-123663873D01*
X113265471Y-123663872D01*
X113172300Y-123652762D01*
X113105273Y-123644769D01*
X113098270Y-123645505D01*
X113098269Y-123645505D01*
X113052712Y-123650293D01*
X112937821Y-123662369D01*
X112931155Y-123664638D01*
X112931152Y-123664639D01*
X112785098Y-123714360D01*
X112785095Y-123714361D01*
X112778431Y-123716630D01*
X112772436Y-123720318D01*
X112772432Y-123720320D01*
X112641021Y-123801165D01*
X112641019Y-123801167D01*
X112635022Y-123804856D01*
X112514724Y-123922661D01*
X112423515Y-124064190D01*
X112421105Y-124070810D01*
X112421104Y-124070813D01*
X112395011Y-124142502D01*
X112365927Y-124222409D01*
X112344825Y-124389455D01*
X109898849Y-124389455D01*
X115480904Y-118807400D01*
X115543216Y-118773374D01*
X115614031Y-118778439D01*
X115659094Y-118807400D01*
X116459952Y-119608258D01*
X116467487Y-119616538D01*
X116471600Y-119623018D01*
X116521251Y-119669643D01*
X116524093Y-119672398D01*
X116543830Y-119692135D01*
X116547027Y-119694615D01*
X116556047Y-119702318D01*
X116588279Y-119732586D01*
X116595225Y-119736405D01*
X116595228Y-119736407D01*
X116606034Y-119742348D01*
X116622553Y-119753199D01*
X116638559Y-119765614D01*
X116645828Y-119768759D01*
X116645832Y-119768762D01*
X116679137Y-119783174D01*
X116689787Y-119788391D01*
X116728540Y-119809695D01*
X116736215Y-119811666D01*
X116736216Y-119811666D01*
X116748162Y-119814733D01*
X116766867Y-119821137D01*
X116785455Y-119829181D01*
X116793278Y-119830420D01*
X116793288Y-119830423D01*
X116829124Y-119836099D01*
X116840744Y-119838505D01*
X116875889Y-119847528D01*
X116883570Y-119849500D01*
X116903824Y-119849500D01*
X116923534Y-119851051D01*
X116943543Y-119854220D01*
X116951435Y-119853474D01*
X116987561Y-119850059D01*
X116999419Y-119849500D01*
X125214100Y-119849500D01*
X125282221Y-119869502D01*
X125328714Y-119923158D01*
X125340100Y-119975500D01*
X125340100Y-120457333D01*
X125339573Y-120468516D01*
X125337898Y-120476009D01*
X125338147Y-120483935D01*
X125338147Y-120483936D01*
X125340038Y-120544086D01*
X125340100Y-120548045D01*
X125340100Y-120575956D01*
X125340597Y-120579890D01*
X125340597Y-120579891D01*
X125340605Y-120579956D01*
X125341538Y-120591793D01*
X125342927Y-120635989D01*
X125347239Y-120650830D01*
X125348578Y-120655439D01*
X125352587Y-120674800D01*
X125355126Y-120694897D01*
X125358045Y-120702268D01*
X125358045Y-120702270D01*
X125371404Y-120736012D01*
X125375249Y-120747242D01*
X125387582Y-120789693D01*
X125391615Y-120796512D01*
X125391617Y-120796517D01*
X125397893Y-120807128D01*
X125406588Y-120824876D01*
X125414048Y-120843717D01*
X125418710Y-120850133D01*
X125418710Y-120850134D01*
X125440036Y-120879487D01*
X125446552Y-120889407D01*
X125465010Y-120920617D01*
X125469058Y-120927462D01*
X125483379Y-120941783D01*
X125496219Y-120956816D01*
X125508128Y-120973207D01*
X125514234Y-120978258D01*
X125542205Y-121001398D01*
X125550984Y-121009388D01*
X125754595Y-121212999D01*
X125788621Y-121275311D01*
X125791500Y-121302094D01*
X125791500Y-121875400D01*
X125802474Y-121981166D01*
X125858450Y-122148946D01*
X125951522Y-122299348D01*
X125956704Y-122304521D01*
X126006513Y-122354243D01*
X126076697Y-122424305D01*
X126227262Y-122517115D01*
X126307005Y-122543564D01*
X126388611Y-122570632D01*
X126388613Y-122570632D01*
X126395139Y-122572797D01*
X126401975Y-122573497D01*
X126401978Y-122573498D01*
X126445031Y-122577909D01*
X126499600Y-122583500D01*
X126637500Y-122583500D01*
X126705621Y-122603502D01*
X126752114Y-122657158D01*
X126763500Y-122709500D01*
X126763500Y-123167811D01*
X126743498Y-123235932D01*
X126689842Y-123282425D01*
X126619568Y-123292529D01*
X126604888Y-123289517D01*
X126484692Y-123257310D01*
X126484683Y-123257309D01*
X126479371Y-123255885D01*
X126260000Y-123236693D01*
X126040629Y-123255885D01*
X125827924Y-123312880D01*
X125756501Y-123346185D01*
X125633334Y-123403618D01*
X125633329Y-123403621D01*
X125628347Y-123405944D01*
X125623840Y-123409100D01*
X125623838Y-123409101D01*
X125452473Y-123529092D01*
X125452470Y-123529094D01*
X125447962Y-123532251D01*
X125292251Y-123687962D01*
X125289094Y-123692470D01*
X125289092Y-123692473D01*
X125173447Y-123857631D01*
X125165944Y-123868347D01*
X125163621Y-123873329D01*
X125163618Y-123873334D01*
X125136785Y-123930879D01*
X125072880Y-124067924D01*
X125015885Y-124280629D01*
X124996693Y-124500000D01*
X125015885Y-124719371D01*
X125072880Y-124932076D01*
X125089879Y-124968530D01*
X125163618Y-125126666D01*
X125163621Y-125126671D01*
X125165944Y-125131653D01*
X125169100Y-125136160D01*
X125169101Y-125136162D01*
X125277456Y-125290908D01*
X125292251Y-125312038D01*
X125447962Y-125467749D01*
X125628346Y-125594056D01*
X125633331Y-125596380D01*
X125633337Y-125596384D01*
X125717877Y-125635805D01*
X125771163Y-125682722D01*
X125790624Y-125750999D01*
X125770082Y-125818959D01*
X125717878Y-125864195D01*
X125633334Y-125903618D01*
X125633329Y-125903621D01*
X125628347Y-125905944D01*
X125623840Y-125909100D01*
X125623838Y-125909101D01*
X125452473Y-126029092D01*
X125452470Y-126029094D01*
X125447962Y-126032251D01*
X125292251Y-126187962D01*
X125289094Y-126192470D01*
X125289092Y-126192473D01*
X125170108Y-126362400D01*
X125165944Y-126368347D01*
X125163621Y-126373329D01*
X125163618Y-126373334D01*
X125154259Y-126393405D01*
X125072880Y-126567924D01*
X125015885Y-126780629D01*
X124996693Y-127000000D01*
X125015885Y-127219371D01*
X125072880Y-127432076D01*
X125102833Y-127496311D01*
X125163618Y-127626666D01*
X125163621Y-127626671D01*
X125165944Y-127631653D01*
X125169100Y-127636160D01*
X125169101Y-127636162D01*
X125286453Y-127803757D01*
X125292251Y-127812038D01*
X125447962Y-127967749D01*
X125452471Y-127970906D01*
X125452473Y-127970908D01*
X125515770Y-128015229D01*
X125628346Y-128094056D01*
X125827924Y-128187120D01*
X126040629Y-128244115D01*
X126260000Y-128263307D01*
X126479371Y-128244115D01*
X126692076Y-128187120D01*
X126891654Y-128094056D01*
X127004230Y-128015229D01*
X127067527Y-127970908D01*
X127067529Y-127970906D01*
X127072038Y-127967749D01*
X127145905Y-127893882D01*
X127208217Y-127859856D01*
X127279032Y-127864921D01*
X127324095Y-127893882D01*
X127397962Y-127967749D01*
X127402471Y-127970906D01*
X127402473Y-127970908D01*
X127465770Y-128015229D01*
X127578346Y-128094056D01*
X127777924Y-128187120D01*
X127990629Y-128244115D01*
X128210000Y-128263307D01*
X128429371Y-128244115D01*
X128551579Y-128211369D01*
X128622556Y-128213059D01*
X128639194Y-128224320D01*
X128640297Y-128218159D01*
X128688601Y-128166128D01*
X128699801Y-128160203D01*
X128836663Y-128096384D01*
X128836669Y-128096380D01*
X128841654Y-128094056D01*
X128954230Y-128015229D01*
X129017527Y-127970908D01*
X129017529Y-127970906D01*
X129022038Y-127967749D01*
X129177749Y-127812038D01*
X129183548Y-127803757D01*
X129300899Y-127636162D01*
X129300900Y-127636160D01*
X129304056Y-127631653D01*
X129306381Y-127626668D01*
X129306384Y-127626662D01*
X129311305Y-127616108D01*
X129358221Y-127562823D01*
X129426498Y-127543361D01*
X129494458Y-127563902D01*
X129540525Y-127617924D01*
X129551500Y-127669357D01*
X129551500Y-127798134D01*
X129558255Y-127860316D01*
X129609385Y-127996705D01*
X129640453Y-128038159D01*
X129679257Y-128089935D01*
X129704105Y-128156441D01*
X129689052Y-128225824D01*
X129638878Y-128276054D01*
X129578431Y-128291500D01*
X129352179Y-128291500D01*
X129039025Y-128331060D01*
X128859366Y-128377189D01*
X128784385Y-128396440D01*
X128713430Y-128394007D01*
X128698300Y-128383534D01*
X128697527Y-128388131D01*
X128649770Y-128440665D01*
X128630575Y-128450228D01*
X128443495Y-128524298D01*
X128443490Y-128524300D01*
X128439821Y-128525753D01*
X128163221Y-128677816D01*
X127907860Y-128863346D01*
X127677767Y-129079418D01*
X127675243Y-129082469D01*
X127675242Y-129082470D01*
X127650556Y-129112310D01*
X127476568Y-129322625D01*
X127307438Y-129589131D01*
X127305754Y-129592710D01*
X127305750Y-129592717D01*
X127174733Y-129871144D01*
X127173044Y-129874734D01*
X127075505Y-130174928D01*
X127016359Y-130484980D01*
X126996540Y-130800000D01*
X127016359Y-131115020D01*
X127075505Y-131425072D01*
X127173044Y-131725266D01*
X127174731Y-131728852D01*
X127174733Y-131728856D01*
X127305750Y-132007283D01*
X127305754Y-132007290D01*
X127307438Y-132010869D01*
X127476568Y-132277375D01*
X127677767Y-132520582D01*
X127907860Y-132736654D01*
X127911062Y-132738981D01*
X127911064Y-132738982D01*
X127915471Y-132742184D01*
X128163221Y-132922184D01*
X128166690Y-132924091D01*
X128166693Y-132924093D01*
X128325547Y-133011424D01*
X128439821Y-133074247D01*
X128443490Y-133075700D01*
X128443495Y-133075702D01*
X128576848Y-133128500D01*
X128733298Y-133190443D01*
X129039025Y-133268940D01*
X129352179Y-133308500D01*
X129667821Y-133308500D01*
X129980975Y-133268940D01*
X130286702Y-133190443D01*
X130443152Y-133128500D01*
X130576505Y-133075702D01*
X130576510Y-133075700D01*
X130580179Y-133074247D01*
X130694453Y-133011424D01*
X130853307Y-132924093D01*
X130853310Y-132924091D01*
X130856779Y-132922184D01*
X131104529Y-132742184D01*
X131108936Y-132738982D01*
X131108938Y-132738981D01*
X131112140Y-132736654D01*
X131342233Y-132520582D01*
X131543432Y-132277375D01*
X131712562Y-132010869D01*
X131714246Y-132007290D01*
X131714250Y-132007283D01*
X131845267Y-131728856D01*
X131845269Y-131728852D01*
X131846956Y-131725266D01*
X131944495Y-131425072D01*
X132003641Y-131115020D01*
X132023460Y-130800000D01*
X132003641Y-130484980D01*
X131944495Y-130174928D01*
X131855165Y-129900000D01*
X133846439Y-129900000D01*
X133846709Y-129904119D01*
X133866292Y-130202889D01*
X133866660Y-130208507D01*
X133926975Y-130511735D01*
X133928300Y-130515639D01*
X133928301Y-130515642D01*
X134018968Y-130782739D01*
X134026354Y-130804496D01*
X134028177Y-130808192D01*
X134028180Y-130808200D01*
X134135706Y-131026239D01*
X134163096Y-131081780D01*
X134165390Y-131085213D01*
X134165391Y-131085215D01*
X134293455Y-131276876D01*
X134334861Y-131338845D01*
X134337575Y-131341939D01*
X134337579Y-131341945D01*
X134519036Y-131548856D01*
X134538710Y-131571290D01*
X134541799Y-131573999D01*
X134768055Y-131772421D01*
X134768061Y-131772425D01*
X134771155Y-131775139D01*
X134774581Y-131777428D01*
X134774586Y-131777432D01*
X134960749Y-131901822D01*
X135028219Y-131946904D01*
X135031918Y-131948728D01*
X135031923Y-131948731D01*
X135139332Y-132001699D01*
X135305504Y-132083646D01*
X135309409Y-132084971D01*
X135309410Y-132084972D01*
X135594358Y-132181699D01*
X135594361Y-132181700D01*
X135598265Y-132183025D01*
X135824961Y-132228117D01*
X135897450Y-132242536D01*
X135897453Y-132242536D01*
X135901493Y-132243340D01*
X135905604Y-132243609D01*
X135905608Y-132243610D01*
X136205881Y-132263291D01*
X136210000Y-132263561D01*
X136214119Y-132263291D01*
X136514392Y-132243610D01*
X136514396Y-132243609D01*
X136518507Y-132243340D01*
X136522547Y-132242536D01*
X136522550Y-132242536D01*
X136595039Y-132228117D01*
X136821735Y-132183025D01*
X136825639Y-132181700D01*
X136825642Y-132181699D01*
X137110590Y-132084972D01*
X137110591Y-132084971D01*
X137114496Y-132083646D01*
X137280668Y-132001699D01*
X137388077Y-131948731D01*
X137388082Y-131948728D01*
X137391781Y-131946904D01*
X137459251Y-131901822D01*
X137645414Y-131777432D01*
X137645419Y-131777428D01*
X137648845Y-131775139D01*
X137651939Y-131772425D01*
X137651945Y-131772421D01*
X137878201Y-131573999D01*
X137881290Y-131571290D01*
X137900964Y-131548856D01*
X138082421Y-131341945D01*
X138082425Y-131341939D01*
X138085139Y-131338845D01*
X138126546Y-131276876D01*
X138254609Y-131085215D01*
X138254610Y-131085213D01*
X138256904Y-131081780D01*
X138284294Y-131026239D01*
X138391820Y-130808200D01*
X138391823Y-130808192D01*
X138393646Y-130804496D01*
X138401032Y-130782739D01*
X138491699Y-130515642D01*
X138491700Y-130515639D01*
X138493025Y-130511735D01*
X138553340Y-130208507D01*
X138553709Y-130202889D01*
X138573291Y-129904119D01*
X138573561Y-129900000D01*
X138553340Y-129591493D01*
X138552205Y-129585784D01*
X138538117Y-129514961D01*
X138493025Y-129288265D01*
X138444725Y-129145976D01*
X138394975Y-128999419D01*
X138393646Y-128995504D01*
X138391823Y-128991808D01*
X138391820Y-128991800D01*
X138258730Y-128721923D01*
X138256904Y-128718220D01*
X138254609Y-128714785D01*
X138087432Y-128464586D01*
X138087428Y-128464581D01*
X138085139Y-128461155D01*
X138082425Y-128458061D01*
X138082421Y-128458055D01*
X137883999Y-128231799D01*
X137881290Y-128228710D01*
X137867299Y-128216440D01*
X137651945Y-128027579D01*
X137651939Y-128027575D01*
X137648845Y-128024861D01*
X137645419Y-128022572D01*
X137645414Y-128022568D01*
X137398622Y-127857667D01*
X137391781Y-127853096D01*
X137388082Y-127851272D01*
X137388077Y-127851269D01*
X137245565Y-127780990D01*
X137114496Y-127716354D01*
X137107214Y-127713882D01*
X136825642Y-127618301D01*
X136825639Y-127618300D01*
X136821735Y-127616975D01*
X136583225Y-127569533D01*
X136522550Y-127557464D01*
X136522547Y-127557464D01*
X136518507Y-127556660D01*
X136514396Y-127556391D01*
X136514392Y-127556390D01*
X136214119Y-127536709D01*
X136210000Y-127536439D01*
X136205881Y-127536709D01*
X135905608Y-127556390D01*
X135905604Y-127556391D01*
X135901493Y-127556660D01*
X135897453Y-127557464D01*
X135897450Y-127557464D01*
X135836775Y-127569533D01*
X135598265Y-127616975D01*
X135594361Y-127618300D01*
X135594358Y-127618301D01*
X135312786Y-127713882D01*
X135305504Y-127716354D01*
X135301808Y-127718177D01*
X135301800Y-127718180D01*
X135120624Y-127807527D01*
X135028220Y-127853096D01*
X135024787Y-127855390D01*
X135024785Y-127855391D01*
X134774586Y-128022568D01*
X134774581Y-128022572D01*
X134771155Y-128024861D01*
X134768061Y-128027575D01*
X134768055Y-128027579D01*
X134552701Y-128216440D01*
X134538710Y-128228710D01*
X134536001Y-128231799D01*
X134337579Y-128458055D01*
X134337575Y-128458061D01*
X134334861Y-128461155D01*
X134332572Y-128464581D01*
X134332568Y-128464586D01*
X134165391Y-128714785D01*
X134163096Y-128718220D01*
X134161270Y-128721923D01*
X134028180Y-128991800D01*
X134028177Y-128991808D01*
X134026354Y-128995504D01*
X134025025Y-128999419D01*
X133975276Y-129145976D01*
X133926975Y-129288265D01*
X133881883Y-129514961D01*
X133867796Y-129585784D01*
X133866660Y-129591493D01*
X133846439Y-129900000D01*
X131855165Y-129900000D01*
X131846956Y-129874734D01*
X131845267Y-129871144D01*
X131714250Y-129592717D01*
X131714246Y-129592710D01*
X131712562Y-129589131D01*
X131543432Y-129322625D01*
X131369444Y-129112310D01*
X131344758Y-129082470D01*
X131344757Y-129082469D01*
X131342233Y-129079418D01*
X131112140Y-128863346D01*
X130856779Y-128677816D01*
X130580179Y-128525753D01*
X130576510Y-128524300D01*
X130576505Y-128524298D01*
X130519307Y-128501652D01*
X130463333Y-128457977D01*
X130439857Y-128390974D01*
X130456333Y-128321916D01*
X130507529Y-128272727D01*
X130565691Y-128258500D01*
X131608134Y-128258500D01*
X131670316Y-128251745D01*
X131806705Y-128200615D01*
X131923261Y-128113261D01*
X131930418Y-128103711D01*
X131932772Y-128101951D01*
X131934992Y-128099731D01*
X131935312Y-128100051D01*
X131987275Y-128061195D01*
X132058093Y-128056166D01*
X132103516Y-128076059D01*
X132124091Y-128090465D01*
X132133584Y-128095947D01*
X132323113Y-128184326D01*
X132333405Y-128188072D01*
X132535401Y-128242196D01*
X132546196Y-128244099D01*
X132754525Y-128262326D01*
X132765475Y-128262326D01*
X132973804Y-128244099D01*
X132984599Y-128242196D01*
X133186595Y-128188072D01*
X133196887Y-128184326D01*
X133386416Y-128095947D01*
X133395912Y-128090464D01*
X133437148Y-128061590D01*
X133445523Y-128051113D01*
X133438455Y-128037667D01*
X132489884Y-127089095D01*
X132455859Y-127026783D01*
X132457694Y-127001132D01*
X133124408Y-127001132D01*
X133124539Y-127002966D01*
X133128790Y-127009580D01*
X133798391Y-127679180D01*
X133810161Y-127685607D01*
X133822176Y-127676311D01*
X133850466Y-127635907D01*
X133855946Y-127626417D01*
X133944326Y-127436887D01*
X133948072Y-127426595D01*
X134002196Y-127224599D01*
X134004099Y-127213804D01*
X134022326Y-127005475D01*
X134022326Y-126994525D01*
X134004099Y-126786196D01*
X134002196Y-126775401D01*
X133948072Y-126573405D01*
X133944326Y-126563113D01*
X133855946Y-126373583D01*
X133850466Y-126364093D01*
X133821589Y-126322851D01*
X133811113Y-126314477D01*
X133797666Y-126321545D01*
X133132021Y-126987189D01*
X133124408Y-127001132D01*
X132457694Y-127001132D01*
X132460924Y-126955967D01*
X132489885Y-126910905D01*
X132760000Y-126640790D01*
X133439176Y-125961613D01*
X133445606Y-125949838D01*
X133436310Y-125937824D01*
X133395912Y-125909536D01*
X133386416Y-125904053D01*
X133301531Y-125864471D01*
X133248246Y-125817554D01*
X133228785Y-125749276D01*
X133249327Y-125681316D01*
X133301531Y-125636081D01*
X133386667Y-125596382D01*
X133386672Y-125596379D01*
X133391654Y-125594056D01*
X133572038Y-125467749D01*
X133727749Y-125312038D01*
X133742545Y-125290908D01*
X133850899Y-125136162D01*
X133850900Y-125136160D01*
X133854056Y-125131653D01*
X133856379Y-125126671D01*
X133856382Y-125126666D01*
X133930121Y-124968530D01*
X133947120Y-124932076D01*
X134004115Y-124719371D01*
X134023307Y-124500000D01*
X134004115Y-124280629D01*
X133947120Y-124067924D01*
X133883215Y-123930879D01*
X133856382Y-123873334D01*
X133856379Y-123873329D01*
X133854056Y-123868347D01*
X133817685Y-123816403D01*
X133777987Y-123759709D01*
X133755200Y-123687438D01*
X133755200Y-120280667D01*
X133755727Y-120269484D01*
X133757402Y-120261991D01*
X133755262Y-120193900D01*
X133755200Y-120189943D01*
X133755200Y-120162044D01*
X133754696Y-120158053D01*
X133753763Y-120146211D01*
X133753465Y-120136712D01*
X133752374Y-120102011D01*
X133750162Y-120094397D01*
X133750161Y-120094392D01*
X133746723Y-120082559D01*
X133742712Y-120063195D01*
X133741167Y-120050964D01*
X133740174Y-120043103D01*
X133737257Y-120035736D01*
X133737256Y-120035731D01*
X133723898Y-120001992D01*
X133720054Y-119990765D01*
X133717361Y-119981498D01*
X133707718Y-119948307D01*
X133697407Y-119930872D01*
X133688712Y-119913124D01*
X133681252Y-119894283D01*
X133655264Y-119858513D01*
X133648748Y-119848593D01*
X133630280Y-119817365D01*
X133630278Y-119817362D01*
X133626242Y-119810538D01*
X133611921Y-119796217D01*
X133599080Y-119781183D01*
X133591832Y-119771207D01*
X133587172Y-119764793D01*
X133553101Y-119736607D01*
X133544322Y-119728618D01*
X133325187Y-119509483D01*
X133291161Y-119447171D01*
X133288500Y-119427274D01*
X133288500Y-119424600D01*
X133286647Y-119406742D01*
X133278238Y-119325692D01*
X133278237Y-119325688D01*
X133277526Y-119318834D01*
X133274916Y-119311009D01*
X133223868Y-119158002D01*
X133221550Y-119151054D01*
X133128478Y-119000652D01*
X133003303Y-118875695D01*
X132997072Y-118871854D01*
X132858968Y-118786725D01*
X132858966Y-118786724D01*
X132852738Y-118782885D01*
X132704419Y-118733690D01*
X132691389Y-118729368D01*
X132691387Y-118729368D01*
X132684861Y-118727203D01*
X132678025Y-118726503D01*
X132678022Y-118726502D01*
X132634969Y-118722091D01*
X132580400Y-118716500D01*
X131579600Y-118716500D01*
X131576354Y-118716837D01*
X131576350Y-118716837D01*
X131480692Y-118726762D01*
X131480688Y-118726763D01*
X131473834Y-118727474D01*
X131467298Y-118729655D01*
X131467296Y-118729655D01*
X131365857Y-118763498D01*
X131306054Y-118783450D01*
X131155652Y-118876522D01*
X131030695Y-119001697D01*
X131026855Y-119007927D01*
X131026854Y-119007928D01*
X130950623Y-119131598D01*
X130937885Y-119152262D01*
X130911412Y-119232078D01*
X130909466Y-119237944D01*
X130869036Y-119296304D01*
X130803472Y-119323542D01*
X130733591Y-119311009D01*
X130700778Y-119287373D01*
X130375300Y-118961895D01*
X130341274Y-118899583D01*
X130346339Y-118828768D01*
X130375300Y-118783705D01*
X132922547Y-116236457D01*
X132930837Y-116228913D01*
X132937318Y-116224800D01*
X132947373Y-116214093D01*
X132983958Y-116175133D01*
X132986713Y-116172291D01*
X133006435Y-116152569D01*
X133008912Y-116149376D01*
X133016617Y-116140355D01*
X133041459Y-116113900D01*
X133046886Y-116108121D01*
X133050707Y-116101171D01*
X133056646Y-116090368D01*
X133067502Y-116073841D01*
X133075057Y-116064102D01*
X133075058Y-116064100D01*
X133079914Y-116057840D01*
X133097474Y-116017260D01*
X133102691Y-116006612D01*
X133120175Y-115974809D01*
X133120176Y-115974807D01*
X133123995Y-115967860D01*
X133129033Y-115948237D01*
X133135437Y-115929534D01*
X133140333Y-115918220D01*
X133140333Y-115918219D01*
X133143481Y-115910945D01*
X133144720Y-115903122D01*
X133144723Y-115903112D01*
X133150399Y-115867276D01*
X133152805Y-115855656D01*
X133161828Y-115820511D01*
X133161828Y-115820510D01*
X133163800Y-115812830D01*
X133163800Y-115792576D01*
X133165351Y-115772865D01*
X133167280Y-115760686D01*
X133168520Y-115752857D01*
X133164359Y-115708838D01*
X133163800Y-115696981D01*
X133163800Y-104204367D01*
X133164327Y-104193184D01*
X133166002Y-104185691D01*
X133163862Y-104117600D01*
X133163800Y-104113643D01*
X133163800Y-104085744D01*
X133163296Y-104081753D01*
X133162363Y-104069911D01*
X133161223Y-104033636D01*
X133160974Y-104025711D01*
X133158762Y-104018097D01*
X133158761Y-104018092D01*
X133155323Y-104006259D01*
X133151312Y-103986895D01*
X133149767Y-103974664D01*
X133148774Y-103966803D01*
X133145857Y-103959436D01*
X133145856Y-103959431D01*
X133132498Y-103925692D01*
X133128654Y-103914465D01*
X133126532Y-103907161D01*
X133116318Y-103872007D01*
X133106007Y-103854572D01*
X133097312Y-103836824D01*
X133089852Y-103817983D01*
X133063864Y-103782213D01*
X133057348Y-103772293D01*
X133038880Y-103741065D01*
X133038878Y-103741062D01*
X133034842Y-103734238D01*
X133020521Y-103719917D01*
X133007680Y-103704883D01*
X133000431Y-103694906D01*
X132995772Y-103688493D01*
X132961695Y-103660302D01*
X132952916Y-103652312D01*
X132708852Y-103408248D01*
X132674826Y-103345936D01*
X132676241Y-103286541D01*
X132691818Y-103228409D01*
X132691820Y-103228398D01*
X132693243Y-103223087D01*
X132713198Y-102995000D01*
X132693243Y-102766913D01*
X132687068Y-102743868D01*
X132635407Y-102551067D01*
X132635406Y-102551065D01*
X132633984Y-102545757D01*
X132620608Y-102517072D01*
X132539549Y-102343238D01*
X132539546Y-102343233D01*
X132537223Y-102338251D01*
X132405898Y-102150700D01*
X132244000Y-101988802D01*
X132239492Y-101985645D01*
X132239489Y-101985643D01*
X132128367Y-101907835D01*
X132056449Y-101857477D01*
X132051467Y-101855154D01*
X132051462Y-101855151D01*
X131853925Y-101763039D01*
X131853924Y-101763039D01*
X131848943Y-101760716D01*
X131739714Y-101731448D01*
X131679092Y-101694496D01*
X131648070Y-101630635D01*
X131656499Y-101560141D01*
X131701702Y-101505394D01*
X131739715Y-101488034D01*
X131843461Y-101460236D01*
X131853753Y-101456490D01*
X132051211Y-101364414D01*
X132060706Y-101358931D01*
X132112748Y-101322491D01*
X132121124Y-101312012D01*
X132114056Y-101298566D01*
X131129585Y-100314095D01*
X131095559Y-100251783D01*
X131097394Y-100226132D01*
X131764108Y-100226132D01*
X131764239Y-100227965D01*
X131768490Y-100234580D01*
X132473987Y-100940077D01*
X132485762Y-100946507D01*
X132497777Y-100937211D01*
X132533631Y-100886006D01*
X132539114Y-100876511D01*
X132631190Y-100679053D01*
X132634936Y-100668761D01*
X132691325Y-100458312D01*
X132693228Y-100447519D01*
X132712217Y-100230475D01*
X132712217Y-100219525D01*
X132693228Y-100002481D01*
X132691325Y-99991688D01*
X132634936Y-99781239D01*
X132631190Y-99770947D01*
X132539114Y-99573489D01*
X132533631Y-99563994D01*
X132497191Y-99511952D01*
X132486712Y-99503576D01*
X132473266Y-99510644D01*
X131771722Y-100212188D01*
X131764108Y-100226132D01*
X131097394Y-100226132D01*
X131100624Y-100180968D01*
X131129585Y-100135905D01*
X132114777Y-99150713D01*
X132121207Y-99138938D01*
X132111911Y-99126923D01*
X132060706Y-99091069D01*
X132051211Y-99085586D01*
X131853753Y-98993510D01*
X131843461Y-98989764D01*
X131739715Y-98961966D01*
X131679092Y-98925015D01*
X131648071Y-98861154D01*
X131656499Y-98790660D01*
X131701702Y-98735912D01*
X131739714Y-98718552D01*
X131843636Y-98690706D01*
X131848943Y-98689284D01*
X131853925Y-98686961D01*
X132051462Y-98594849D01*
X132051467Y-98594846D01*
X132056449Y-98592523D01*
X132231011Y-98470293D01*
X132239489Y-98464357D01*
X132239492Y-98464355D01*
X132244000Y-98461198D01*
X132405898Y-98299300D01*
X132429189Y-98266038D01*
X132477667Y-98196803D01*
X132537223Y-98111749D01*
X132539546Y-98106767D01*
X132539549Y-98106762D01*
X132631661Y-97909225D01*
X132631661Y-97909224D01*
X132633984Y-97904243D01*
X132662847Y-97796528D01*
X132691819Y-97688402D01*
X132691819Y-97688400D01*
X132693243Y-97683087D01*
X132713198Y-97455000D01*
X132693243Y-97226913D01*
X132674446Y-97156762D01*
X132635407Y-97011067D01*
X132635406Y-97011065D01*
X132633984Y-97005757D01*
X132627252Y-96991320D01*
X132539549Y-96803238D01*
X132539546Y-96803233D01*
X132537223Y-96798251D01*
X132441137Y-96661026D01*
X132409057Y-96615211D01*
X132409055Y-96615208D01*
X132405898Y-96610700D01*
X132244000Y-96448802D01*
X132239492Y-96445645D01*
X132239489Y-96445643D01*
X132127498Y-96367226D01*
X132056449Y-96317477D01*
X132051467Y-96315154D01*
X132051462Y-96315151D01*
X131853925Y-96223039D01*
X131853924Y-96223039D01*
X131848943Y-96220716D01*
X131843635Y-96219294D01*
X131843633Y-96219293D01*
X131633102Y-96162881D01*
X131633100Y-96162881D01*
X131627787Y-96161457D01*
X131399700Y-96141502D01*
X131171613Y-96161457D01*
X131166300Y-96162881D01*
X131166298Y-96162881D01*
X130955767Y-96219293D01*
X130955765Y-96219294D01*
X130950457Y-96220716D01*
X130945476Y-96223039D01*
X130945475Y-96223039D01*
X130747938Y-96315151D01*
X130747933Y-96315154D01*
X130742951Y-96317477D01*
X130671902Y-96367226D01*
X130559911Y-96445643D01*
X130559908Y-96445645D01*
X130555400Y-96448802D01*
X130393502Y-96610700D01*
X130390345Y-96615208D01*
X130390343Y-96615211D01*
X130358263Y-96661026D01*
X130262177Y-96798251D01*
X130259854Y-96803233D01*
X130259851Y-96803238D01*
X130172148Y-96991320D01*
X130165416Y-97005757D01*
X130163994Y-97011065D01*
X130163993Y-97011067D01*
X130124954Y-97156762D01*
X130106157Y-97226913D01*
X130086202Y-97455000D01*
X130086681Y-97460475D01*
X130086681Y-97460478D01*
X130090593Y-97505197D01*
X130076603Y-97574801D01*
X130027203Y-97625793D01*
X129958077Y-97641983D01*
X129891172Y-97618230D01*
X129875976Y-97605272D01*
X129754206Y-97483501D01*
X129464546Y-97193841D01*
X129430521Y-97131529D01*
X129435586Y-97060713D01*
X129464547Y-97015651D01*
X129565898Y-96914300D01*
X129571190Y-96906743D01*
X129643665Y-96803238D01*
X129697223Y-96726749D01*
X129699546Y-96721767D01*
X129699549Y-96721762D01*
X129791661Y-96524225D01*
X129791661Y-96524224D01*
X129793984Y-96519243D01*
X129796334Y-96510475D01*
X129851819Y-96303402D01*
X129851819Y-96303400D01*
X129853243Y-96298087D01*
X129873198Y-96070000D01*
X129853243Y-95841913D01*
X129827881Y-95747262D01*
X129795407Y-95626067D01*
X129795406Y-95626065D01*
X129793984Y-95620757D01*
X129787966Y-95607852D01*
X129699549Y-95418238D01*
X129699546Y-95418233D01*
X129697223Y-95413251D01*
X129584870Y-95252795D01*
X129569057Y-95230211D01*
X129569055Y-95230208D01*
X129565898Y-95225700D01*
X129404000Y-95063802D01*
X129399492Y-95060645D01*
X129399489Y-95060643D01*
X129306453Y-94995499D01*
X129216449Y-94932477D01*
X129211467Y-94930154D01*
X129211462Y-94930151D01*
X129013925Y-94838039D01*
X129013924Y-94838039D01*
X129008943Y-94835716D01*
X129003635Y-94834294D01*
X129003633Y-94834293D01*
X128793102Y-94777881D01*
X128793100Y-94777881D01*
X128787787Y-94776457D01*
X128559700Y-94756502D01*
X128331613Y-94776457D01*
X128326300Y-94777881D01*
X128326298Y-94777881D01*
X128271979Y-94792436D01*
X128139407Y-94827959D01*
X128133234Y-94829613D01*
X128062258Y-94827923D01*
X128003462Y-94788129D01*
X127975514Y-94722865D01*
X127974685Y-94711863D01*
X127973622Y-94678037D01*
X127973373Y-94670110D01*
X127967722Y-94650658D01*
X127963714Y-94631306D01*
X127962168Y-94619068D01*
X127962167Y-94619066D01*
X127961174Y-94611203D01*
X127944894Y-94570086D01*
X127941059Y-94558885D01*
X127928718Y-94516406D01*
X127924685Y-94509587D01*
X127924683Y-94509582D01*
X127918407Y-94498971D01*
X127909710Y-94481221D01*
X127902252Y-94462383D01*
X127876271Y-94426623D01*
X127869753Y-94416701D01*
X127851278Y-94385460D01*
X127851274Y-94385455D01*
X127847242Y-94378637D01*
X127832918Y-94364313D01*
X127820076Y-94349278D01*
X127808172Y-94332893D01*
X127774106Y-94304711D01*
X127765327Y-94296722D01*
X122975552Y-89506947D01*
X122968012Y-89498661D01*
X122963900Y-89492182D01*
X122914248Y-89445556D01*
X122911407Y-89442802D01*
X122891670Y-89423065D01*
X122888473Y-89420585D01*
X122879451Y-89412880D01*
X122859037Y-89393710D01*
X122847221Y-89382614D01*
X122840275Y-89378795D01*
X122840272Y-89378793D01*
X122829466Y-89372852D01*
X122812947Y-89362001D01*
X122810918Y-89360427D01*
X122796941Y-89349586D01*
X122789672Y-89346441D01*
X122789668Y-89346438D01*
X122756363Y-89332026D01*
X122745713Y-89326809D01*
X122706960Y-89305505D01*
X122687337Y-89300467D01*
X122668634Y-89294063D01*
X122657320Y-89289167D01*
X122657319Y-89289167D01*
X122650045Y-89286019D01*
X122642222Y-89284780D01*
X122642212Y-89284777D01*
X122606376Y-89279101D01*
X122594756Y-89276695D01*
X122559611Y-89267672D01*
X122559610Y-89267672D01*
X122551930Y-89265700D01*
X122531676Y-89265700D01*
X122511965Y-89264149D01*
X122499786Y-89262220D01*
X122491957Y-89260980D01*
X122484065Y-89261726D01*
X122447939Y-89265141D01*
X122436081Y-89265700D01*
X116563013Y-89265700D01*
X116494892Y-89245698D01*
X116447652Y-89190065D01*
X116445718Y-89183406D01*
X116435407Y-89165971D01*
X116426710Y-89148221D01*
X116419252Y-89129383D01*
X116405170Y-89110000D01*
X127466240Y-89110000D01*
X127486059Y-89425020D01*
X127545205Y-89735072D01*
X127594140Y-89885679D01*
X127638604Y-90022523D01*
X127642744Y-90035266D01*
X127644431Y-90038852D01*
X127644433Y-90038856D01*
X127775450Y-90317283D01*
X127775454Y-90317290D01*
X127777138Y-90320869D01*
X127946268Y-90587375D01*
X128017105Y-90673002D01*
X128144749Y-90827296D01*
X128147467Y-90830582D01*
X128377560Y-91046654D01*
X128632921Y-91232184D01*
X128636390Y-91234091D01*
X128636393Y-91234093D01*
X128873141Y-91364247D01*
X128909521Y-91384247D01*
X128913190Y-91385700D01*
X128913195Y-91385702D01*
X129199328Y-91498990D01*
X129202998Y-91500443D01*
X129508725Y-91578940D01*
X129821879Y-91618500D01*
X130137521Y-91618500D01*
X130450675Y-91578940D01*
X130756402Y-91500443D01*
X130760072Y-91498990D01*
X131046205Y-91385702D01*
X131046210Y-91385700D01*
X131049879Y-91384247D01*
X131086259Y-91364247D01*
X131323007Y-91234093D01*
X131323010Y-91234091D01*
X131326479Y-91232184D01*
X131581840Y-91046654D01*
X131811933Y-90830582D01*
X131814652Y-90827296D01*
X131942295Y-90673002D01*
X132013132Y-90587375D01*
X132182262Y-90320869D01*
X132183946Y-90317290D01*
X132183950Y-90317283D01*
X132314967Y-90038856D01*
X132314969Y-90038852D01*
X132316656Y-90035266D01*
X132320797Y-90022523D01*
X132365260Y-89885679D01*
X132414195Y-89735072D01*
X132473341Y-89425020D01*
X132493160Y-89110000D01*
X132473341Y-88794980D01*
X132414195Y-88484928D01*
X132316656Y-88184734D01*
X132314967Y-88181144D01*
X132183950Y-87902717D01*
X132183946Y-87902710D01*
X132182262Y-87899131D01*
X132013132Y-87632625D01*
X131811933Y-87389418D01*
X131581840Y-87173346D01*
X131326479Y-86987816D01*
X131294333Y-86970143D01*
X131053348Y-86837660D01*
X131053347Y-86837659D01*
X131049879Y-86835753D01*
X131046210Y-86834300D01*
X131046205Y-86834298D01*
X130760072Y-86721010D01*
X130760071Y-86721010D01*
X130756402Y-86719557D01*
X130450675Y-86641060D01*
X130137521Y-86601500D01*
X129821879Y-86601500D01*
X129508725Y-86641060D01*
X129202998Y-86719557D01*
X129199329Y-86721010D01*
X129199328Y-86721010D01*
X128913195Y-86834298D01*
X128913190Y-86834300D01*
X128909521Y-86835753D01*
X128906053Y-86837659D01*
X128906052Y-86837660D01*
X128665068Y-86970143D01*
X128632921Y-86987816D01*
X128377560Y-87173346D01*
X128147467Y-87389418D01*
X127946268Y-87632625D01*
X127777138Y-87899131D01*
X127775454Y-87902710D01*
X127775450Y-87902717D01*
X127644433Y-88181144D01*
X127642744Y-88184734D01*
X127545205Y-88484928D01*
X127486059Y-88794980D01*
X127466240Y-89110000D01*
X116405170Y-89110000D01*
X116393271Y-89093623D01*
X116386753Y-89083701D01*
X116368278Y-89052460D01*
X116368274Y-89052455D01*
X116364242Y-89045637D01*
X116349918Y-89031313D01*
X116337076Y-89016278D01*
X116334107Y-89012191D01*
X116325172Y-88999893D01*
X116291106Y-88971711D01*
X116282327Y-88963722D01*
X109885405Y-82566800D01*
X109851379Y-82504488D01*
X109848500Y-82477705D01*
X109848500Y-81891866D01*
X109841745Y-81829684D01*
X109790615Y-81693295D01*
X109703261Y-81576739D01*
X109586705Y-81489385D01*
X109450316Y-81438255D01*
X109388134Y-81431500D01*
X109278165Y-81431500D01*
X109210044Y-81411498D01*
X109166858Y-81360639D01*
X109166029Y-81361129D01*
X109163172Y-81356298D01*
X109163171Y-81356297D01*
X109155708Y-81343676D01*
X109147011Y-81325923D01*
X109142471Y-81314455D01*
X109142470Y-81314454D01*
X109139552Y-81307083D01*
X109113565Y-81271315D01*
X109107065Y-81261419D01*
X109091384Y-81234903D01*
X120648943Y-81234903D01*
X120686468Y-81519934D01*
X120762329Y-81797236D01*
X120875123Y-82061676D01*
X120886893Y-82081342D01*
X121008783Y-82285005D01*
X121022761Y-82308361D01*
X121202513Y-82532728D01*
X121285877Y-82611837D01*
X121384551Y-82705475D01*
X121411051Y-82730623D01*
X121644517Y-82898386D01*
X121648312Y-82900395D01*
X121648313Y-82900396D01*
X121670069Y-82911915D01*
X121898592Y-83032912D01*
X122168573Y-83131711D01*
X122449464Y-83192955D01*
X122478041Y-83195204D01*
X122672482Y-83210507D01*
X122672491Y-83210507D01*
X122674939Y-83210700D01*
X122830471Y-83210700D01*
X122832607Y-83210554D01*
X122832618Y-83210554D01*
X123040748Y-83196365D01*
X123040754Y-83196364D01*
X123045025Y-83196073D01*
X123049220Y-83195204D01*
X123049222Y-83195204D01*
X123185784Y-83166923D01*
X123326542Y-83137774D01*
X123597543Y-83041807D01*
X123853012Y-82909950D01*
X123856513Y-82907489D01*
X123856517Y-82907487D01*
X124056617Y-82766854D01*
X124088223Y-82744641D01*
X124271214Y-82574595D01*
X124295679Y-82551861D01*
X124295681Y-82551858D01*
X124298822Y-82548940D01*
X124480913Y-82326468D01*
X124631127Y-82081342D01*
X124666864Y-81999932D01*
X124744957Y-81822030D01*
X124746683Y-81818098D01*
X124825444Y-81541606D01*
X124865951Y-81256984D01*
X124866045Y-81239151D01*
X124867435Y-80973783D01*
X124867435Y-80973776D01*
X124867457Y-80969497D01*
X124866352Y-80961098D01*
X124844758Y-80797082D01*
X124829932Y-80684466D01*
X124754071Y-80407164D01*
X124641277Y-80142724D01*
X124522562Y-79944366D01*
X124495843Y-79899721D01*
X124495840Y-79899717D01*
X124493639Y-79896039D01*
X124313887Y-79671672D01*
X124153077Y-79519069D01*
X124108458Y-79476727D01*
X124108455Y-79476725D01*
X124105349Y-79473777D01*
X123871883Y-79306014D01*
X123850043Y-79294450D01*
X123826854Y-79282172D01*
X123617808Y-79171488D01*
X123429721Y-79102658D01*
X123351858Y-79074164D01*
X123351856Y-79074163D01*
X123347827Y-79072689D01*
X123066936Y-79011445D01*
X123035885Y-79009001D01*
X122843918Y-78993893D01*
X122843909Y-78993893D01*
X122841461Y-78993700D01*
X122685929Y-78993700D01*
X122683793Y-78993846D01*
X122683782Y-78993846D01*
X122475652Y-79008035D01*
X122475646Y-79008036D01*
X122471375Y-79008327D01*
X122467180Y-79009196D01*
X122467178Y-79009196D01*
X122330617Y-79037476D01*
X122189858Y-79066626D01*
X121918857Y-79162593D01*
X121663388Y-79294450D01*
X121659887Y-79296911D01*
X121659883Y-79296913D01*
X121649794Y-79304004D01*
X121428177Y-79459759D01*
X121217578Y-79655460D01*
X121035487Y-79877932D01*
X120885273Y-80123058D01*
X120769717Y-80386302D01*
X120768542Y-80390429D01*
X120768541Y-80390430D01*
X120748987Y-80459076D01*
X120690956Y-80662794D01*
X120650449Y-80947416D01*
X120650427Y-80951705D01*
X120650426Y-80951712D01*
X120648965Y-81230617D01*
X120648943Y-81234903D01*
X109091384Y-81234903D01*
X109084556Y-81223356D01*
X109078952Y-81217751D01*
X109070227Y-81209026D01*
X109057390Y-81193998D01*
X109045472Y-81177593D01*
X109011403Y-81149409D01*
X109002635Y-81141429D01*
X108998427Y-81137220D01*
X108547464Y-80686224D01*
X108513441Y-80623911D01*
X108514856Y-80564521D01*
X108562576Y-80386429D01*
X108562576Y-80386427D01*
X108564000Y-80381114D01*
X108583345Y-80160000D01*
X108564000Y-79938886D01*
X108552519Y-79896039D01*
X108507976Y-79729800D01*
X108507975Y-79729798D01*
X108506553Y-79724490D01*
X108483482Y-79675014D01*
X108415075Y-79528315D01*
X108415072Y-79528310D01*
X108412749Y-79523328D01*
X108379966Y-79476509D01*
X108288598Y-79346021D01*
X108288596Y-79346018D01*
X108285439Y-79341510D01*
X108128490Y-79184561D01*
X108123982Y-79181404D01*
X108123979Y-79181402D01*
X108028337Y-79114433D01*
X107946673Y-79057251D01*
X107941691Y-79054928D01*
X107941686Y-79054925D01*
X107750492Y-78965770D01*
X107750491Y-78965769D01*
X107745510Y-78963447D01*
X107740202Y-78962025D01*
X107740200Y-78962024D01*
X107536429Y-78907424D01*
X107536427Y-78907424D01*
X107531114Y-78906000D01*
X107310000Y-78886655D01*
X107088886Y-78906000D01*
X107083573Y-78907424D01*
X107083571Y-78907424D01*
X106879800Y-78962024D01*
X106879798Y-78962025D01*
X106874490Y-78963447D01*
X106869510Y-78965769D01*
X106869508Y-78965770D01*
X106678315Y-79054925D01*
X106678310Y-79054928D01*
X106673328Y-79057251D01*
X106668821Y-79060407D01*
X106668819Y-79060408D01*
X106496021Y-79181402D01*
X106496018Y-79181404D01*
X106491510Y-79184561D01*
X106334561Y-79341510D01*
X106331404Y-79346018D01*
X106331402Y-79346021D01*
X106240034Y-79476509D01*
X106207251Y-79523328D01*
X106204928Y-79528310D01*
X106204925Y-79528315D01*
X106154195Y-79637106D01*
X106107277Y-79690391D01*
X106039000Y-79709852D01*
X105971040Y-79689310D01*
X105925805Y-79637106D01*
X105875075Y-79528315D01*
X105875072Y-79528310D01*
X105872749Y-79523328D01*
X105839966Y-79476509D01*
X105748598Y-79346021D01*
X105748596Y-79346018D01*
X105745439Y-79341510D01*
X105588490Y-79184561D01*
X105583982Y-79181404D01*
X105583979Y-79181402D01*
X105488337Y-79114433D01*
X105406673Y-79057251D01*
X105401691Y-79054928D01*
X105401686Y-79054925D01*
X105210492Y-78965770D01*
X105210491Y-78965769D01*
X105205510Y-78963447D01*
X105200202Y-78962025D01*
X105200200Y-78962024D01*
X104996429Y-78907424D01*
X104996427Y-78907424D01*
X104991114Y-78906000D01*
X104770000Y-78886655D01*
X104548886Y-78906000D01*
X104543573Y-78907424D01*
X104543571Y-78907424D01*
X104339800Y-78962024D01*
X104339798Y-78962025D01*
X104334490Y-78963447D01*
X104329510Y-78965769D01*
X104329508Y-78965770D01*
X104138315Y-79054925D01*
X104138310Y-79054928D01*
X104133328Y-79057251D01*
X104128821Y-79060407D01*
X104128819Y-79060408D01*
X103956021Y-79181402D01*
X103956018Y-79181404D01*
X103951510Y-79184561D01*
X103794561Y-79341510D01*
X103791404Y-79346018D01*
X103791402Y-79346021D01*
X103700034Y-79476509D01*
X103667251Y-79523328D01*
X103664928Y-79528310D01*
X103664925Y-79528315D01*
X103639016Y-79583878D01*
X103614196Y-79637106D01*
X103613920Y-79637697D01*
X103567003Y-79690982D01*
X103498726Y-79710443D01*
X103430766Y-79689901D01*
X103385530Y-79637697D01*
X103334641Y-79528565D01*
X103329158Y-79519069D01*
X103298770Y-79475671D01*
X103288293Y-79467296D01*
X103274845Y-79474365D01*
X102319095Y-80430115D01*
X102256783Y-80464141D01*
X102185968Y-80459076D01*
X102140905Y-80430115D01*
X101184433Y-79473643D01*
X101172658Y-79467213D01*
X101160643Y-79476509D01*
X101130842Y-79519069D01*
X101125359Y-79528565D01*
X101036241Y-79719680D01*
X101032495Y-79729972D01*
X100977917Y-79933660D01*
X100976014Y-79944453D01*
X100957635Y-80154525D01*
X100957635Y-80165475D01*
X100976014Y-80375547D01*
X100977917Y-80386340D01*
X101032495Y-80590028D01*
X101036241Y-80600320D01*
X101125361Y-80791438D01*
X101125742Y-80792098D01*
X101125822Y-80792426D01*
X101127685Y-80796422D01*
X101126882Y-80796796D01*
X101142481Y-80861093D01*
X101119262Y-80928185D01*
X101063456Y-80972073D01*
X101016624Y-80981100D01*
X96979168Y-80981100D01*
X96967985Y-80980573D01*
X96960492Y-80978898D01*
X96952566Y-80979147D01*
X96952565Y-80979147D01*
X96892402Y-80981038D01*
X96888444Y-80981100D01*
X96860544Y-80981100D01*
X96856554Y-80981604D01*
X96844720Y-80982536D01*
X96800511Y-80983926D01*
X96792895Y-80986139D01*
X96792893Y-80986139D01*
X96781052Y-80989579D01*
X96761693Y-80993588D01*
X96760383Y-80993754D01*
X96741603Y-80996126D01*
X96734237Y-80999042D01*
X96734231Y-80999044D01*
X96700498Y-81012400D01*
X96689268Y-81016245D01*
X96654417Y-81026370D01*
X96646807Y-81028581D01*
X96639984Y-81032616D01*
X96629366Y-81038895D01*
X96611613Y-81047592D01*
X96603968Y-81050619D01*
X96592783Y-81055048D01*
X96586368Y-81059709D01*
X96557012Y-81081037D01*
X96547095Y-81087551D01*
X96509038Y-81110058D01*
X96494717Y-81124379D01*
X96479684Y-81137219D01*
X96463293Y-81149128D01*
X96458242Y-81155234D01*
X96435102Y-81183205D01*
X96427112Y-81191984D01*
X95044500Y-82574595D01*
X94982188Y-82608621D01*
X94955405Y-82611500D01*
X94382100Y-82611500D01*
X94378854Y-82611837D01*
X94378850Y-82611837D01*
X94283192Y-82621762D01*
X94283188Y-82621763D01*
X94276334Y-82622474D01*
X94269798Y-82624655D01*
X94269796Y-82624655D01*
X94195432Y-82649465D01*
X94108554Y-82678450D01*
X93958152Y-82771522D01*
X93833195Y-82896697D01*
X93829355Y-82902927D01*
X93829354Y-82902928D01*
X93749231Y-83032912D01*
X93740385Y-83047262D01*
X93738081Y-83054209D01*
X93691950Y-83193291D01*
X93684703Y-83215139D01*
X93674000Y-83319600D01*
X93674000Y-84320400D01*
X93684974Y-84426166D01*
X93740950Y-84593946D01*
X93834022Y-84744348D01*
X93959197Y-84869305D01*
X93965428Y-84873146D01*
X93965431Y-84873148D01*
X94001617Y-84895454D01*
X94049110Y-84948226D01*
X94061500Y-85002713D01*
X94061500Y-89189100D01*
X94041498Y-89257221D01*
X93987842Y-89303714D01*
X93935500Y-89315100D01*
X86371267Y-89315100D01*
X86360084Y-89314573D01*
X86352591Y-89312898D01*
X86344665Y-89313147D01*
X86344664Y-89313147D01*
X86284514Y-89315038D01*
X86280555Y-89315100D01*
X86252644Y-89315100D01*
X86248710Y-89315597D01*
X86248709Y-89315597D01*
X86248644Y-89315605D01*
X86236807Y-89316538D01*
X86204549Y-89317552D01*
X86200530Y-89317678D01*
X86192611Y-89317927D01*
X86173157Y-89323579D01*
X86153800Y-89327587D01*
X86141570Y-89329132D01*
X86141569Y-89329132D01*
X86133703Y-89330126D01*
X86126332Y-89333045D01*
X86126330Y-89333045D01*
X86092588Y-89346404D01*
X86081358Y-89350249D01*
X86046517Y-89360371D01*
X86046516Y-89360371D01*
X86038907Y-89362582D01*
X86032088Y-89366615D01*
X86032083Y-89366617D01*
X86021472Y-89372893D01*
X86003724Y-89381588D01*
X85984883Y-89389048D01*
X85978467Y-89393710D01*
X85978466Y-89393710D01*
X85949113Y-89415036D01*
X85939193Y-89421552D01*
X85907965Y-89440020D01*
X85907962Y-89440022D01*
X85901138Y-89444058D01*
X85886817Y-89458379D01*
X85871784Y-89471219D01*
X85855393Y-89483128D01*
X85835688Y-89506947D01*
X85827202Y-89517205D01*
X85819212Y-89525984D01*
X80695847Y-94649348D01*
X80687561Y-94656888D01*
X80681082Y-94661000D01*
X80675657Y-94666777D01*
X80634457Y-94710651D01*
X80631702Y-94713493D01*
X80611965Y-94733230D01*
X80609485Y-94736427D01*
X80601782Y-94745447D01*
X80571514Y-94777679D01*
X80567695Y-94784625D01*
X80567693Y-94784628D01*
X80561752Y-94795434D01*
X80550901Y-94811953D01*
X80538486Y-94827959D01*
X80535341Y-94835228D01*
X80535338Y-94835232D01*
X80520926Y-94868537D01*
X80515709Y-94879187D01*
X80494405Y-94917940D01*
X80492434Y-94925615D01*
X80492434Y-94925616D01*
X80489367Y-94937562D01*
X80482963Y-94956266D01*
X80474919Y-94974855D01*
X80473680Y-94982678D01*
X80473677Y-94982688D01*
X80468001Y-95018524D01*
X80465595Y-95030144D01*
X80454600Y-95072970D01*
X80454600Y-95093224D01*
X80453049Y-95112934D01*
X80449880Y-95132943D01*
X80450626Y-95140835D01*
X80454041Y-95176961D01*
X80454600Y-95188819D01*
X80454600Y-95480600D01*
X80434598Y-95548721D01*
X80380942Y-95595214D01*
X80328600Y-95606600D01*
X79055063Y-95606600D01*
X79043879Y-95606073D01*
X79036391Y-95604399D01*
X79028468Y-95604648D01*
X78968333Y-95606538D01*
X78964375Y-95606600D01*
X78936444Y-95606600D01*
X78932529Y-95607095D01*
X78932525Y-95607095D01*
X78932467Y-95607103D01*
X78932438Y-95607106D01*
X78920596Y-95608039D01*
X78876410Y-95609427D01*
X78859044Y-95614472D01*
X78856958Y-95615078D01*
X78837606Y-95619086D01*
X78825368Y-95620632D01*
X78825366Y-95620633D01*
X78817503Y-95621626D01*
X78776386Y-95637906D01*
X78765185Y-95641741D01*
X78722706Y-95654082D01*
X78715887Y-95658115D01*
X78715882Y-95658117D01*
X78705271Y-95664393D01*
X78687521Y-95673090D01*
X78668683Y-95680548D01*
X78662267Y-95685209D01*
X78662266Y-95685210D01*
X78632925Y-95706528D01*
X78623001Y-95713047D01*
X78591760Y-95731522D01*
X78591755Y-95731526D01*
X78584937Y-95735558D01*
X78570613Y-95749882D01*
X78555581Y-95762721D01*
X78539193Y-95774628D01*
X78511012Y-95808693D01*
X78503022Y-95817473D01*
X77897347Y-96423148D01*
X77889061Y-96430688D01*
X77882582Y-96434800D01*
X77877157Y-96440577D01*
X77835957Y-96484451D01*
X77833202Y-96487293D01*
X77813465Y-96507030D01*
X77810985Y-96510227D01*
X77803285Y-96519243D01*
X77773014Y-96551479D01*
X77769195Y-96558425D01*
X77769193Y-96558428D01*
X77763252Y-96569234D01*
X77752401Y-96585753D01*
X77739986Y-96601759D01*
X77736841Y-96609028D01*
X77736838Y-96609032D01*
X77722426Y-96642337D01*
X77717209Y-96652987D01*
X77695905Y-96691740D01*
X77693934Y-96699415D01*
X77693934Y-96699416D01*
X77690867Y-96711362D01*
X77684463Y-96730066D01*
X77676419Y-96748655D01*
X77675180Y-96756478D01*
X77675177Y-96756488D01*
X77669501Y-96792324D01*
X77667095Y-96803944D01*
X77656100Y-96846770D01*
X77656100Y-96867024D01*
X77654549Y-96886734D01*
X77651380Y-96906743D01*
X77652126Y-96914635D01*
X77655541Y-96950761D01*
X77656100Y-96962619D01*
X77656100Y-98995533D01*
X77655573Y-99006716D01*
X77653898Y-99014209D01*
X77654147Y-99022135D01*
X77654147Y-99022136D01*
X77656038Y-99082286D01*
X77656100Y-99086245D01*
X77656100Y-99114156D01*
X77656597Y-99118090D01*
X77656597Y-99118091D01*
X77656605Y-99118156D01*
X77657538Y-99129993D01*
X77658927Y-99174189D01*
X77664578Y-99193639D01*
X77668587Y-99213000D01*
X77671126Y-99233097D01*
X77674045Y-99240468D01*
X77674045Y-99240470D01*
X77687404Y-99274212D01*
X77691249Y-99285442D01*
X77703582Y-99327893D01*
X77707615Y-99334712D01*
X77707617Y-99334717D01*
X77713893Y-99345328D01*
X77722588Y-99363076D01*
X77730048Y-99381917D01*
X77734710Y-99388333D01*
X77734710Y-99388334D01*
X77756036Y-99417687D01*
X77762552Y-99427607D01*
X77779168Y-99455702D01*
X77785058Y-99465662D01*
X77799379Y-99479983D01*
X77812219Y-99495016D01*
X77824128Y-99511407D01*
X77843280Y-99527251D01*
X77858205Y-99539598D01*
X77866984Y-99547588D01*
X78111148Y-99791752D01*
X78145174Y-99854064D01*
X78143759Y-99913459D01*
X78128182Y-99971591D01*
X78128180Y-99971602D01*
X78126757Y-99976913D01*
X78106802Y-100205000D01*
X78126757Y-100433087D01*
X78128179Y-100438392D01*
X78128181Y-100438406D01*
X78143759Y-100496539D01*
X78142071Y-100567516D01*
X78111148Y-100618248D01*
X77670937Y-101058458D01*
X77285142Y-101444253D01*
X77276863Y-101451787D01*
X77270382Y-101455900D01*
X77231512Y-101497293D01*
X77223757Y-101505551D01*
X77221002Y-101508393D01*
X77201265Y-101528130D01*
X77198785Y-101531327D01*
X77191082Y-101540347D01*
X77160814Y-101572579D01*
X77156995Y-101579525D01*
X77156993Y-101579528D01*
X77151052Y-101590334D01*
X77140201Y-101606853D01*
X77127786Y-101622859D01*
X77124641Y-101630128D01*
X77124638Y-101630132D01*
X77110226Y-101663437D01*
X77105009Y-101674087D01*
X77083705Y-101712840D01*
X77081734Y-101720515D01*
X77081734Y-101720516D01*
X77078667Y-101732462D01*
X77072263Y-101751166D01*
X77064219Y-101769755D01*
X77062980Y-101777578D01*
X77062977Y-101777588D01*
X77057301Y-101813424D01*
X77054895Y-101825044D01*
X77046568Y-101857477D01*
X77043900Y-101867870D01*
X77043900Y-101888124D01*
X77042349Y-101907834D01*
X77039180Y-101927843D01*
X77039926Y-101935735D01*
X77043341Y-101971861D01*
X77043900Y-101983719D01*
X77043900Y-120421133D01*
X77043373Y-120432316D01*
X77041698Y-120439809D01*
X77041947Y-120447735D01*
X77041947Y-120447736D01*
X77043838Y-120507886D01*
X77043900Y-120511845D01*
X77043900Y-120539756D01*
X77044397Y-120543690D01*
X77044397Y-120543691D01*
X77044405Y-120543756D01*
X77045338Y-120555593D01*
X77046727Y-120599789D01*
X77052378Y-120619239D01*
X77056387Y-120638600D01*
X77058926Y-120658697D01*
X77061845Y-120666068D01*
X77061845Y-120666070D01*
X77075204Y-120699812D01*
X77079049Y-120711042D01*
X77091382Y-120753493D01*
X77095415Y-120760312D01*
X77095417Y-120760317D01*
X77101693Y-120770928D01*
X77110388Y-120788676D01*
X77117848Y-120807517D01*
X77122510Y-120813933D01*
X77122510Y-120813934D01*
X77143836Y-120843287D01*
X77150352Y-120853207D01*
X77168736Y-120884292D01*
X77172858Y-120891262D01*
X77187179Y-120905583D01*
X77200019Y-120920616D01*
X77211928Y-120937007D01*
X77226180Y-120948797D01*
X77246005Y-120965198D01*
X77254784Y-120973188D01*
X77494595Y-121212999D01*
X77528621Y-121275311D01*
X77531500Y-121302094D01*
X77531500Y-121875400D01*
X77542474Y-121981166D01*
X77598450Y-122148946D01*
X77691522Y-122299348D01*
X77696704Y-122304521D01*
X77746513Y-122354243D01*
X77816697Y-122424305D01*
X77967262Y-122517115D01*
X78047005Y-122543564D01*
X78128611Y-122570632D01*
X78128613Y-122570632D01*
X78135139Y-122572797D01*
X78141975Y-122573497D01*
X78141978Y-122573498D01*
X78185031Y-122577909D01*
X78239600Y-122583500D01*
X78351400Y-122583500D01*
X78419521Y-122603502D01*
X78466014Y-122657158D01*
X78477400Y-122709500D01*
X78477400Y-122972779D01*
X78457398Y-123040900D01*
X78403742Y-123087393D01*
X78333468Y-123097497D01*
X78318788Y-123094485D01*
X78254691Y-123077310D01*
X78254685Y-123077309D01*
X78249371Y-123075885D01*
X78030000Y-123056693D01*
X77810629Y-123075885D01*
X77597924Y-123132880D01*
X77548047Y-123156138D01*
X77403334Y-123223618D01*
X77403329Y-123223621D01*
X77398347Y-123225944D01*
X77393840Y-123229100D01*
X77393838Y-123229101D01*
X77222473Y-123349092D01*
X77222470Y-123349094D01*
X77217962Y-123352251D01*
X77062251Y-123507962D01*
X77059094Y-123512470D01*
X77059092Y-123512473D01*
X76950843Y-123667069D01*
X76935944Y-123688347D01*
X76933621Y-123693329D01*
X76933618Y-123693334D01*
X76918868Y-123724966D01*
X76842880Y-123887924D01*
X76785885Y-124100629D01*
X76766693Y-124320000D01*
X76785885Y-124539371D01*
X76842880Y-124752076D01*
X76849742Y-124766791D01*
X76933618Y-124946666D01*
X76933621Y-124946671D01*
X76935944Y-124951653D01*
X76939100Y-124956160D01*
X76939101Y-124956162D01*
X77054297Y-125120678D01*
X77062251Y-125132038D01*
X77217962Y-125287749D01*
X77222471Y-125290906D01*
X77222473Y-125290908D01*
X77297241Y-125343261D01*
X77398346Y-125414056D01*
X77403331Y-125416380D01*
X77403337Y-125416384D01*
X77487877Y-125455805D01*
X77541163Y-125502722D01*
X77560624Y-125570999D01*
X77540082Y-125638959D01*
X77487878Y-125684195D01*
X77403334Y-125723618D01*
X77403329Y-125723621D01*
X77398347Y-125725944D01*
X77393840Y-125729100D01*
X77393838Y-125729101D01*
X77222473Y-125849092D01*
X77222470Y-125849094D01*
X77217962Y-125852251D01*
X77062251Y-126007962D01*
X77059094Y-126012470D01*
X77059092Y-126012473D01*
X76947253Y-126172196D01*
X76935944Y-126188347D01*
X76933621Y-126193329D01*
X76933618Y-126193334D01*
X76926679Y-126208216D01*
X76842880Y-126387924D01*
X76785885Y-126600629D01*
X76766693Y-126820000D01*
X71628500Y-126820000D01*
X71628500Y-89090000D01*
X78326840Y-89090000D01*
X78346659Y-89405020D01*
X78405805Y-89715072D01*
X78503344Y-90015266D01*
X78505031Y-90018852D01*
X78505033Y-90018856D01*
X78636050Y-90297283D01*
X78636054Y-90297290D01*
X78637738Y-90300869D01*
X78639862Y-90304215D01*
X78639862Y-90304216D01*
X78648155Y-90317283D01*
X78806868Y-90567375D01*
X79008067Y-90810582D01*
X79010957Y-90813296D01*
X79010958Y-90813297D01*
X79040131Y-90840692D01*
X79238160Y-91026654D01*
X79493521Y-91212184D01*
X79496990Y-91214091D01*
X79496993Y-91214093D01*
X79766652Y-91362340D01*
X79770121Y-91364247D01*
X79773790Y-91365700D01*
X79773795Y-91365702D01*
X79923565Y-91425000D01*
X80063598Y-91480443D01*
X80369325Y-91558940D01*
X80682479Y-91598500D01*
X80998121Y-91598500D01*
X81311275Y-91558940D01*
X81617002Y-91480443D01*
X81757035Y-91425000D01*
X81906805Y-91365702D01*
X81906810Y-91365700D01*
X81910479Y-91364247D01*
X81913948Y-91362340D01*
X82183607Y-91214093D01*
X82183610Y-91214091D01*
X82187079Y-91212184D01*
X82442440Y-91026654D01*
X82640469Y-90840692D01*
X82669642Y-90813297D01*
X82669643Y-90813296D01*
X82672533Y-90810582D01*
X82873732Y-90567375D01*
X83032445Y-90317283D01*
X83040738Y-90304216D01*
X83040738Y-90304215D01*
X83042862Y-90300869D01*
X83044546Y-90297290D01*
X83044550Y-90297283D01*
X83175567Y-90018856D01*
X83175569Y-90018852D01*
X83177256Y-90015266D01*
X83274795Y-89715072D01*
X83333941Y-89405020D01*
X83353760Y-89090000D01*
X83333941Y-88774980D01*
X83274795Y-88464928D01*
X83177256Y-88164734D01*
X83175567Y-88161144D01*
X83044550Y-87882717D01*
X83044546Y-87882710D01*
X83042862Y-87879131D01*
X83040649Y-87875643D01*
X82961315Y-87750634D01*
X82873732Y-87612625D01*
X82697968Y-87400163D01*
X82675058Y-87372470D01*
X82675057Y-87372469D01*
X82672533Y-87369418D01*
X82442440Y-87153346D01*
X82187079Y-86967816D01*
X81950328Y-86837660D01*
X81913948Y-86817660D01*
X81913947Y-86817659D01*
X81910479Y-86815753D01*
X81906810Y-86814300D01*
X81906805Y-86814298D01*
X81620672Y-86701010D01*
X81620671Y-86701010D01*
X81617002Y-86699557D01*
X81311275Y-86621060D01*
X80998121Y-86581500D01*
X80682479Y-86581500D01*
X80369325Y-86621060D01*
X80063598Y-86699557D01*
X80059929Y-86701010D01*
X80059928Y-86701010D01*
X79773795Y-86814298D01*
X79773790Y-86814300D01*
X79770121Y-86815753D01*
X79766653Y-86817659D01*
X79766652Y-86817660D01*
X79730273Y-86837660D01*
X79493521Y-86967816D01*
X79238160Y-87153346D01*
X79008067Y-87369418D01*
X79005543Y-87372469D01*
X79005542Y-87372470D01*
X78982632Y-87400163D01*
X78806868Y-87612625D01*
X78719285Y-87750634D01*
X78639952Y-87875643D01*
X78637738Y-87879131D01*
X78636054Y-87882710D01*
X78636050Y-87882717D01*
X78505033Y-88161144D01*
X78503344Y-88164734D01*
X78405805Y-88464928D01*
X78346659Y-88774980D01*
X78326840Y-89090000D01*
X71628500Y-89090000D01*
X71628500Y-85449247D01*
X71648502Y-85381126D01*
X71689674Y-85341203D01*
X78533507Y-81234903D01*
X86460543Y-81234903D01*
X86498068Y-81519934D01*
X86573929Y-81797236D01*
X86686723Y-82061676D01*
X86698493Y-82081342D01*
X86820383Y-82285005D01*
X86834361Y-82308361D01*
X87014113Y-82532728D01*
X87097477Y-82611837D01*
X87196151Y-82705475D01*
X87222651Y-82730623D01*
X87456117Y-82898386D01*
X87459912Y-82900395D01*
X87459913Y-82900396D01*
X87481669Y-82911915D01*
X87710192Y-83032912D01*
X87980173Y-83131711D01*
X88261064Y-83192955D01*
X88289641Y-83195204D01*
X88484082Y-83210507D01*
X88484091Y-83210507D01*
X88486539Y-83210700D01*
X88642071Y-83210700D01*
X88644207Y-83210554D01*
X88644218Y-83210554D01*
X88852348Y-83196365D01*
X88852354Y-83196364D01*
X88856625Y-83196073D01*
X88860820Y-83195204D01*
X88860822Y-83195204D01*
X88997384Y-83166923D01*
X89138142Y-83137774D01*
X89409143Y-83041807D01*
X89664612Y-82909950D01*
X89668113Y-82907489D01*
X89668117Y-82907487D01*
X89868217Y-82766854D01*
X89899823Y-82744641D01*
X90082814Y-82574595D01*
X90107279Y-82551861D01*
X90107281Y-82551858D01*
X90110422Y-82548940D01*
X90292513Y-82326468D01*
X90442727Y-82081342D01*
X90478464Y-81999932D01*
X90556557Y-81822030D01*
X90558283Y-81818098D01*
X90637044Y-81541606D01*
X90677551Y-81256984D01*
X90677645Y-81239151D01*
X90679035Y-80973783D01*
X90679035Y-80973776D01*
X90679057Y-80969497D01*
X90677952Y-80961098D01*
X90656358Y-80797082D01*
X90641532Y-80684466D01*
X90565671Y-80407164D01*
X90452877Y-80142724D01*
X90334162Y-79944366D01*
X90307443Y-79899721D01*
X90307440Y-79899717D01*
X90305239Y-79896039D01*
X90125487Y-79671672D01*
X89964677Y-79519069D01*
X89920058Y-79476727D01*
X89920055Y-79476725D01*
X89916949Y-79473777D01*
X89683483Y-79306014D01*
X89661643Y-79294450D01*
X89638454Y-79282172D01*
X89429408Y-79171488D01*
X89241321Y-79102658D01*
X89238722Y-79101707D01*
X101537296Y-79101707D01*
X101544365Y-79115155D01*
X102217188Y-79787978D01*
X102231132Y-79795592D01*
X102232965Y-79795461D01*
X102239580Y-79791210D01*
X102916357Y-79114433D01*
X102922787Y-79102658D01*
X102913491Y-79090643D01*
X102870931Y-79060842D01*
X102861435Y-79055359D01*
X102670320Y-78966241D01*
X102660028Y-78962495D01*
X102456340Y-78907917D01*
X102445547Y-78906014D01*
X102235475Y-78887635D01*
X102224525Y-78887635D01*
X102014453Y-78906014D01*
X102003660Y-78907917D01*
X101799972Y-78962495D01*
X101789680Y-78966241D01*
X101598565Y-79055359D01*
X101589069Y-79060842D01*
X101545671Y-79091230D01*
X101537296Y-79101707D01*
X89238722Y-79101707D01*
X89163458Y-79074164D01*
X89163456Y-79074163D01*
X89159427Y-79072689D01*
X88878536Y-79011445D01*
X88847485Y-79009001D01*
X88655518Y-78993893D01*
X88655509Y-78993893D01*
X88653061Y-78993700D01*
X88497529Y-78993700D01*
X88495393Y-78993846D01*
X88495382Y-78993846D01*
X88287252Y-79008035D01*
X88287246Y-79008036D01*
X88282975Y-79008327D01*
X88278780Y-79009196D01*
X88278778Y-79009196D01*
X88142217Y-79037476D01*
X88001458Y-79066626D01*
X87730457Y-79162593D01*
X87474988Y-79294450D01*
X87471487Y-79296911D01*
X87471483Y-79296913D01*
X87461394Y-79304004D01*
X87239777Y-79459759D01*
X87029178Y-79655460D01*
X86847087Y-79877932D01*
X86696873Y-80123058D01*
X86581317Y-80386302D01*
X86580142Y-80390429D01*
X86580141Y-80390430D01*
X86560587Y-80459076D01*
X86502556Y-80662794D01*
X86462049Y-80947416D01*
X86462027Y-80951705D01*
X86462026Y-80951712D01*
X86460565Y-81230617D01*
X86460543Y-81234903D01*
X78533507Y-81234903D01*
X84137389Y-77872574D01*
X95213064Y-77872574D01*
X95213751Y-77879581D01*
X95213751Y-77879584D01*
X95216550Y-77908129D01*
X95229494Y-78040144D01*
X95282641Y-78199910D01*
X95286288Y-78205932D01*
X95286289Y-78205934D01*
X95313634Y-78251085D01*
X95369863Y-78343931D01*
X95374752Y-78348994D01*
X95374753Y-78348995D01*
X95446064Y-78422839D01*
X95486825Y-78465048D01*
X95492722Y-78468907D01*
X95621816Y-78553385D01*
X95621820Y-78553387D01*
X95627714Y-78557244D01*
X95785528Y-78615934D01*
X95792509Y-78616865D01*
X95792511Y-78616866D01*
X95838051Y-78622942D01*
X95952422Y-78638202D01*
X95959433Y-78637564D01*
X95959437Y-78637564D01*
X96113082Y-78623581D01*
X96120103Y-78622942D01*
X96126805Y-78620764D01*
X96126807Y-78620764D01*
X96273537Y-78573089D01*
X96273540Y-78573088D01*
X96280236Y-78570912D01*
X96424862Y-78484697D01*
X96429956Y-78479846D01*
X96429960Y-78479843D01*
X96541693Y-78373441D01*
X96541694Y-78373439D01*
X96546793Y-78368584D01*
X96555959Y-78354789D01*
X96593898Y-78297686D01*
X96639970Y-78228342D01*
X96699760Y-78070942D01*
X96720270Y-77925010D01*
X96722643Y-77908129D01*
X96722643Y-77908125D01*
X96723194Y-77904207D01*
X96723400Y-77889455D01*
X114144825Y-77889455D01*
X114145512Y-77896462D01*
X114145512Y-77896465D01*
X114148311Y-77925010D01*
X114161255Y-78057025D01*
X114214402Y-78216791D01*
X114218049Y-78222813D01*
X114218050Y-78222815D01*
X114291401Y-78343931D01*
X114301624Y-78360812D01*
X114306513Y-78365875D01*
X114306514Y-78365876D01*
X114377825Y-78439720D01*
X114418586Y-78481929D01*
X114424483Y-78485788D01*
X114553577Y-78570266D01*
X114553581Y-78570268D01*
X114559475Y-78574125D01*
X114717289Y-78632815D01*
X114724270Y-78633746D01*
X114724272Y-78633747D01*
X114757663Y-78638202D01*
X114884183Y-78655083D01*
X114891194Y-78654445D01*
X114891198Y-78654445D01*
X115044843Y-78640462D01*
X115051864Y-78639823D01*
X115058566Y-78637645D01*
X115058568Y-78637645D01*
X115205298Y-78589970D01*
X115205301Y-78589969D01*
X115211997Y-78587793D01*
X115356623Y-78501578D01*
X115361717Y-78496727D01*
X115361721Y-78496724D01*
X115473454Y-78390322D01*
X115473455Y-78390320D01*
X115478554Y-78385465D01*
X115493667Y-78362719D01*
X115567836Y-78251085D01*
X115571731Y-78245223D01*
X115578144Y-78228342D01*
X115629019Y-78094409D01*
X115631521Y-78087823D01*
X115654955Y-77921088D01*
X115655249Y-77900000D01*
X115636481Y-77732676D01*
X115581108Y-77573668D01*
X115491884Y-77430879D01*
X115481053Y-77419972D01*
X115378205Y-77316403D01*
X115378201Y-77316400D01*
X115373242Y-77311406D01*
X115344088Y-77292904D01*
X115317953Y-77276319D01*
X115231079Y-77221187D01*
X115072462Y-77164706D01*
X115065474Y-77163873D01*
X115065471Y-77163872D01*
X114972300Y-77152762D01*
X114905273Y-77144769D01*
X114898270Y-77145505D01*
X114898269Y-77145505D01*
X114853715Y-77150188D01*
X114737821Y-77162369D01*
X114731155Y-77164638D01*
X114731152Y-77164639D01*
X114585098Y-77214360D01*
X114585095Y-77214361D01*
X114578431Y-77216630D01*
X114572436Y-77220318D01*
X114572432Y-77220320D01*
X114441021Y-77301165D01*
X114441019Y-77301167D01*
X114435022Y-77304856D01*
X114423231Y-77316403D01*
X114336995Y-77400852D01*
X114314724Y-77422661D01*
X114223515Y-77564190D01*
X114165927Y-77722409D01*
X114144825Y-77889455D01*
X96723400Y-77889455D01*
X96723488Y-77883119D01*
X96707398Y-77739672D01*
X96705505Y-77722791D01*
X96705504Y-77722788D01*
X96704720Y-77715795D01*
X96649347Y-77556787D01*
X96560123Y-77413998D01*
X96551962Y-77405780D01*
X96446444Y-77299522D01*
X96446440Y-77299519D01*
X96441481Y-77294525D01*
X96299318Y-77204306D01*
X96140701Y-77147825D01*
X96133713Y-77146992D01*
X96133710Y-77146991D01*
X96040539Y-77135881D01*
X95973512Y-77127888D01*
X95966509Y-77128624D01*
X95966508Y-77128624D01*
X95920951Y-77133412D01*
X95806060Y-77145488D01*
X95799394Y-77147757D01*
X95799391Y-77147758D01*
X95653337Y-77197479D01*
X95653334Y-77197480D01*
X95646670Y-77199749D01*
X95640675Y-77203437D01*
X95640671Y-77203439D01*
X95509260Y-77284284D01*
X95509258Y-77284286D01*
X95503261Y-77287975D01*
X95382963Y-77405780D01*
X95291754Y-77547309D01*
X95289344Y-77553929D01*
X95289343Y-77553932D01*
X95283199Y-77570813D01*
X95234166Y-77705528D01*
X95213064Y-77872574D01*
X84137389Y-77872574D01*
X90684551Y-73944277D01*
X98195735Y-73944277D01*
X98233705Y-74232687D01*
X98310465Y-74513276D01*
X98424596Y-74780852D01*
X98573985Y-75030462D01*
X98576669Y-75033813D01*
X98576671Y-75033815D01*
X98591322Y-75052102D01*
X98755867Y-75257489D01*
X98966878Y-75457731D01*
X99203113Y-75627483D01*
X99460200Y-75763603D01*
X99464223Y-75765075D01*
X99464227Y-75765077D01*
X99488709Y-75774036D01*
X99733382Y-75863574D01*
X100017604Y-75925544D01*
X100046650Y-75927830D01*
X100243297Y-75943307D01*
X100243304Y-75943307D01*
X100245753Y-75943500D01*
X100403121Y-75943500D01*
X100405257Y-75943354D01*
X100405268Y-75943354D01*
X100615949Y-75928991D01*
X100615955Y-75928990D01*
X100620226Y-75928699D01*
X100624421Y-75927830D01*
X100624423Y-75927830D01*
X100762654Y-75899204D01*
X100905081Y-75869709D01*
X101179295Y-75772605D01*
X101437793Y-75639184D01*
X101441294Y-75636723D01*
X101441298Y-75636721D01*
X101556792Y-75555550D01*
X101675792Y-75471915D01*
X101888888Y-75273894D01*
X101899895Y-75260447D01*
X102070423Y-75052102D01*
X102073139Y-75048784D01*
X102225133Y-74800752D01*
X102233869Y-74780852D01*
X102340334Y-74538315D01*
X102342059Y-74534386D01*
X102348073Y-74513276D01*
X102367782Y-74444087D01*
X102421754Y-74254616D01*
X102424286Y-74236829D01*
X102462137Y-73970870D01*
X102462742Y-73966619D01*
X102462859Y-73944277D01*
X108355735Y-73944277D01*
X108393705Y-74232687D01*
X108470465Y-74513276D01*
X108584596Y-74780852D01*
X108733985Y-75030462D01*
X108736669Y-75033813D01*
X108736671Y-75033815D01*
X108751322Y-75052102D01*
X108915867Y-75257489D01*
X109126878Y-75457731D01*
X109363113Y-75627483D01*
X109620200Y-75763603D01*
X109624223Y-75765075D01*
X109624227Y-75765077D01*
X109648709Y-75774036D01*
X109893382Y-75863574D01*
X110177604Y-75925544D01*
X110206650Y-75927830D01*
X110403297Y-75943307D01*
X110403304Y-75943307D01*
X110405753Y-75943500D01*
X110563121Y-75943500D01*
X110565257Y-75943354D01*
X110565268Y-75943354D01*
X110775949Y-75928991D01*
X110775955Y-75928990D01*
X110780226Y-75928699D01*
X110784421Y-75927830D01*
X110784423Y-75927830D01*
X110922654Y-75899204D01*
X111065081Y-75869709D01*
X111339295Y-75772605D01*
X111597793Y-75639184D01*
X111601294Y-75636723D01*
X111601298Y-75636721D01*
X111716792Y-75555550D01*
X111835792Y-75471915D01*
X112048888Y-75273894D01*
X112059895Y-75260447D01*
X112230423Y-75052102D01*
X112233139Y-75048784D01*
X112385133Y-74800752D01*
X112393869Y-74780852D01*
X112500334Y-74538315D01*
X112502059Y-74534386D01*
X112508073Y-74513276D01*
X112527782Y-74444087D01*
X112581754Y-74254616D01*
X112584286Y-74236829D01*
X112622137Y-73970870D01*
X112622742Y-73966619D01*
X112624265Y-73675723D01*
X112586295Y-73387313D01*
X112509535Y-73106724D01*
X112395404Y-72839148D01*
X112246015Y-72589538D01*
X112231337Y-72571216D01*
X112066823Y-72365869D01*
X112064133Y-72362511D01*
X111853122Y-72162269D01*
X111616887Y-71992517D01*
X111359800Y-71856397D01*
X111355777Y-71854925D01*
X111355773Y-71854923D01*
X111090649Y-71757901D01*
X111090647Y-71757900D01*
X111086618Y-71756426D01*
X110802396Y-71694456D01*
X110758598Y-71691009D01*
X110576703Y-71676693D01*
X110576696Y-71676693D01*
X110574247Y-71676500D01*
X110416879Y-71676500D01*
X110414743Y-71676646D01*
X110414732Y-71676646D01*
X110204051Y-71691009D01*
X110204045Y-71691010D01*
X110199774Y-71691301D01*
X110195579Y-71692170D01*
X110195577Y-71692170D01*
X110180130Y-71695369D01*
X109914919Y-71750291D01*
X109640705Y-71847395D01*
X109382207Y-71980816D01*
X109378706Y-71983277D01*
X109378702Y-71983279D01*
X109365558Y-71992517D01*
X109144208Y-72148085D01*
X108931112Y-72346106D01*
X108928398Y-72349422D01*
X108928395Y-72349425D01*
X108914936Y-72365869D01*
X108746861Y-72571216D01*
X108594867Y-72819248D01*
X108593148Y-72823165D01*
X108593146Y-72823168D01*
X108584397Y-72843100D01*
X108477941Y-73085614D01*
X108476765Y-73089742D01*
X108476764Y-73089745D01*
X108452218Y-73175913D01*
X108398246Y-73365384D01*
X108397642Y-73369626D01*
X108397641Y-73369632D01*
X108395125Y-73387313D01*
X108357258Y-73653381D01*
X108355735Y-73944277D01*
X102462859Y-73944277D01*
X102464265Y-73675723D01*
X102426295Y-73387313D01*
X102349535Y-73106724D01*
X102235404Y-72839148D01*
X102086015Y-72589538D01*
X102071337Y-72571216D01*
X101906823Y-72365869D01*
X101904133Y-72362511D01*
X101693122Y-72162269D01*
X101456887Y-71992517D01*
X101199800Y-71856397D01*
X101195777Y-71854925D01*
X101195773Y-71854923D01*
X100930649Y-71757901D01*
X100930647Y-71757900D01*
X100926618Y-71756426D01*
X100642396Y-71694456D01*
X100598598Y-71691009D01*
X100416703Y-71676693D01*
X100416696Y-71676693D01*
X100414247Y-71676500D01*
X100256879Y-71676500D01*
X100254743Y-71676646D01*
X100254732Y-71676646D01*
X100044051Y-71691009D01*
X100044045Y-71691010D01*
X100039774Y-71691301D01*
X100035579Y-71692170D01*
X100035577Y-71692170D01*
X100020130Y-71695369D01*
X99754919Y-71750291D01*
X99480705Y-71847395D01*
X99222207Y-71980816D01*
X99218706Y-71983277D01*
X99218702Y-71983279D01*
X99205558Y-71992517D01*
X98984208Y-72148085D01*
X98771112Y-72346106D01*
X98768398Y-72349422D01*
X98768395Y-72349425D01*
X98754936Y-72365869D01*
X98586861Y-72571216D01*
X98434867Y-72819248D01*
X98433148Y-72823165D01*
X98433146Y-72823168D01*
X98424397Y-72843100D01*
X98317941Y-73085614D01*
X98316765Y-73089742D01*
X98316764Y-73089745D01*
X98292218Y-73175913D01*
X98238246Y-73365384D01*
X98237642Y-73369626D01*
X98237641Y-73369632D01*
X98235125Y-73387313D01*
X98197258Y-73653381D01*
X98195735Y-73944277D01*
X90684551Y-73944277D01*
X92519846Y-72843100D01*
X96630920Y-70376456D01*
X96695745Y-70358500D01*
X114124254Y-70358500D01*
X114189079Y-70376456D01*
G37*
%TD.AperFunction*%
%TA.AperFunction,Conductor*%
G36*
X102212270Y-82268102D02*
G01*
X102258763Y-82321758D01*
X102268867Y-82392032D01*
X102265855Y-82406712D01*
X102247918Y-82473652D01*
X102246014Y-82484453D01*
X102227635Y-82694525D01*
X102227635Y-82705475D01*
X102246014Y-82915547D01*
X102247917Y-82926340D01*
X102302495Y-83130028D01*
X102306241Y-83140320D01*
X102395359Y-83331435D01*
X102400842Y-83340931D01*
X102431230Y-83384329D01*
X102441707Y-83392704D01*
X102455155Y-83385635D01*
X103410905Y-82429885D01*
X103473217Y-82395859D01*
X103544032Y-82400924D01*
X103589095Y-82429885D01*
X104545567Y-83386357D01*
X104557342Y-83392787D01*
X104569357Y-83383491D01*
X104599158Y-83340931D01*
X104604641Y-83331435D01*
X104655530Y-83222303D01*
X104702448Y-83169018D01*
X104770725Y-83149557D01*
X104838685Y-83170099D01*
X104883920Y-83222303D01*
X104934925Y-83331685D01*
X104934928Y-83331690D01*
X104937251Y-83336672D01*
X104940407Y-83341179D01*
X104940408Y-83341181D01*
X105057310Y-83508134D01*
X105064561Y-83518490D01*
X105221510Y-83675439D01*
X105226018Y-83678596D01*
X105226021Y-83678598D01*
X105266162Y-83706705D01*
X105339838Y-83758293D01*
X105352771Y-83767349D01*
X105397099Y-83822806D01*
X105406500Y-83870562D01*
X105406500Y-107559733D01*
X105405973Y-107570916D01*
X105404298Y-107578409D01*
X105404547Y-107586335D01*
X105404547Y-107586336D01*
X105406438Y-107646486D01*
X105406500Y-107650445D01*
X105406500Y-107678356D01*
X105406997Y-107682290D01*
X105406997Y-107682291D01*
X105407005Y-107682356D01*
X105407938Y-107694193D01*
X105409327Y-107738389D01*
X105414978Y-107757839D01*
X105418987Y-107777200D01*
X105421526Y-107797297D01*
X105424445Y-107804668D01*
X105424445Y-107804670D01*
X105437804Y-107838412D01*
X105441649Y-107849642D01*
X105449200Y-107875632D01*
X105453982Y-107892093D01*
X105458015Y-107898912D01*
X105458017Y-107898917D01*
X105464293Y-107909528D01*
X105472988Y-107927276D01*
X105480448Y-107946117D01*
X105485110Y-107952533D01*
X105485110Y-107952534D01*
X105506436Y-107981887D01*
X105512952Y-107991808D01*
X105532677Y-108025161D01*
X105550137Y-108093977D01*
X105527620Y-108161308D01*
X105472276Y-108205777D01*
X105424224Y-108215300D01*
X105374713Y-108215300D01*
X105368261Y-108216672D01*
X105368256Y-108216672D01*
X105292627Y-108232748D01*
X105187912Y-108255006D01*
X105181882Y-108257691D01*
X105181881Y-108257691D01*
X105019478Y-108329997D01*
X105019476Y-108329998D01*
X105013448Y-108332682D01*
X105008107Y-108336562D01*
X105008106Y-108336563D01*
X104995449Y-108345759D01*
X104858947Y-108444934D01*
X104731160Y-108586856D01*
X104635673Y-108752244D01*
X104576658Y-108933872D01*
X104575968Y-108940433D01*
X104575968Y-108940435D01*
X104560430Y-109088269D01*
X104556696Y-109123800D01*
X104576658Y-109313728D01*
X104635673Y-109495356D01*
X104731160Y-109660744D01*
X104804337Y-109742015D01*
X104835053Y-109806021D01*
X104836700Y-109826324D01*
X104836700Y-112986433D01*
X104836173Y-112997616D01*
X104834498Y-113005109D01*
X104834747Y-113013035D01*
X104834747Y-113013036D01*
X104836638Y-113073186D01*
X104836700Y-113077145D01*
X104836700Y-113105056D01*
X104837197Y-113108990D01*
X104837197Y-113108991D01*
X104837205Y-113109056D01*
X104838138Y-113120893D01*
X104839527Y-113165089D01*
X104845178Y-113184539D01*
X104849187Y-113203900D01*
X104851726Y-113223997D01*
X104854645Y-113231368D01*
X104854645Y-113231370D01*
X104868004Y-113265112D01*
X104871849Y-113276342D01*
X104881007Y-113307866D01*
X104884182Y-113318793D01*
X104888215Y-113325612D01*
X104888217Y-113325617D01*
X104894493Y-113336228D01*
X104903188Y-113353976D01*
X104910648Y-113372817D01*
X104915310Y-113379233D01*
X104915310Y-113379234D01*
X104936636Y-113408587D01*
X104943152Y-113418507D01*
X104959915Y-113446851D01*
X104965658Y-113456562D01*
X104979979Y-113470883D01*
X104992819Y-113485916D01*
X105004728Y-113502307D01*
X105010834Y-113507358D01*
X105038805Y-113530498D01*
X105047584Y-113538488D01*
X107920848Y-116411752D01*
X107954874Y-116474064D01*
X107953459Y-116533459D01*
X107937882Y-116591591D01*
X107937881Y-116591598D01*
X107936457Y-116596913D01*
X107916502Y-116825000D01*
X107936457Y-117053087D01*
X107937881Y-117058400D01*
X107937881Y-117058402D01*
X107951068Y-117107614D01*
X107995716Y-117274243D01*
X107998039Y-117279225D01*
X107998041Y-117279230D01*
X107999448Y-117282247D01*
X107999669Y-117283704D01*
X107999922Y-117284398D01*
X107999782Y-117284449D01*
X108010111Y-117352438D01*
X107981133Y-117417252D01*
X107921715Y-117456110D01*
X107885255Y-117461500D01*
X106624068Y-117461500D01*
X106612885Y-117460973D01*
X106605392Y-117459298D01*
X106597466Y-117459547D01*
X106597465Y-117459547D01*
X106537302Y-117461438D01*
X106533344Y-117461500D01*
X106505444Y-117461500D01*
X106501454Y-117462004D01*
X106489620Y-117462936D01*
X106445411Y-117464326D01*
X106437795Y-117466539D01*
X106437793Y-117466539D01*
X106425952Y-117469979D01*
X106406593Y-117473988D01*
X106405283Y-117474154D01*
X106386503Y-117476526D01*
X106379137Y-117479442D01*
X106379131Y-117479444D01*
X106345398Y-117492800D01*
X106334168Y-117496645D01*
X106299317Y-117506770D01*
X106291707Y-117508981D01*
X106284884Y-117513016D01*
X106274266Y-117519295D01*
X106256513Y-117527992D01*
X106248868Y-117531019D01*
X106237683Y-117535448D01*
X106231268Y-117540109D01*
X106201912Y-117561437D01*
X106191995Y-117567951D01*
X106153938Y-117590458D01*
X106139617Y-117604779D01*
X106124584Y-117617619D01*
X106108193Y-117629528D01*
X106103142Y-117635634D01*
X106080002Y-117663605D01*
X106072012Y-117672384D01*
X102739040Y-121005355D01*
X102676730Y-121039380D01*
X102605915Y-121034315D01*
X102560852Y-121005354D01*
X102454300Y-120898802D01*
X102449792Y-120895645D01*
X102449789Y-120895643D01*
X102276444Y-120774265D01*
X102232116Y-120718808D01*
X102224945Y-120647449D01*
X102225680Y-120643597D01*
X102227812Y-120632424D01*
X102229532Y-120624729D01*
X102230942Y-120619239D01*
X102243500Y-120570330D01*
X102243500Y-120567773D01*
X102270928Y-120504887D01*
X102295280Y-120482545D01*
X102304615Y-120476009D01*
X102382986Y-120421133D01*
X102449789Y-120374357D01*
X102449792Y-120374355D01*
X102454300Y-120371198D01*
X102616198Y-120209300D01*
X102747523Y-120021749D01*
X102749846Y-120016767D01*
X102749849Y-120016762D01*
X102841961Y-119819225D01*
X102841961Y-119819224D01*
X102844284Y-119814243D01*
X102846732Y-119805109D01*
X102902119Y-119598402D01*
X102902119Y-119598400D01*
X102903543Y-119593087D01*
X102923498Y-119365000D01*
X102903543Y-119136913D01*
X102874465Y-119028392D01*
X102845707Y-118921067D01*
X102845706Y-118921065D01*
X102844284Y-118915757D01*
X102841959Y-118910770D01*
X102749849Y-118713238D01*
X102749846Y-118713233D01*
X102747523Y-118708251D01*
X102657455Y-118579621D01*
X102619357Y-118525211D01*
X102619355Y-118525208D01*
X102616198Y-118520700D01*
X102454300Y-118358802D01*
X102449792Y-118355645D01*
X102449789Y-118355643D01*
X102328335Y-118270600D01*
X102266749Y-118227477D01*
X102261767Y-118225154D01*
X102261762Y-118225151D01*
X102227543Y-118209195D01*
X102174258Y-118162278D01*
X102154797Y-118094001D01*
X102175339Y-118026041D01*
X102227543Y-117980805D01*
X102261762Y-117964849D01*
X102261767Y-117964846D01*
X102266749Y-117962523D01*
X102390942Y-117875562D01*
X102449789Y-117834357D01*
X102449792Y-117834355D01*
X102454300Y-117831198D01*
X102616198Y-117669300D01*
X102747523Y-117481749D01*
X102749846Y-117476767D01*
X102749849Y-117476762D01*
X102841961Y-117279225D01*
X102841961Y-117279224D01*
X102844284Y-117274243D01*
X102888933Y-117107614D01*
X102902119Y-117058402D01*
X102902119Y-117058400D01*
X102903543Y-117053087D01*
X102923498Y-116825000D01*
X102903543Y-116596913D01*
X102893104Y-116557955D01*
X102845707Y-116381067D01*
X102845706Y-116381065D01*
X102844284Y-116375757D01*
X102826638Y-116337914D01*
X102749849Y-116173238D01*
X102749846Y-116173233D01*
X102747523Y-116168251D01*
X102650006Y-116028982D01*
X102619357Y-115985211D01*
X102619355Y-115985208D01*
X102616198Y-115980700D01*
X102454300Y-115818802D01*
X102449792Y-115815645D01*
X102449789Y-115815643D01*
X102276444Y-115694265D01*
X102232116Y-115638808D01*
X102224945Y-115567449D01*
X102227812Y-115552424D01*
X102229532Y-115544729D01*
X102243500Y-115490330D01*
X102243500Y-115487773D01*
X102270928Y-115424887D01*
X102295280Y-115402545D01*
X102304485Y-115396100D01*
X102417047Y-115317283D01*
X102449789Y-115294357D01*
X102449792Y-115294355D01*
X102454300Y-115291198D01*
X102616198Y-115129300D01*
X102625270Y-115116345D01*
X102679528Y-115038856D01*
X102747523Y-114941749D01*
X102749846Y-114936767D01*
X102749849Y-114936762D01*
X102841961Y-114739225D01*
X102841961Y-114739224D01*
X102844284Y-114734243D01*
X102862733Y-114665393D01*
X102902119Y-114518402D01*
X102902119Y-114518400D01*
X102903543Y-114513087D01*
X102923498Y-114285000D01*
X102903543Y-114056913D01*
X102902119Y-114051598D01*
X102845707Y-113841067D01*
X102845706Y-113841065D01*
X102844284Y-113835757D01*
X102841961Y-113830775D01*
X102749849Y-113633238D01*
X102749846Y-113633233D01*
X102747523Y-113628251D01*
X102654845Y-113495894D01*
X102619357Y-113445211D01*
X102619355Y-113445208D01*
X102616198Y-113440700D01*
X102454300Y-113278802D01*
X102449792Y-113275645D01*
X102449789Y-113275643D01*
X102357209Y-113210818D01*
X102266749Y-113147477D01*
X102261767Y-113145154D01*
X102261762Y-113145151D01*
X102227543Y-113129195D01*
X102174258Y-113082278D01*
X102154797Y-113014001D01*
X102175339Y-112946041D01*
X102227543Y-112900805D01*
X102261762Y-112884849D01*
X102261767Y-112884846D01*
X102266749Y-112882523D01*
X102416897Y-112777388D01*
X102449789Y-112754357D01*
X102449792Y-112754355D01*
X102454300Y-112751198D01*
X102616198Y-112589300D01*
X102654958Y-112533946D01*
X102744366Y-112406257D01*
X102747523Y-112401749D01*
X102749846Y-112396767D01*
X102749849Y-112396762D01*
X102841961Y-112199225D01*
X102841961Y-112199224D01*
X102844284Y-112194243D01*
X102848652Y-112177944D01*
X102902119Y-111978402D01*
X102902119Y-111978400D01*
X102903543Y-111973087D01*
X102923498Y-111745000D01*
X102903543Y-111516913D01*
X102889037Y-111462776D01*
X102845707Y-111301067D01*
X102845706Y-111301065D01*
X102844284Y-111295757D01*
X102825933Y-111256402D01*
X102749849Y-111093238D01*
X102749846Y-111093233D01*
X102747523Y-111088251D01*
X102636703Y-110929984D01*
X102619357Y-110905211D01*
X102619355Y-110905208D01*
X102616198Y-110900700D01*
X102454300Y-110738802D01*
X102449792Y-110735645D01*
X102449789Y-110735643D01*
X102304739Y-110634078D01*
X102266749Y-110607477D01*
X102261767Y-110605154D01*
X102261762Y-110605151D01*
X102227543Y-110589195D01*
X102174258Y-110542278D01*
X102154797Y-110474001D01*
X102175339Y-110406041D01*
X102227543Y-110360805D01*
X102261762Y-110344849D01*
X102261767Y-110344846D01*
X102266749Y-110342523D01*
X102371611Y-110269098D01*
X102449789Y-110214357D01*
X102449792Y-110214355D01*
X102454300Y-110211198D01*
X102616198Y-110049300D01*
X102747523Y-109861749D01*
X102749846Y-109856767D01*
X102749849Y-109856762D01*
X102841961Y-109659225D01*
X102841961Y-109659224D01*
X102844284Y-109654243D01*
X102885325Y-109501079D01*
X102902119Y-109438402D01*
X102902119Y-109438400D01*
X102903543Y-109433087D01*
X102923498Y-109205000D01*
X102903543Y-108976913D01*
X102844284Y-108755757D01*
X102826016Y-108716580D01*
X102749849Y-108553238D01*
X102749846Y-108553233D01*
X102747523Y-108548251D01*
X102616198Y-108360700D01*
X102454300Y-108198802D01*
X102449792Y-108195645D01*
X102449789Y-108195643D01*
X102347676Y-108124143D01*
X102266749Y-108067477D01*
X102261767Y-108065154D01*
X102261762Y-108065151D01*
X102226951Y-108048919D01*
X102173666Y-108002002D01*
X102154205Y-107933725D01*
X102174747Y-107865765D01*
X102226951Y-107820529D01*
X102261511Y-107804414D01*
X102271007Y-107798931D01*
X102449467Y-107673972D01*
X102457875Y-107666916D01*
X102611916Y-107512875D01*
X102618972Y-107504467D01*
X102743931Y-107326007D01*
X102749414Y-107316511D01*
X102841490Y-107119053D01*
X102845236Y-107108761D01*
X102891394Y-106936497D01*
X102891058Y-106922401D01*
X102883116Y-106919000D01*
X100342033Y-106919000D01*
X100328502Y-106922973D01*
X100327273Y-106931522D01*
X100374764Y-107108761D01*
X100378510Y-107119053D01*
X100470586Y-107316511D01*
X100476069Y-107326007D01*
X100601028Y-107504467D01*
X100608084Y-107512875D01*
X100762125Y-107666916D01*
X100770533Y-107673972D01*
X100948993Y-107798931D01*
X100958489Y-107804414D01*
X100993049Y-107820529D01*
X101046334Y-107867446D01*
X101065795Y-107935723D01*
X101045253Y-108003683D01*
X100993049Y-108048919D01*
X100958238Y-108065151D01*
X100958233Y-108065154D01*
X100953251Y-108067477D01*
X100872324Y-108124143D01*
X100770211Y-108195643D01*
X100770208Y-108195645D01*
X100765700Y-108198802D01*
X100603802Y-108360700D01*
X100472477Y-108548251D01*
X100470154Y-108553233D01*
X100470151Y-108553238D01*
X100393984Y-108716580D01*
X100375716Y-108755757D01*
X100316457Y-108976913D01*
X100296502Y-109205000D01*
X100316457Y-109433087D01*
X100317881Y-109438400D01*
X100317881Y-109438402D01*
X100334676Y-109501079D01*
X100375716Y-109654243D01*
X100378039Y-109659224D01*
X100378039Y-109659225D01*
X100470151Y-109856762D01*
X100470154Y-109856767D01*
X100472477Y-109861749D01*
X100603802Y-110049300D01*
X100765700Y-110211198D01*
X100770208Y-110214355D01*
X100770211Y-110214357D01*
X100848389Y-110269098D01*
X100953251Y-110342523D01*
X100958233Y-110344846D01*
X100958238Y-110344849D01*
X100992457Y-110360805D01*
X101045742Y-110407722D01*
X101065203Y-110475999D01*
X101044661Y-110543959D01*
X100992457Y-110589195D01*
X100958238Y-110605151D01*
X100958233Y-110605154D01*
X100953251Y-110607477D01*
X100915261Y-110634078D01*
X100770211Y-110735643D01*
X100770208Y-110735645D01*
X100765700Y-110738802D01*
X100603802Y-110900700D01*
X100600645Y-110905208D01*
X100600643Y-110905211D01*
X100583297Y-110929984D01*
X100472477Y-111088251D01*
X100470154Y-111093233D01*
X100470151Y-111093238D01*
X100394067Y-111256402D01*
X100375716Y-111295757D01*
X100374294Y-111301065D01*
X100374293Y-111301067D01*
X100330963Y-111462776D01*
X100316457Y-111516913D01*
X100296502Y-111745000D01*
X100316457Y-111973087D01*
X100317881Y-111978400D01*
X100317881Y-111978402D01*
X100371349Y-112177944D01*
X100375716Y-112194243D01*
X100378039Y-112199224D01*
X100378039Y-112199225D01*
X100470151Y-112396762D01*
X100470154Y-112396767D01*
X100472477Y-112401749D01*
X100475634Y-112406257D01*
X100565043Y-112533946D01*
X100603802Y-112589300D01*
X100765700Y-112751198D01*
X100770208Y-112754355D01*
X100770211Y-112754357D01*
X100803103Y-112777388D01*
X100953251Y-112882523D01*
X100958233Y-112884846D01*
X100958238Y-112884849D01*
X100992457Y-112900805D01*
X101045742Y-112947722D01*
X101065203Y-113015999D01*
X101044661Y-113083959D01*
X100992457Y-113129195D01*
X100958238Y-113145151D01*
X100958233Y-113145154D01*
X100953251Y-113147477D01*
X100862791Y-113210818D01*
X100770211Y-113275643D01*
X100770208Y-113275645D01*
X100765700Y-113278802D01*
X100603802Y-113440700D01*
X100600645Y-113445208D01*
X100600643Y-113445211D01*
X100565155Y-113495894D01*
X100472477Y-113628251D01*
X100470154Y-113633233D01*
X100470151Y-113633238D01*
X100378039Y-113830775D01*
X100375716Y-113835757D01*
X100374294Y-113841065D01*
X100374293Y-113841067D01*
X100317881Y-114051598D01*
X100316457Y-114056913D01*
X100296502Y-114285000D01*
X100316457Y-114513087D01*
X100317881Y-114518400D01*
X100317881Y-114518402D01*
X100357268Y-114665393D01*
X100375716Y-114734243D01*
X100378039Y-114739224D01*
X100378039Y-114739225D01*
X100470151Y-114936762D01*
X100470154Y-114936767D01*
X100472477Y-114941749D01*
X100475633Y-114946257D01*
X100475637Y-114946263D01*
X100588459Y-115107390D01*
X100611147Y-115174664D01*
X100593862Y-115243524D01*
X100574345Y-115268751D01*
X99635736Y-116207359D01*
X99627462Y-116214888D01*
X99620982Y-116219000D01*
X99615557Y-116224777D01*
X99574357Y-116268651D01*
X99571602Y-116271493D01*
X99551865Y-116291230D01*
X99549385Y-116294427D01*
X99541682Y-116303447D01*
X99511414Y-116335679D01*
X99507595Y-116342625D01*
X99507593Y-116342628D01*
X99501652Y-116353434D01*
X99490801Y-116369953D01*
X99478386Y-116385959D01*
X99475241Y-116393228D01*
X99475238Y-116393232D01*
X99460826Y-116426537D01*
X99455609Y-116437187D01*
X99434305Y-116475940D01*
X99432334Y-116483615D01*
X99432334Y-116483616D01*
X99429267Y-116495562D01*
X99422863Y-116514266D01*
X99414819Y-116532855D01*
X99413580Y-116540678D01*
X99413577Y-116540688D01*
X99407901Y-116576524D01*
X99405495Y-116588144D01*
X99401837Y-116602393D01*
X99394500Y-116630970D01*
X99394500Y-116651224D01*
X99392949Y-116670934D01*
X99389780Y-116690943D01*
X99390526Y-116698835D01*
X99393941Y-116734961D01*
X99394500Y-116746819D01*
X99394500Y-121462305D01*
X99374498Y-121530426D01*
X99320842Y-121576919D01*
X99250568Y-121587023D01*
X99185988Y-121557529D01*
X99179405Y-121551400D01*
X98571805Y-120943800D01*
X98537779Y-120881488D01*
X98534900Y-120854705D01*
X98534900Y-119927667D01*
X98535427Y-119916484D01*
X98537102Y-119908991D01*
X98535250Y-119850059D01*
X98534962Y-119840914D01*
X98534900Y-119836955D01*
X98534900Y-119809044D01*
X98534395Y-119805044D01*
X98533462Y-119793201D01*
X98533456Y-119792988D01*
X98532073Y-119749011D01*
X98526421Y-119729557D01*
X98522413Y-119710200D01*
X98520868Y-119697970D01*
X98520868Y-119697969D01*
X98519874Y-119690103D01*
X98512864Y-119672398D01*
X98503596Y-119648988D01*
X98499751Y-119637758D01*
X98489629Y-119602917D01*
X98489629Y-119602916D01*
X98487418Y-119595307D01*
X98483385Y-119588488D01*
X98483383Y-119588483D01*
X98477107Y-119577872D01*
X98468412Y-119560124D01*
X98460952Y-119541283D01*
X98434964Y-119505513D01*
X98428448Y-119495593D01*
X98409980Y-119464365D01*
X98409978Y-119464362D01*
X98405942Y-119457538D01*
X98391621Y-119443217D01*
X98378780Y-119428183D01*
X98373853Y-119421402D01*
X98366872Y-119411793D01*
X98332795Y-119383602D01*
X98324016Y-119375612D01*
X95225405Y-116277000D01*
X95191379Y-116214688D01*
X95188500Y-116187905D01*
X95188500Y-115667095D01*
X95208502Y-115598974D01*
X95225405Y-115578000D01*
X95284753Y-115518652D01*
X95293039Y-115511112D01*
X95299518Y-115507000D01*
X95346144Y-115457348D01*
X95348898Y-115454507D01*
X95368635Y-115434770D01*
X95371115Y-115431573D01*
X95378820Y-115422551D01*
X95403659Y-115396100D01*
X95409086Y-115390321D01*
X95412905Y-115383375D01*
X95412907Y-115383372D01*
X95418848Y-115372566D01*
X95429699Y-115356047D01*
X95437258Y-115346301D01*
X95442114Y-115340041D01*
X95445259Y-115332772D01*
X95445262Y-115332768D01*
X95459674Y-115299463D01*
X95464891Y-115288813D01*
X95486195Y-115250060D01*
X95491233Y-115230437D01*
X95497637Y-115211734D01*
X95502533Y-115200420D01*
X95502533Y-115200419D01*
X95505681Y-115193145D01*
X95506920Y-115185322D01*
X95506923Y-115185312D01*
X95512599Y-115149476D01*
X95515005Y-115137856D01*
X95524028Y-115102711D01*
X95524028Y-115102710D01*
X95526000Y-115095030D01*
X95526000Y-115074776D01*
X95527551Y-115055065D01*
X95529480Y-115042886D01*
X95530720Y-115035057D01*
X95526559Y-114991038D01*
X95526000Y-114979181D01*
X95526000Y-112942634D01*
X95546002Y-112874513D01*
X95585697Y-112835490D01*
X95623120Y-112812332D01*
X95629348Y-112808478D01*
X95754305Y-112683303D01*
X95804991Y-112601075D01*
X95843275Y-112538968D01*
X95843276Y-112538966D01*
X95847115Y-112532738D01*
X95894652Y-112389418D01*
X95900632Y-112371389D01*
X95900632Y-112371387D01*
X95902797Y-112364861D01*
X95913500Y-112260400D01*
X95913500Y-111259600D01*
X95911812Y-111243330D01*
X95903238Y-111160692D01*
X95903237Y-111160688D01*
X95902526Y-111153834D01*
X95887402Y-111108500D01*
X95848868Y-110993002D01*
X95846550Y-110986054D01*
X95753478Y-110835652D01*
X95628303Y-110710695D01*
X95622069Y-110706852D01*
X95567204Y-110673032D01*
X95519711Y-110620260D01*
X95508289Y-110550188D01*
X95536563Y-110485065D01*
X95544226Y-110476678D01*
X99881599Y-106139305D01*
X99943911Y-106105279D01*
X99970694Y-106102400D01*
X100242400Y-106102400D01*
X100310521Y-106122402D01*
X100357014Y-106176058D01*
X100367118Y-106246332D01*
X100364107Y-106261011D01*
X100328606Y-106393503D01*
X100328942Y-106407599D01*
X100336884Y-106411000D01*
X102877967Y-106411000D01*
X102891498Y-106407027D01*
X102892727Y-106398478D01*
X102845236Y-106221239D01*
X102841490Y-106210947D01*
X102749414Y-106013489D01*
X102743931Y-106003993D01*
X102618972Y-105825533D01*
X102611916Y-105817125D01*
X102598493Y-105803702D01*
X102564467Y-105741390D01*
X102569532Y-105670575D01*
X102598493Y-105625512D01*
X103127553Y-105096452D01*
X103135838Y-105088912D01*
X103142318Y-105084800D01*
X103188959Y-105035132D01*
X103191713Y-105032291D01*
X103211435Y-105012569D01*
X103213912Y-105009376D01*
X103221617Y-105000355D01*
X103228354Y-104993181D01*
X103251886Y-104968121D01*
X103255707Y-104961171D01*
X103261646Y-104950368D01*
X103272502Y-104933841D01*
X103280057Y-104924102D01*
X103280058Y-104924100D01*
X103284914Y-104917840D01*
X103302474Y-104877260D01*
X103307691Y-104866612D01*
X103325175Y-104834809D01*
X103325176Y-104834807D01*
X103328995Y-104827860D01*
X103332091Y-104815804D01*
X103334033Y-104808238D01*
X103340437Y-104789534D01*
X103345333Y-104778220D01*
X103345333Y-104778219D01*
X103348481Y-104770945D01*
X103349720Y-104763122D01*
X103349723Y-104763112D01*
X103355399Y-104727276D01*
X103357805Y-104715656D01*
X103366828Y-104680511D01*
X103366828Y-104680510D01*
X103368800Y-104672830D01*
X103368800Y-104652576D01*
X103370351Y-104632865D01*
X103372280Y-104620686D01*
X103373520Y-104612857D01*
X103369359Y-104568838D01*
X103368800Y-104556981D01*
X103368800Y-93472967D01*
X103369327Y-93461784D01*
X103371002Y-93454291D01*
X103368862Y-93386200D01*
X103368800Y-93382243D01*
X103368800Y-93354344D01*
X103368296Y-93350353D01*
X103367363Y-93338511D01*
X103366848Y-93322099D01*
X103365974Y-93294311D01*
X103363762Y-93286697D01*
X103363761Y-93286692D01*
X103360323Y-93274859D01*
X103356312Y-93255495D01*
X103354767Y-93243264D01*
X103353774Y-93235403D01*
X103350857Y-93228036D01*
X103350856Y-93228031D01*
X103337498Y-93194292D01*
X103333654Y-93183065D01*
X103323530Y-93148222D01*
X103321318Y-93140607D01*
X103316997Y-93133300D01*
X103311007Y-93123172D01*
X103302312Y-93105424D01*
X103294852Y-93086583D01*
X103268864Y-93050813D01*
X103262348Y-93040893D01*
X103243880Y-93009665D01*
X103243878Y-93009662D01*
X103239842Y-93002838D01*
X103225521Y-92988517D01*
X103212680Y-92973483D01*
X103210912Y-92971049D01*
X103200772Y-92957093D01*
X103194667Y-92952042D01*
X103194662Y-92952037D01*
X103166702Y-92928906D01*
X103157924Y-92920919D01*
X102905507Y-92668502D01*
X102645700Y-92408696D01*
X102611675Y-92346383D01*
X102616739Y-92275568D01*
X102631582Y-92247329D01*
X102659822Y-92206998D01*
X102747523Y-92081749D01*
X102749846Y-92076767D01*
X102749849Y-92076762D01*
X102841961Y-91879225D01*
X102841961Y-91879224D01*
X102844284Y-91874243D01*
X102854720Y-91835298D01*
X102902119Y-91658402D01*
X102902119Y-91658400D01*
X102903543Y-91653087D01*
X102923498Y-91425000D01*
X102903543Y-91196913D01*
X102857922Y-91026654D01*
X102845707Y-90981067D01*
X102845706Y-90981065D01*
X102844284Y-90975757D01*
X102825933Y-90936402D01*
X102749849Y-90773238D01*
X102749846Y-90773233D01*
X102747523Y-90768251D01*
X102668754Y-90655758D01*
X102619357Y-90585211D01*
X102619355Y-90585208D01*
X102616198Y-90580700D01*
X102454300Y-90418802D01*
X102449789Y-90415643D01*
X102445576Y-90412108D01*
X102446527Y-90410974D01*
X102406529Y-90360929D01*
X102399224Y-90290310D01*
X102431258Y-90226951D01*
X102492462Y-90190970D01*
X102509517Y-90187918D01*
X102520316Y-90186745D01*
X102656705Y-90135615D01*
X102773261Y-90048261D01*
X102860615Y-89931705D01*
X102911745Y-89795316D01*
X102918500Y-89733134D01*
X102918500Y-88036866D01*
X102911745Y-87974684D01*
X102860615Y-87838295D01*
X102773261Y-87721739D01*
X102656705Y-87634385D01*
X102520316Y-87583255D01*
X102458134Y-87576500D01*
X101169434Y-87576500D01*
X101101313Y-87556498D01*
X101060988Y-87514653D01*
X101060410Y-87513674D01*
X101051708Y-87495913D01*
X101047172Y-87484458D01*
X101044252Y-87477083D01*
X101018263Y-87441312D01*
X101011747Y-87431392D01*
X100993278Y-87400163D01*
X100989242Y-87393338D01*
X100974921Y-87379017D01*
X100962080Y-87363983D01*
X100954831Y-87354006D01*
X100950172Y-87347593D01*
X100916095Y-87319402D01*
X100907316Y-87311412D01*
X97577905Y-83982000D01*
X97543879Y-83919688D01*
X97541000Y-83892905D01*
X97541000Y-83757342D01*
X102807213Y-83757342D01*
X102816509Y-83769357D01*
X102859069Y-83799158D01*
X102868565Y-83804641D01*
X103059680Y-83893759D01*
X103069972Y-83897505D01*
X103273660Y-83952083D01*
X103284453Y-83953986D01*
X103494525Y-83972365D01*
X103505475Y-83972365D01*
X103715547Y-83953986D01*
X103726340Y-83952083D01*
X103930028Y-83897505D01*
X103940320Y-83893759D01*
X104131435Y-83804641D01*
X104140931Y-83799158D01*
X104184329Y-83768770D01*
X104192704Y-83758293D01*
X104185635Y-83744845D01*
X103512812Y-83072022D01*
X103498868Y-83064408D01*
X103497035Y-83064539D01*
X103490420Y-83068790D01*
X102813643Y-83745567D01*
X102807213Y-83757342D01*
X97541000Y-83757342D01*
X97541000Y-83319600D01*
X97530026Y-83213834D01*
X97524101Y-83196073D01*
X97476368Y-83053002D01*
X97474050Y-83046054D01*
X97380978Y-82895652D01*
X97255803Y-82770695D01*
X97249572Y-82766854D01*
X97111468Y-82681725D01*
X97111466Y-82681724D01*
X97105238Y-82677885D01*
X97019554Y-82649465D01*
X96961195Y-82609034D01*
X96933958Y-82543470D01*
X96946492Y-82473588D01*
X96970127Y-82440777D01*
X97125899Y-82285005D01*
X97188211Y-82250979D01*
X97214994Y-82248100D01*
X102144149Y-82248100D01*
X102212270Y-82268102D01*
G37*
%TD.AperFunction*%
%TA.AperFunction,Conductor*%
G36*
X106593864Y-109088269D02*
G01*
X108226307Y-110720712D01*
X108260333Y-110783024D01*
X108255268Y-110853839D01*
X108230662Y-110892126D01*
X108231611Y-110892922D01*
X108221028Y-110905533D01*
X108096069Y-111083993D01*
X108090586Y-111093489D01*
X107998510Y-111290947D01*
X107994764Y-111301239D01*
X107948606Y-111473503D01*
X107948942Y-111487599D01*
X107956884Y-111491000D01*
X109358000Y-111491000D01*
X109426121Y-111511002D01*
X109472614Y-111564658D01*
X109484000Y-111617000D01*
X109484000Y-111873000D01*
X109463998Y-111941121D01*
X109410342Y-111987614D01*
X109358000Y-111999000D01*
X107962033Y-111999000D01*
X107948502Y-112002973D01*
X107947273Y-112011522D01*
X107994764Y-112188761D01*
X107998510Y-112199053D01*
X108090586Y-112396511D01*
X108096069Y-112406007D01*
X108221028Y-112584467D01*
X108228084Y-112592875D01*
X108382125Y-112746916D01*
X108390533Y-112753972D01*
X108568993Y-112878931D01*
X108578489Y-112884414D01*
X108613049Y-112900529D01*
X108666334Y-112947446D01*
X108685795Y-113015723D01*
X108665253Y-113083683D01*
X108613049Y-113128919D01*
X108578238Y-113145151D01*
X108578233Y-113145154D01*
X108573251Y-113147477D01*
X108482791Y-113210818D01*
X108390211Y-113275643D01*
X108390208Y-113275645D01*
X108385700Y-113278802D01*
X108223802Y-113440700D01*
X108220645Y-113445208D01*
X108220643Y-113445211D01*
X108185155Y-113495894D01*
X108092477Y-113628251D01*
X108090154Y-113633233D01*
X108090151Y-113633238D01*
X107998039Y-113830775D01*
X107995716Y-113835757D01*
X107994294Y-113841065D01*
X107994293Y-113841067D01*
X107937881Y-114051598D01*
X107936457Y-114056913D01*
X107916502Y-114285000D01*
X107916981Y-114290475D01*
X107916981Y-114290485D01*
X107918026Y-114302428D01*
X107904038Y-114372033D01*
X107854639Y-114423026D01*
X107785514Y-114439217D01*
X107718608Y-114415465D01*
X107703411Y-114402506D01*
X106140605Y-112839700D01*
X106106579Y-112777388D01*
X106103700Y-112750605D01*
X106103700Y-109826324D01*
X106123702Y-109758203D01*
X106136058Y-109742021D01*
X106209240Y-109660744D01*
X106304727Y-109495356D01*
X106363742Y-109313728D01*
X106364432Y-109307165D01*
X106379459Y-109164193D01*
X106406472Y-109098536D01*
X106464694Y-109057907D01*
X106535639Y-109055204D01*
X106593864Y-109088269D01*
G37*
%TD.AperFunction*%
%TA.AperFunction,Conductor*%
G36*
X79464332Y-102675924D02*
G01*
X79509395Y-102704885D01*
X79690415Y-102885905D01*
X79724441Y-102948217D01*
X79719376Y-103019032D01*
X79690415Y-103064095D01*
X78705223Y-104049287D01*
X78698793Y-104061062D01*
X78708089Y-104073077D01*
X78759294Y-104108931D01*
X78768789Y-104114414D01*
X78966247Y-104206490D01*
X78976539Y-104210236D01*
X79080285Y-104238034D01*
X79140908Y-104274985D01*
X79171929Y-104338846D01*
X79163501Y-104409340D01*
X79118298Y-104464088D01*
X79080286Y-104481448D01*
X78971057Y-104510716D01*
X78966076Y-104513039D01*
X78966075Y-104513039D01*
X78768538Y-104605151D01*
X78768533Y-104605154D01*
X78763551Y-104607477D01*
X78695036Y-104655452D01*
X78580511Y-104735643D01*
X78580508Y-104735645D01*
X78576000Y-104738802D01*
X78525995Y-104788807D01*
X78463683Y-104822833D01*
X78392868Y-104817768D01*
X78336032Y-104775221D01*
X78311221Y-104708701D01*
X78310900Y-104699712D01*
X78310900Y-103777380D01*
X78330902Y-103709259D01*
X78347805Y-103688285D01*
X79331205Y-102704885D01*
X79393517Y-102670859D01*
X79464332Y-102675924D01*
G37*
%TD.AperFunction*%
%TD*%
M02*
