M48
; DRILL file {KiCad (6.0.4)} date Wed Jun  8 19:20:30 2022
; FORMAT={-:-/ absolute / inch / decimal}
; #@! TF.CreationDate,2022-06-08T19:20:30+01:00
; #@! TF.GenerationSoftware,Kicad,Pcbnew,(6.0.4)
; #@! TF.FileFunction,Plated,1,2,PTH
FMAT,2
INCH
; #@! TA.AperFunction,Plated,PTH,ViaDrill
T1C0.0157
; #@! TA.AperFunction,Plated,PTH,ComponentDrill
T2C0.0299
; #@! TA.AperFunction,Plated,PTH,ComponentDrill
T3C0.0315
; #@! TA.AperFunction,Plated,PTH,ComponentDrill
T4C0.0394
; #@! TA.AperFunction,Plated,PTH,ComponentDrill
T5C0.0984
; #@! TA.AperFunction,Plated,PTH,ComponentDrill
T6C0.1061
; #@! TA.AperFunction,Plated,PTH,ComponentDrill
T7C0.1260
%
G90
G05
T1
X4.1524Y-4.2962
X4.4547Y-4.416
T2
X4.0248Y-3.1559
X4.0748Y-3.2559
X4.1248Y-3.1559
X4.1748Y-3.2559
X4.2248Y-3.1559
X4.2748Y-3.2559
T3
X4.0004Y-3.4994
X4.0004Y-3.5994
X4.0004Y-3.6994
X4.0004Y-3.7994
X4.0004Y-3.8994
X4.0004Y-3.9994
X4.0004Y-4.0994
X4.0004Y-4.1994
X4.0004Y-4.2994
X4.0004Y-4.3994
X4.0004Y-4.4994
X4.0004Y-4.5994
X4.0004Y-4.6994
X4.0004Y-4.7994
X4.3004Y-3.4994
X4.3004Y-3.5994
X4.3004Y-3.6994
X4.3004Y-3.7994
X4.3004Y-3.8994
X4.3004Y-3.9994
X4.3004Y-4.0994
X4.3004Y-4.1994
X4.3004Y-4.2994
X4.3004Y-4.3994
X4.3004Y-4.4994
X4.3004Y-4.5994
X4.3004Y-4.6994
X4.3004Y-4.7994
T4
X3.072Y-4.8945
X3.072Y-4.9929
X3.1268Y-3.836
X3.1268Y-3.9451
X3.1268Y-4.0541
X3.1268Y-4.1632
X3.1488Y-4.9929
X3.2386Y-3.7815
X3.2386Y-3.8906
X3.2386Y-3.9996
X3.2386Y-4.1087
X3.2386Y-4.2177
X3.2512Y-4.9929
X3.328Y-4.8945
X3.328Y-4.9929
X4.9709Y-4.9016
X4.9709Y-5.0
X5.0476Y-5.0
X5.0614Y-3.7823
X5.0614Y-3.8913
X5.0614Y-4.0004
X5.0614Y-4.1094
X5.0614Y-4.2185
X5.15Y-5.0
X5.1732Y-3.8368
X5.1732Y-3.9459
X5.1732Y-4.0549
X5.1732Y-4.164
X5.2268Y-4.9016
X5.2268Y-5.0
T5
X2.9362Y-5.1071
X3.4638Y-5.1071
X4.835Y-5.1142
X5.3626Y-5.1142
T6
X3.2Y-5.1425
X5.0988Y-5.1496
T7
X3.1827Y-3.5075
X3.1827Y-4.4917
X5.1173Y-3.5083
X5.1173Y-4.4925
T0
M30
