%TF.GenerationSoftware,KiCad,Pcbnew,(6.0.4)*%
%TF.CreationDate,2022-06-08T19:20:38+01:00*%
%TF.ProjectId,Eiffel - Rev B,45696666-656c-4202-9d20-52657620422e,rev?*%
%TF.SameCoordinates,Original*%
%TF.FileFunction,Copper,L1,Top*%
%TF.FilePolarity,Positive*%
%FSLAX46Y46*%
G04 Gerber Fmt 4.6, Leading zero omitted, Abs format (unit mm)*
G04 Created by KiCad (PCBNEW (6.0.4)) date 2022-06-08 19:20:38*
%MOMM*%
%LPD*%
G01*
G04 APERTURE LIST*
G04 Aperture macros list*
%AMRoundRect*
0 Rectangle with rounded corners*
0 $1 Rounding radius*
0 $2 $3 $4 $5 $6 $7 $8 $9 X,Y pos of 4 corners*
0 Add a 4 corners polygon primitive as box body*
4,1,4,$2,$3,$4,$5,$6,$7,$8,$9,$2,$3,0*
0 Add four circle primitives for the rounded corners*
1,1,$1+$1,$2,$3*
1,1,$1+$1,$4,$5*
1,1,$1+$1,$6,$7*
1,1,$1+$1,$8,$9*
0 Add four rect primitives between the rounded corners*
20,1,$1+$1,$2,$3,$4,$5,0*
20,1,$1+$1,$4,$5,$6,$7,0*
20,1,$1+$1,$6,$7,$8,$9,0*
20,1,$1+$1,$8,$9,$2,$3,0*%
G04 Aperture macros list end*
%TA.AperFunction,Profile*%
%ADD10C,0.100000*%
%TD*%
%TA.AperFunction,ComponentPad*%
%ADD11R,1.600000X1.600000*%
%TD*%
%TA.AperFunction,ComponentPad*%
%ADD12O,1.600000X1.600000*%
%TD*%
%TA.AperFunction,SMDPad,CuDef*%
%ADD13RoundRect,0.250000X0.475000X-0.250000X0.475000X0.250000X-0.475000X0.250000X-0.475000X-0.250000X0*%
%TD*%
%TA.AperFunction,ComponentPad*%
%ADD14R,1.520000X1.520000*%
%TD*%
%TA.AperFunction,ComponentPad*%
%ADD15C,1.520000*%
%TD*%
%TA.AperFunction,SMDPad,CuDef*%
%ADD16C,0.500000*%
%TD*%
%TA.AperFunction,ComponentPad*%
%ADD17R,1.500000X1.500000*%
%TD*%
%TA.AperFunction,ComponentPad*%
%ADD18C,1.500000*%
%TD*%
%TA.AperFunction,ComponentPad*%
%ADD19C,3.700000*%
%TD*%
%TA.AperFunction,ComponentPad*%
%ADD20C,4.000000*%
%TD*%
%TA.AperFunction,SMDPad,CuDef*%
%ADD21RoundRect,0.250000X-0.262500X-0.450000X0.262500X-0.450000X0.262500X0.450000X-0.262500X0.450000X0*%
%TD*%
%TA.AperFunction,SMDPad,CuDef*%
%ADD22R,2.000000X4.500000*%
%TD*%
%TA.AperFunction,SMDPad,CuDef*%
%ADD23RoundRect,0.243750X-0.243750X-0.456250X0.243750X-0.456250X0.243750X0.456250X-0.243750X0.456250X0*%
%TD*%
%TA.AperFunction,ComponentPad*%
%ADD24C,1.600000*%
%TD*%
%TA.AperFunction,ViaPad*%
%ADD25C,0.800000*%
%TD*%
%TA.AperFunction,Conductor*%
%ADD26C,0.250000*%
%TD*%
G04 APERTURE END LIST*
D10*
X71120000Y-85090000D02*
X96520000Y-69850000D01*
X139700000Y-136070000D02*
X139700000Y-85090000D01*
X71120000Y-85090000D02*
X71120000Y-136070000D01*
X71120000Y-136070000D02*
X138430000Y-136070000D01*
X114300000Y-69850000D02*
X139700000Y-85090000D01*
X138430000Y-136070000D02*
X139700000Y-136070000D01*
X96520000Y-69850000D02*
X114300000Y-69850000D01*
D11*
%TO.P,U1,1,~{MCLR}/Vpp*%
%TO.N,Net-(R3-Pad2)*%
X101610000Y-88885000D03*
D12*
%TO.P,U1,2,AN0/RA0*%
%TO.N,Net-(R14-Pad2)*%
X101610000Y-91425000D03*
%TO.P,U1,3,AN1/RA1*%
%TO.N,Net-(R16-Pad2)*%
X101610000Y-93965000D03*
%TO.P,U1,4,Vref-/AN2/RA2*%
%TO.N,Net-(R18-Pad2)*%
X101610000Y-96505000D03*
%TO.P,U1,5,Vref+/AN3/RA3*%
%TO.N,Net-(R20-Pad2)*%
X101610000Y-99045000D03*
%TO.P,U1,6,T0CKI/RA4*%
%TO.N,Net-(R22-Pad2)*%
X101610000Y-101585000D03*
%TO.P,U1,7,~{SS}/AN4/RA5*%
%TO.N,Net-(R24-Pad2)*%
X101610000Y-104125000D03*
%TO.P,U1,8,VSS*%
%TO.N,GND*%
X101610000Y-106665000D03*
%TO.P,U1,9,OSC1/CLKI*%
%TO.N,Net-(C1-Pad1)*%
X101610000Y-109205000D03*
%TO.P,U1,10,OSC2/CLKO*%
%TO.N,Net-(C2-Pad1)*%
X101610000Y-111745000D03*
%TO.P,U1,11,RC0/T1OSO/T1CKI*%
%TO.N,Net-(R13-Pad1)*%
X101610000Y-114285000D03*
%TO.P,U1,12,RC1/T1OSI/CCP2*%
%TO.N,Net-(R12-Pad1)*%
X101610000Y-116825000D03*
%TO.P,U1,13,RC2/CCP1*%
%TO.N,Net-(R10-Pad1)*%
X101610000Y-119365000D03*
%TO.P,U1,14,RC3/SCK/SCL*%
%TO.N,Net-(R8-Pad2)*%
X101610000Y-121905000D03*
%TO.P,U1,15,RC4/SDI/SDA*%
%TO.N,Net-(R11-Pad1)*%
X109230000Y-121905000D03*
%TO.P,U1,16,RC5/SDO*%
%TO.N,unconnected-(U1-Pad16)*%
X109230000Y-119365000D03*
%TO.P,U1,17,RC6/CK/TX*%
%TO.N,Net-(J4-Pad4)*%
X109230000Y-116825000D03*
%TO.P,U1,18,RC7/DT/RX*%
%TO.N,Net-(J4-Pad3)*%
X109230000Y-114285000D03*
%TO.P,U1,19,VSS*%
%TO.N,GND*%
X109230000Y-111745000D03*
%TO.P,U1,20,VDD*%
%TO.N,Net-(C3-Pad1)*%
X109230000Y-109205000D03*
%TO.P,U1,21,INT/RB0*%
%TO.N,Net-(J1-Pad1)*%
X109230000Y-106665000D03*
%TO.P,U1,22,RB1*%
%TO.N,Net-(J1-Pad5)*%
X109230000Y-104125000D03*
%TO.P,U1,23,RB2*%
%TO.N,Net-(J2-Pad1)*%
X109230000Y-101585000D03*
%TO.P,U1,24,PGM/RB3*%
%TO.N,Net-(J2-Pad5)*%
X109230000Y-99045000D03*
%TO.P,U1,25,RB4*%
%TO.N,unconnected-(U1-Pad25)*%
X109230000Y-96505000D03*
%TO.P,U1,26,RB5*%
%TO.N,unconnected-(U1-Pad26)*%
X109230000Y-93965000D03*
%TO.P,U1,27,PGC/RB6*%
%TO.N,Net-(R2-Pad1)*%
X109230000Y-91425000D03*
%TO.P,U1,28,PGD/RB7*%
%TO.N,Net-(R1-Pad1)*%
X109230000Y-88885000D03*
%TD*%
D13*
%TO.P,C1,1*%
%TO.N,Net-(C1-Pad1)*%
X92110000Y-112710000D03*
%TO.P,C1,2*%
%TO.N,GND*%
X92110000Y-110810000D03*
%TD*%
D14*
%TO.P,ATARI MEGA/TT,1*%
%TO.N,Net-(C3-Pad1)*%
X108580000Y-82700000D03*
D15*
%TO.P,ATARI MEGA/TT,2*%
X107310000Y-80160000D03*
%TO.P,ATARI MEGA/TT,3*%
%TO.N,Net-(J4-Pad3)*%
X106040000Y-82700000D03*
%TO.P,ATARI MEGA/TT,4*%
%TO.N,Net-(J4-Pad4)*%
X104770000Y-80160000D03*
%TO.P,ATARI MEGA/TT,5*%
%TO.N,GND*%
X103500000Y-82700000D03*
%TO.P,ATARI MEGA/TT,6*%
X102230000Y-80160000D03*
%TD*%
D16*
%TO.P,REF\u002A\u002A,*%
%TO.N,*%
X95968239Y-77883119D03*
X95968239Y-77883119D03*
%TD*%
D17*
%TO.P,MSE,1*%
%TO.N,Net-(J2-Pad1)*%
X82580000Y-126820000D03*
D18*
%TO.P,MSE,2*%
%TO.N,unconnected-(J2-Pad2)*%
X79980000Y-126820000D03*
%TO.P,MSE,3*%
%TO.N,GND*%
X84530000Y-126820000D03*
%TO.P,MSE,4*%
%TO.N,Net-(C3-Pad1)*%
X78030000Y-126820000D03*
%TO.P,MSE,5*%
%TO.N,Net-(J2-Pad5)*%
X84530000Y-124320000D03*
%TO.P,MSE,6*%
%TO.N,unconnected-(J2-Pad6)*%
X78030000Y-124320000D03*
D19*
%TO.P,MSE,MH1*%
%TO.N,N/C*%
X87980000Y-129720000D03*
D20*
%TO.P,MSE,MH2*%
X81280000Y-130620000D03*
D19*
%TO.P,MSE,MH3*%
X74580000Y-129720000D03*
%TD*%
D16*
%TO.P,REF\u002A\u002A,*%
%TO.N,*%
X114900000Y-77900000D03*
%TD*%
D21*
%TO.P,R2,1*%
%TO.N,Net-(R2-Pad1)*%
X116260000Y-129540000D03*
%TO.P,R2,2*%
%TO.N,Net-(D2-Pad1)*%
X118085000Y-129540000D03*
%TD*%
D16*
%TO.P,REF\u002A\u002A,*%
%TO.N,*%
X113100000Y-124400000D03*
X113100000Y-124400000D03*
%TD*%
D22*
%TO.P,Y1,1,1*%
%TO.N,Net-(C1-Pad1)*%
X95920000Y-110930000D03*
%TO.P,Y1,2,2*%
%TO.N,Net-(C2-Pad1)*%
X95920000Y-102430000D03*
%TD*%
D23*
%TO.P,D1,1,K*%
%TO.N,Net-(D1-Pad1)*%
X93042500Y-133350000D03*
%TO.P,D1,2,A*%
%TO.N,Net-(C3-Pad1)*%
X94917500Y-133350000D03*
%TD*%
D20*
%TO.P,Joystick,0*%
%TO.N,N/C*%
X80840300Y-89090000D03*
X80840300Y-114090000D03*
D11*
%TO.P,Joystick,1,1*%
%TO.N,Net-(J5-Pad1)*%
X82260300Y-96050000D03*
D24*
%TO.P,Joystick,2,2*%
%TO.N,Net-(J5-Pad2)*%
X82260300Y-98820000D03*
%TO.P,Joystick,3,3*%
%TO.N,Net-(J5-Pad3)*%
X82260300Y-101590000D03*
%TO.P,Joystick,4,4*%
%TO.N,Net-(J5-Pad4)*%
X82260300Y-104360000D03*
%TO.P,Joystick,5,5*%
%TO.N,unconnected-(J5-Pad5)*%
X82260300Y-107130000D03*
%TO.P,Joystick,6,6*%
%TO.N,Net-(J5-Pad6)*%
X79420300Y-97435000D03*
%TO.P,Joystick,7,7*%
%TO.N,Net-(C3-Pad1)*%
X79420300Y-100205000D03*
%TO.P,Joystick,8,8*%
%TO.N,GND*%
X79420300Y-102975000D03*
%TO.P,Joystick,9,9*%
%TO.N,unconnected-(J5-Pad9)*%
X79420300Y-105745000D03*
%TD*%
D23*
%TO.P,D2,1,K*%
%TO.N,Net-(D2-Pad1)*%
X116235000Y-133350000D03*
%TO.P,D2,2,A*%
%TO.N,Net-(C3-Pad1)*%
X118110000Y-133350000D03*
%TD*%
D21*
%TO.P,R1,1*%
%TO.N,Net-(R1-Pad1)*%
X93067500Y-129540000D03*
%TO.P,R1,2*%
%TO.N,Net-(D1-Pad1)*%
X94892500Y-129540000D03*
%TD*%
D13*
%TO.P,C2,1*%
%TO.N,Net-(C2-Pad1)*%
X92110000Y-102550000D03*
%TO.P,C2,2*%
%TO.N,GND*%
X92110000Y-100650000D03*
%TD*%
D16*
%TO.P,REF\u002A\u002A,*%
%TO.N,*%
X97750000Y-124450000D03*
X97750000Y-124450000D03*
%TD*%
D17*
%TO.P,KEY,1*%
%TO.N,Net-(J1-Pad1)*%
X130810000Y-127000000D03*
D18*
%TO.P,KEY,2*%
%TO.N,unconnected-(J1-Pad2)*%
X128210000Y-127000000D03*
%TO.P,KEY,3*%
%TO.N,GND*%
X132760000Y-127000000D03*
%TO.P,KEY,4*%
%TO.N,Net-(C3-Pad1)*%
X126260000Y-127000000D03*
%TO.P,KEY,5*%
%TO.N,Net-(J1-Pad5)*%
X132760000Y-124500000D03*
%TO.P,KEY,6*%
%TO.N,unconnected-(J1-Pad6)*%
X126260000Y-124500000D03*
D19*
%TO.P,KEY,MH1*%
%TO.N,N/C*%
X136210000Y-129900000D03*
D20*
%TO.P,KEY,MH2*%
X129510000Y-130800000D03*
D19*
%TO.P,KEY,MH3*%
X122810000Y-129900000D03*
%TD*%
D20*
%TO.P,Joystick,0*%
%TO.N,N/C*%
X129979700Y-89110000D03*
X129979700Y-114110000D03*
D11*
%TO.P,Joystick,1,1*%
%TO.N,Net-(J3-Pad1)*%
X128559700Y-107150000D03*
D24*
%TO.P,Joystick,2,2*%
%TO.N,Net-(J3-Pad2)*%
X128559700Y-104380000D03*
%TO.P,Joystick,3,3*%
%TO.N,Net-(J3-Pad3)*%
X128559700Y-101610000D03*
%TO.P,Joystick,4,4*%
%TO.N,Net-(J3-Pad4)*%
X128559700Y-98840000D03*
%TO.P,Joystick,5,5*%
%TO.N,unconnected-(J3-Pad5)*%
X128559700Y-96070000D03*
%TO.P,Joystick,6,6*%
%TO.N,Net-(J3-Pad6)*%
X131399700Y-105765000D03*
%TO.P,Joystick,7,7*%
%TO.N,Net-(C3-Pad1)*%
X131399700Y-102995000D03*
%TO.P,Joystick,8,8*%
%TO.N,GND*%
X131399700Y-100225000D03*
%TO.P,Joystick,9,9*%
%TO.N,unconnected-(J3-Pad9)*%
X131399700Y-97455000D03*
%TD*%
D25*
%TO.N,Net-(J4-Pad4)*%
X105470200Y-109123800D03*
%TO.N,Net-(R12-Pad1)*%
X113149200Y-112165300D03*
%TD*%
D26*
%TO.N,Net-(C1-Pad1)*%
X92814700Y-112710000D02*
X92110000Y-112710000D01*
X95920000Y-110930000D02*
X98759700Y-110930000D01*
X95920000Y-110930000D02*
X94594700Y-110930000D01*
X101610000Y-109205000D02*
X100484700Y-109205000D01*
X98759700Y-110930000D02*
X100484700Y-109205000D01*
X94594700Y-110930000D02*
X92814700Y-112710000D01*
%TO.N,GND*%
X79420300Y-102975000D02*
X89785000Y-102975000D01*
X89785000Y-102975000D02*
X92110000Y-100650000D01*
X89785000Y-104637500D02*
X92110000Y-106962500D01*
X103500000Y-82700000D02*
X102230000Y-81430000D01*
X92110000Y-106962500D02*
X100187200Y-106962500D01*
X92110000Y-110810000D02*
X92110000Y-106962500D01*
X102230000Y-81430000D02*
X102230000Y-80160000D01*
X100187200Y-106962500D02*
X100484700Y-106665000D01*
X89785000Y-102975000D02*
X89785000Y-104637500D01*
X101610000Y-106665000D02*
X100484700Y-106665000D01*
X92110000Y-94090000D02*
X103500000Y-82700000D01*
X92110000Y-100650000D02*
X92110000Y-94090000D01*
%TO.N,Net-(C2-Pad1)*%
X92110000Y-102550000D02*
X94474700Y-102550000D01*
X95920000Y-102430000D02*
X97245300Y-102430000D01*
X101891400Y-110619700D02*
X101610000Y-110619700D01*
X102735300Y-109775800D02*
X101891400Y-110619700D01*
X100210300Y-105395000D02*
X101964000Y-105395000D01*
X94474700Y-102550000D02*
X94594700Y-102430000D01*
X102735300Y-106166300D02*
X102735300Y-109775800D01*
X95920000Y-102430000D02*
X94594700Y-102430000D01*
X101610000Y-111745000D02*
X101610000Y-110619700D01*
X97245300Y-102430000D02*
X100210300Y-105395000D01*
X101964000Y-105395000D02*
X102735300Y-106166300D01*
%TO.N,Net-(C3-Pad1)*%
X78030000Y-126820000D02*
X79456700Y-128246700D01*
X122608300Y-127000000D02*
X118110000Y-131498300D01*
X93889600Y-134377900D02*
X94917500Y-133350000D01*
X82779800Y-128246700D02*
X88911000Y-134377900D01*
X126260000Y-127000000D02*
X122608300Y-127000000D01*
X79456700Y-128246700D02*
X82779800Y-128246700D01*
X118110000Y-131498300D02*
X118110000Y-133350000D01*
X88911000Y-134377900D02*
X93889600Y-134377900D01*
%TO.N,Net-(D1-Pad1)*%
X94892500Y-131500000D02*
X93042500Y-133350000D01*
X94892500Y-129540000D02*
X94892500Y-131500000D01*
%TO.N,Net-(D2-Pad1)*%
X116235000Y-131390000D02*
X118085000Y-129540000D01*
X116235000Y-133350000D02*
X116235000Y-131390000D01*
%TO.N,Net-(J1-Pad1)*%
X130810000Y-127000000D02*
X129734700Y-127000000D01*
X129734700Y-127000000D02*
X129734700Y-126044400D01*
X129734700Y-126044400D02*
X110355300Y-106665000D01*
X109230000Y-106665000D02*
X110355300Y-106665000D01*
%TO.N,Net-(J1-Pad5)*%
X112385000Y-104125000D02*
X109230000Y-104125000D01*
X132760000Y-124500000D02*
X112385000Y-104125000D01*
%TO.N,Net-(J2-Pad1)*%
X101894000Y-115628900D02*
X107507100Y-110015800D01*
X89662600Y-125570000D02*
X99603700Y-115628900D01*
X107507100Y-110015800D02*
X107507100Y-103307900D01*
X82580000Y-126820000D02*
X83830000Y-125570000D01*
X99603700Y-115628900D02*
X101894000Y-115628900D01*
X107507100Y-103307900D02*
X109230000Y-101585000D01*
X83830000Y-125570000D02*
X89662600Y-125570000D01*
%TO.N,Net-(J2-Pad5)*%
X108948700Y-100170300D02*
X109230000Y-100170300D01*
X109230000Y-99045000D02*
X109230000Y-100170300D01*
X102604800Y-113015000D02*
X106195500Y-109424300D01*
X99260100Y-113015000D02*
X102604800Y-113015000D01*
X87955100Y-124320000D02*
X99260100Y-113015000D01*
X106195500Y-109424300D02*
X106195500Y-102923500D01*
X84530000Y-124320000D02*
X87955100Y-124320000D01*
X106195500Y-102923500D02*
X108948700Y-100170300D01*
%TO.N,Net-(J4-Pad4)*%
X104770000Y-80160000D02*
X104770000Y-108423600D01*
X104770000Y-108423600D02*
X105470200Y-109123800D01*
%TO.N,Net-(R1-Pad1)*%
X109230000Y-88885000D02*
X111201300Y-90856300D01*
X122058300Y-134378800D02*
X127971600Y-128465500D01*
X94097600Y-128509900D02*
X108509600Y-128509900D01*
X111201300Y-90856300D02*
X111201300Y-91998700D01*
X133894800Y-114692200D02*
X111201300Y-91998700D01*
X114378500Y-134378800D02*
X122058300Y-134378800D01*
X93067500Y-129540000D02*
X94097600Y-128509900D01*
X133894800Y-127435600D02*
X133894800Y-114692200D01*
X108509600Y-128509900D02*
X114378500Y-134378800D01*
X132864900Y-128465500D02*
X133894800Y-127435600D01*
X127971600Y-128465500D02*
X132864900Y-128465500D01*
%TO.N,Net-(R2-Pad1)*%
X116260000Y-114250300D02*
X116260000Y-129540000D01*
X107700000Y-96700000D02*
X108775000Y-97775000D01*
X110356400Y-98565000D02*
X110356400Y-102129700D01*
X108906800Y-102855000D02*
X108063800Y-103698000D01*
X107700000Y-92000000D02*
X107700000Y-96700000D01*
X108275000Y-91425000D02*
X107700000Y-92000000D01*
X109230000Y-91425000D02*
X108275000Y-91425000D01*
X110356400Y-102129700D02*
X109631100Y-102855000D01*
X109566400Y-97775000D02*
X110356400Y-98565000D01*
X109944700Y-107935000D02*
X116260000Y-114250300D01*
X108775000Y-97775000D02*
X109566400Y-97775000D01*
X108063800Y-107133700D02*
X108865100Y-107935000D01*
X109631100Y-102855000D02*
X108906800Y-102855000D01*
X108865100Y-107935000D02*
X109944700Y-107935000D01*
X108063800Y-103698000D02*
X108063800Y-107133700D01*
%TO.N,Net-(R12-Pad1)*%
X113149200Y-112165300D02*
X109614800Y-115699700D01*
X103860600Y-115699700D02*
X102735300Y-116825000D01*
X109614800Y-115699700D02*
X103860600Y-115699700D01*
X101610000Y-116825000D02*
X102735300Y-116825000D01*
%TD*%
M02*
