%TF.GenerationSoftware,KiCad,Pcbnew,(6.0.4)*%
%TF.CreationDate,2022-06-08T19:20:38+01:00*%
%TF.ProjectId,Eiffel - Rev B,45696666-656c-4202-9d20-52657620422e,rev?*%
%TF.SameCoordinates,Original*%
%TF.FileFunction,Soldermask,Top*%
%TF.FilePolarity,Negative*%
%FSLAX46Y46*%
G04 Gerber Fmt 4.6, Leading zero omitted, Abs format (unit mm)*
G04 Created by KiCad (PCBNEW (6.0.4)) date 2022-06-08 19:20:38*
%MOMM*%
%LPD*%
G01*
G04 APERTURE LIST*
G04 Aperture macros list*
%AMRoundRect*
0 Rectangle with rounded corners*
0 $1 Rounding radius*
0 $2 $3 $4 $5 $6 $7 $8 $9 X,Y pos of 4 corners*
0 Add a 4 corners polygon primitive as box body*
4,1,4,$2,$3,$4,$5,$6,$7,$8,$9,$2,$3,0*
0 Add four circle primitives for the rounded corners*
1,1,$1+$1,$2,$3*
1,1,$1+$1,$4,$5*
1,1,$1+$1,$6,$7*
1,1,$1+$1,$8,$9*
0 Add four rect primitives between the rounded corners*
20,1,$1+$1,$2,$3,$4,$5,0*
20,1,$1+$1,$4,$5,$6,$7,0*
20,1,$1+$1,$6,$7,$8,$9,0*
20,1,$1+$1,$8,$9,$2,$3,0*%
G04 Aperture macros list end*
%TA.AperFunction,Profile*%
%ADD10C,0.100000*%
%TD*%
%ADD11R,1.600000X1.600000*%
%ADD12O,1.600000X1.600000*%
%ADD13RoundRect,0.250000X0.475000X-0.250000X0.475000X0.250000X-0.475000X0.250000X-0.475000X-0.250000X0*%
%ADD14C,3.250000*%
%ADD15R,1.520000X1.520000*%
%ADD16C,1.520000*%
%ADD17C,1.500000*%
%ADD18R,1.500000X1.500000*%
%ADD19C,3.700000*%
%ADD20C,4.000000*%
%ADD21C,3.200000*%
%ADD22RoundRect,0.250000X-0.262500X-0.450000X0.262500X-0.450000X0.262500X0.450000X-0.262500X0.450000X0*%
%ADD23R,2.000000X4.500000*%
%ADD24RoundRect,0.243750X-0.243750X-0.456250X0.243750X-0.456250X0.243750X0.456250X-0.243750X0.456250X0*%
%ADD25C,1.600000*%
G04 APERTURE END LIST*
D10*
X71120000Y-85090000D02*
X96520000Y-69850000D01*
X139700000Y-136070000D02*
X139700000Y-85090000D01*
X71120000Y-85090000D02*
X71120000Y-136070000D01*
X71120000Y-136070000D02*
X138430000Y-136070000D01*
X114300000Y-69850000D02*
X139700000Y-85090000D01*
X138430000Y-136070000D02*
X139700000Y-136070000D01*
X96520000Y-69850000D02*
X114300000Y-69850000D01*
D11*
%TO.C,U1*%
X101610000Y-88885000D03*
D12*
X101610000Y-91425000D03*
X101610000Y-93965000D03*
X101610000Y-96505000D03*
X101610000Y-99045000D03*
X101610000Y-101585000D03*
X101610000Y-104125000D03*
X101610000Y-106665000D03*
X101610000Y-109205000D03*
X101610000Y-111745000D03*
X101610000Y-114285000D03*
X101610000Y-116825000D03*
X101610000Y-119365000D03*
X101610000Y-121905000D03*
X109230000Y-121905000D03*
X109230000Y-119365000D03*
X109230000Y-116825000D03*
X109230000Y-114285000D03*
X109230000Y-111745000D03*
X109230000Y-109205000D03*
X109230000Y-106665000D03*
X109230000Y-104125000D03*
X109230000Y-101585000D03*
X109230000Y-99045000D03*
X109230000Y-96505000D03*
X109230000Y-93965000D03*
X109230000Y-91425000D03*
X109230000Y-88885000D03*
%TD*%
D13*
%TO.C,C1*%
X92110000Y-112710000D03*
X92110000Y-110810000D03*
%TD*%
D14*
%TO.C,ATARI MEGA/TT*%
X110490000Y-73810000D03*
X100330000Y-73810000D03*
D15*
X108580000Y-82700000D03*
D16*
X107310000Y-80160000D03*
X106040000Y-82700000D03*
X104770000Y-80160000D03*
X103500000Y-82700000D03*
X102230000Y-80160000D03*
%TD*%
D17*
%TO.C,REF\u002A\u002A*%
X95968239Y-77883119D03*
X95968239Y-77883119D03*
%TD*%
D18*
%TO.C,MSE*%
X82580000Y-126820000D03*
D17*
X79980000Y-126820000D03*
X84530000Y-126820000D03*
X78030000Y-126820000D03*
X84530000Y-124320000D03*
X78030000Y-124320000D03*
D19*
X87980000Y-129720000D03*
D20*
X81280000Y-130620000D03*
D19*
X74580000Y-129720000D03*
%TD*%
D17*
%TO.C,REF\u002A\u002A*%
X114900000Y-77900000D03*
%TD*%
D21*
%TO.C,REF\u002A\u002A*%
X105384600Y-132232400D03*
%TD*%
D22*
%TO.C,R2*%
X116260000Y-129540000D03*
X118085000Y-129540000D03*
%TD*%
D17*
%TO.C,REF\u002A\u002A*%
X113100000Y-124400000D03*
X113100000Y-124400000D03*
%TD*%
D21*
%TO.C,REF\u002A\u002A*%
X122758200Y-81102200D03*
%TD*%
D23*
%TO.C,Y1*%
X95920000Y-110930000D03*
X95920000Y-102430000D03*
%TD*%
D24*
%TO.C,D1*%
X93042500Y-133350000D03*
X94917500Y-133350000D03*
%TD*%
D20*
%TO.C,Joystick*%
X80840300Y-89090000D03*
X80840300Y-114090000D03*
D11*
X82260300Y-96050000D03*
D25*
X82260300Y-98820000D03*
X82260300Y-101590000D03*
X82260300Y-104360000D03*
X82260300Y-107130000D03*
X79420300Y-97435000D03*
X79420300Y-100205000D03*
X79420300Y-102975000D03*
X79420300Y-105745000D03*
%TD*%
D24*
%TO.C,D2*%
X116235000Y-133350000D03*
X118110000Y-133350000D03*
%TD*%
D22*
%TO.C,R1*%
X93067500Y-129540000D03*
X94892500Y-129540000D03*
%TD*%
D13*
%TO.C,C2*%
X92110000Y-102550000D03*
X92110000Y-100650000D03*
%TD*%
D17*
%TO.C,REF\u002A\u002A*%
X97750000Y-124450000D03*
X97750000Y-124450000D03*
%TD*%
D18*
%TO.C,KEY*%
X130810000Y-127000000D03*
D17*
X128210000Y-127000000D03*
X132760000Y-127000000D03*
X126260000Y-127000000D03*
X132760000Y-124500000D03*
X126260000Y-124500000D03*
D19*
X136210000Y-129900000D03*
D20*
X129510000Y-130800000D03*
D19*
X122810000Y-129900000D03*
%TD*%
D21*
%TO.C,REF\u002A\u002A*%
X88569800Y-81102200D03*
%TD*%
D20*
%TO.C,Joystick*%
X129979700Y-89110000D03*
X129979700Y-114110000D03*
D11*
X128559700Y-107150000D03*
D25*
X128559700Y-104380000D03*
X128559700Y-101610000D03*
X128559700Y-98840000D03*
X128559700Y-96070000D03*
X131399700Y-105765000D03*
X131399700Y-102995000D03*
X131399700Y-100225000D03*
X131399700Y-97455000D03*
%TD*%
M02*
