%TF.GenerationSoftware,KiCad,Pcbnew,(6.0.4)*%
%TF.CreationDate,2022-06-08T19:20:38+01:00*%
%TF.ProjectId,Eiffel - Rev B,45696666-656c-4202-9d20-52657620422e,rev?*%
%TF.SameCoordinates,Original*%
%TF.FileFunction,Legend,Bot*%
%TF.FilePolarity,Positive*%
%FSLAX46Y46*%
G04 Gerber Fmt 4.6, Leading zero omitted, Abs format (unit mm)*
G04 Created by KiCad (PCBNEW (6.0.4)) date 2022-06-08 19:20:38*
%MOMM*%
%LPD*%
G01*
G04 APERTURE LIST*
%TA.AperFunction,Profile*%
%ADD10C,0.100000*%
%TD*%
%ADD11C,0.150000*%
%ADD12C,0.120000*%
G04 APERTURE END LIST*
D10*
X71120000Y-85090000D02*
X96520000Y-69850000D01*
X139700000Y-136070000D02*
X139700000Y-85090000D01*
X71120000Y-85090000D02*
X71120000Y-136070000D01*
X71120000Y-136070000D02*
X138430000Y-136070000D01*
X114300000Y-69850000D02*
X139700000Y-85090000D01*
X138430000Y-136070000D02*
X139700000Y-136070000D01*
X96520000Y-69850000D02*
X114300000Y-69850000D01*
D11*
X134739333Y-133986276D02*
X134501238Y-133986276D01*
X134382190Y-134045800D01*
X134263142Y-134164847D01*
X134203619Y-134402942D01*
X134203619Y-134819609D01*
X134263142Y-135057704D01*
X134382190Y-135176752D01*
X134501238Y-135236276D01*
X134739333Y-135236276D01*
X134858380Y-135176752D01*
X134977428Y-135057704D01*
X135036952Y-134819609D01*
X135036952Y-134402942D01*
X134977428Y-134164847D01*
X134858380Y-134045800D01*
X134739333Y-133986276D01*
X133667904Y-135236276D02*
X133667904Y-134402942D01*
X133667904Y-134641038D02*
X133608380Y-134521990D01*
X133548857Y-134462466D01*
X133429809Y-134402942D01*
X133310761Y-134402942D01*
X132894095Y-135236276D02*
X132894095Y-134402942D01*
X132894095Y-133986276D02*
X132953619Y-134045800D01*
X132894095Y-134105323D01*
X132834571Y-134045800D01*
X132894095Y-133986276D01*
X132894095Y-134105323D01*
X131763142Y-134402942D02*
X131763142Y-135414847D01*
X131822666Y-135533895D01*
X131882190Y-135593419D01*
X132001238Y-135652942D01*
X132179809Y-135652942D01*
X132298857Y-135593419D01*
X131763142Y-135176752D02*
X131882190Y-135236276D01*
X132120285Y-135236276D01*
X132239333Y-135176752D01*
X132298857Y-135117228D01*
X132358380Y-134998180D01*
X132358380Y-134641038D01*
X132298857Y-134521990D01*
X132239333Y-134462466D01*
X132120285Y-134402942D01*
X131882190Y-134402942D01*
X131763142Y-134462466D01*
X131167904Y-135236276D02*
X131167904Y-134402942D01*
X131167904Y-133986276D02*
X131227428Y-134045800D01*
X131167904Y-134105323D01*
X131108380Y-134045800D01*
X131167904Y-133986276D01*
X131167904Y-134105323D01*
X130572666Y-134402942D02*
X130572666Y-135236276D01*
X130572666Y-134521990D02*
X130513142Y-134462466D01*
X130394095Y-134402942D01*
X130215523Y-134402942D01*
X130096476Y-134462466D01*
X130036952Y-134581514D01*
X130036952Y-135236276D01*
X128905999Y-135236276D02*
X128905999Y-134581514D01*
X128965523Y-134462466D01*
X129084571Y-134402942D01*
X129322666Y-134402942D01*
X129441714Y-134462466D01*
X128905999Y-135176752D02*
X129025047Y-135236276D01*
X129322666Y-135236276D01*
X129441714Y-135176752D01*
X129501238Y-135057704D01*
X129501238Y-134938657D01*
X129441714Y-134819609D01*
X129322666Y-134760085D01*
X129025047Y-134760085D01*
X128905999Y-134700561D01*
X128132190Y-135236276D02*
X128251238Y-135176752D01*
X128310761Y-135057704D01*
X128310761Y-133986276D01*
X126703619Y-135236276D02*
X126703619Y-133986276D01*
X126703619Y-134462466D02*
X126584571Y-134402942D01*
X126346476Y-134402942D01*
X126227428Y-134462466D01*
X126167904Y-134521990D01*
X126108380Y-134641038D01*
X126108380Y-134998180D01*
X126167904Y-135117228D01*
X126227428Y-135176752D01*
X126346476Y-135236276D01*
X126584571Y-135236276D01*
X126703619Y-135176752D01*
X125691714Y-134402942D02*
X125394095Y-135236276D01*
X125096476Y-134402942D02*
X125394095Y-135236276D01*
X125513142Y-135533895D01*
X125572666Y-135593419D01*
X125691714Y-135652942D01*
X123667904Y-135236276D02*
X123667904Y-133986276D01*
X123132190Y-135236276D02*
X123132190Y-134581514D01*
X123191714Y-134462466D01*
X123310761Y-134402942D01*
X123489333Y-134402942D01*
X123608380Y-134462466D01*
X123667904Y-134521990D01*
X122715523Y-134402942D02*
X122239333Y-134402942D01*
X122536952Y-133986276D02*
X122536952Y-135057704D01*
X122477428Y-135176752D01*
X122358380Y-135236276D01*
X122239333Y-135236276D01*
X122001238Y-134402942D02*
X121525047Y-134402942D01*
X121822666Y-133986276D02*
X121822666Y-135057704D01*
X121763142Y-135176752D01*
X121644095Y-135236276D01*
X121525047Y-135236276D01*
X121108380Y-134402942D02*
X121108380Y-135652942D01*
X121108380Y-134462466D02*
X120989333Y-134402942D01*
X120751238Y-134402942D01*
X120632190Y-134462466D01*
X120572666Y-134521990D01*
X120513142Y-134641038D01*
X120513142Y-134998180D01*
X120572666Y-135117228D01*
X120632190Y-135176752D01*
X120751238Y-135236276D01*
X120989333Y-135236276D01*
X121108380Y-135176752D01*
X120036952Y-135176752D02*
X119917904Y-135236276D01*
X119679809Y-135236276D01*
X119560761Y-135176752D01*
X119501238Y-135057704D01*
X119501238Y-134998180D01*
X119560761Y-134879133D01*
X119679809Y-134819609D01*
X119858380Y-134819609D01*
X119977428Y-134760085D01*
X120036952Y-134641038D01*
X120036952Y-134581514D01*
X119977428Y-134462466D01*
X119858380Y-134402942D01*
X119679809Y-134402942D01*
X119560761Y-134462466D01*
X118965523Y-135117228D02*
X118905999Y-135176752D01*
X118965523Y-135236276D01*
X119025047Y-135176752D01*
X118965523Y-135117228D01*
X118965523Y-135236276D01*
X118965523Y-134462466D02*
X118905999Y-134521990D01*
X118965523Y-134581514D01*
X119025047Y-134521990D01*
X118965523Y-134462466D01*
X118965523Y-134581514D01*
X117477428Y-133926752D02*
X118548857Y-135533895D01*
X116167904Y-133926752D02*
X117239333Y-135533895D01*
X115215523Y-135236276D02*
X115215523Y-133986276D01*
X115215523Y-135176752D02*
X115334571Y-135236276D01*
X115572666Y-135236276D01*
X115691714Y-135176752D01*
X115751238Y-135117228D01*
X115810761Y-134998180D01*
X115810761Y-134641038D01*
X115751238Y-134521990D01*
X115691714Y-134462466D01*
X115572666Y-134402942D01*
X115334571Y-134402942D01*
X115215523Y-134462466D01*
X114620285Y-135236276D02*
X114620285Y-134402942D01*
X114620285Y-133986276D02*
X114679809Y-134045800D01*
X114620285Y-134105323D01*
X114560761Y-134045800D01*
X114620285Y-133986276D01*
X114620285Y-134105323D01*
X113489333Y-135236276D02*
X113489333Y-133986276D01*
X113489333Y-135176752D02*
X113608380Y-135236276D01*
X113846476Y-135236276D01*
X113965523Y-135176752D01*
X114025047Y-135117228D01*
X114084571Y-134998180D01*
X114084571Y-134641038D01*
X114025047Y-134521990D01*
X113965523Y-134462466D01*
X113846476Y-134402942D01*
X113608380Y-134402942D01*
X113489333Y-134462466D01*
X112894095Y-135236276D02*
X112894095Y-134402942D01*
X112894095Y-133986276D02*
X112953619Y-134045800D01*
X112894095Y-134105323D01*
X112834571Y-134045800D01*
X112894095Y-133986276D01*
X112894095Y-134105323D01*
X111822666Y-135176752D02*
X111941714Y-135236276D01*
X112179809Y-135236276D01*
X112298857Y-135176752D01*
X112358380Y-135057704D01*
X112358380Y-134581514D01*
X112298857Y-134462466D01*
X112179809Y-134402942D01*
X111941714Y-134402942D01*
X111822666Y-134462466D01*
X111763142Y-134581514D01*
X111763142Y-134700561D01*
X112358380Y-134819609D01*
X111227428Y-135236276D02*
X111227428Y-134402942D01*
X111227428Y-134641038D02*
X111167904Y-134521990D01*
X111108380Y-134462466D01*
X110989333Y-134402942D01*
X110870285Y-134402942D01*
X110453619Y-135236276D02*
X110453619Y-134402942D01*
X110453619Y-134521990D02*
X110394095Y-134462466D01*
X110275047Y-134402942D01*
X110096476Y-134402942D01*
X109977428Y-134462466D01*
X109917904Y-134581514D01*
X109917904Y-135236276D01*
X109917904Y-134581514D02*
X109858380Y-134462466D01*
X109739333Y-134402942D01*
X109560761Y-134402942D01*
X109441714Y-134462466D01*
X109382190Y-134581514D01*
X109382190Y-135236276D01*
X108786952Y-135117228D02*
X108727428Y-135176752D01*
X108786952Y-135236276D01*
X108846476Y-135176752D01*
X108786952Y-135117228D01*
X108786952Y-135236276D01*
X108191714Y-134402942D02*
X108191714Y-135652942D01*
X108191714Y-134462466D02*
X108072666Y-134402942D01*
X107834571Y-134402942D01*
X107715523Y-134462466D01*
X107655999Y-134521990D01*
X107596476Y-134641038D01*
X107596476Y-134998180D01*
X107655999Y-135117228D01*
X107715523Y-135176752D01*
X107834571Y-135236276D01*
X108072666Y-135236276D01*
X108191714Y-135176752D01*
X106525047Y-135236276D02*
X106525047Y-134581514D01*
X106584571Y-134462466D01*
X106703619Y-134402942D01*
X106941714Y-134402942D01*
X107060761Y-134462466D01*
X106525047Y-135176752D02*
X106644095Y-135236276D01*
X106941714Y-135236276D01*
X107060761Y-135176752D01*
X107120285Y-135057704D01*
X107120285Y-134938657D01*
X107060761Y-134819609D01*
X106941714Y-134760085D01*
X106644095Y-134760085D01*
X106525047Y-134700561D01*
X105394095Y-134402942D02*
X105394095Y-135414847D01*
X105453619Y-135533895D01*
X105513142Y-135593419D01*
X105632190Y-135652942D01*
X105810761Y-135652942D01*
X105929809Y-135593419D01*
X105394095Y-135176752D02*
X105513142Y-135236276D01*
X105751238Y-135236276D01*
X105870285Y-135176752D01*
X105929809Y-135117228D01*
X105989333Y-134998180D01*
X105989333Y-134641038D01*
X105929809Y-134521990D01*
X105870285Y-134462466D01*
X105751238Y-134402942D01*
X105513142Y-134402942D01*
X105394095Y-134462466D01*
X104322666Y-135176752D02*
X104441714Y-135236276D01*
X104679809Y-135236276D01*
X104798857Y-135176752D01*
X104858380Y-135057704D01*
X104858380Y-134581514D01*
X104798857Y-134462466D01*
X104679809Y-134402942D01*
X104441714Y-134402942D01*
X104322666Y-134462466D01*
X104263142Y-134581514D01*
X104263142Y-134700561D01*
X104858380Y-134819609D01*
X103786952Y-135176752D02*
X103667904Y-135236276D01*
X103429809Y-135236276D01*
X103310761Y-135176752D01*
X103251238Y-135057704D01*
X103251238Y-134998180D01*
X103310761Y-134879133D01*
X103429809Y-134819609D01*
X103608380Y-134819609D01*
X103727428Y-134760085D01*
X103786952Y-134641038D01*
X103786952Y-134581514D01*
X103727428Y-134462466D01*
X103608380Y-134402942D01*
X103429809Y-134402942D01*
X103310761Y-134462466D01*
X102715523Y-134402942D02*
X102715523Y-135652942D01*
X102715523Y-134462466D02*
X102596476Y-134402942D01*
X102358380Y-134402942D01*
X102239333Y-134462466D01*
X102179809Y-134521990D01*
X102120285Y-134641038D01*
X102120285Y-134998180D01*
X102179809Y-135117228D01*
X102239333Y-135176752D01*
X102358380Y-135236276D01*
X102596476Y-135236276D01*
X102715523Y-135176752D01*
X101108380Y-135176752D02*
X101227428Y-135236276D01*
X101465523Y-135236276D01*
X101584571Y-135176752D01*
X101644095Y-135057704D01*
X101644095Y-134581514D01*
X101584571Y-134462466D01*
X101465523Y-134402942D01*
X101227428Y-134402942D01*
X101108380Y-134462466D01*
X101048857Y-134581514D01*
X101048857Y-134700561D01*
X101644095Y-134819609D01*
X100513142Y-135236276D02*
X100513142Y-134402942D01*
X100513142Y-134641038D02*
X100453619Y-134521990D01*
X100394095Y-134462466D01*
X100275047Y-134402942D01*
X100155999Y-134402942D01*
X99798857Y-135176752D02*
X99679809Y-135236276D01*
X99441714Y-135236276D01*
X99322666Y-135176752D01*
X99263142Y-135057704D01*
X99263142Y-134998180D01*
X99322666Y-134879133D01*
X99441714Y-134819609D01*
X99620285Y-134819609D01*
X99739333Y-134760085D01*
X99798857Y-134641038D01*
X99798857Y-134581514D01*
X99739333Y-134462466D01*
X99620285Y-134402942D01*
X99441714Y-134402942D01*
X99322666Y-134462466D01*
X98548857Y-135236276D02*
X98667904Y-135176752D01*
X98727428Y-135117228D01*
X98786952Y-134998180D01*
X98786952Y-134641038D01*
X98727428Y-134521990D01*
X98667904Y-134462466D01*
X98548857Y-134402942D01*
X98370285Y-134402942D01*
X98251238Y-134462466D01*
X98191714Y-134521990D01*
X98132190Y-134641038D01*
X98132190Y-134998180D01*
X98191714Y-135117228D01*
X98251238Y-135176752D01*
X98370285Y-135236276D01*
X98548857Y-135236276D01*
X97596476Y-134760085D02*
X96644095Y-134760085D01*
X95870285Y-135236276D02*
X95989333Y-135176752D01*
X96048857Y-135117228D01*
X96108380Y-134998180D01*
X96108380Y-134641038D01*
X96048857Y-134521990D01*
X95989333Y-134462466D01*
X95870285Y-134402942D01*
X95691714Y-134402942D01*
X95572666Y-134462466D01*
X95513142Y-134521990D01*
X95453619Y-134641038D01*
X95453619Y-134998180D01*
X95513142Y-135117228D01*
X95572666Y-135176752D01*
X95691714Y-135236276D01*
X95870285Y-135236276D01*
X94917904Y-135236276D02*
X94917904Y-134402942D01*
X94917904Y-134641038D02*
X94858380Y-134521990D01*
X94798857Y-134462466D01*
X94679809Y-134402942D01*
X94560761Y-134402942D01*
X93608380Y-135236276D02*
X93608380Y-134581514D01*
X93667904Y-134462466D01*
X93786952Y-134402942D01*
X94025047Y-134402942D01*
X94144095Y-134462466D01*
X93608380Y-135176752D02*
X93727428Y-135236276D01*
X94025047Y-135236276D01*
X94144095Y-135176752D01*
X94203619Y-135057704D01*
X94203619Y-134938657D01*
X94144095Y-134819609D01*
X94025047Y-134760085D01*
X93727428Y-134760085D01*
X93608380Y-134700561D01*
X93013142Y-134402942D02*
X93013142Y-135236276D01*
X93013142Y-134521990D02*
X92953619Y-134462466D01*
X92834571Y-134402942D01*
X92655999Y-134402942D01*
X92536952Y-134462466D01*
X92477428Y-134581514D01*
X92477428Y-135236276D01*
X91346476Y-134402942D02*
X91346476Y-135414847D01*
X91405999Y-135533895D01*
X91465523Y-135593419D01*
X91584571Y-135652942D01*
X91763142Y-135652942D01*
X91882190Y-135593419D01*
X91346476Y-135176752D02*
X91465523Y-135236276D01*
X91703619Y-135236276D01*
X91822666Y-135176752D01*
X91882190Y-135117228D01*
X91941714Y-134998180D01*
X91941714Y-134641038D01*
X91882190Y-134521990D01*
X91822666Y-134462466D01*
X91703619Y-134402942D01*
X91465523Y-134402942D01*
X91346476Y-134462466D01*
X90275047Y-135176752D02*
X90394095Y-135236276D01*
X90632190Y-135236276D01*
X90751238Y-135176752D01*
X90810761Y-135057704D01*
X90810761Y-134581514D01*
X90751238Y-134462466D01*
X90632190Y-134402942D01*
X90394095Y-134402942D01*
X90275047Y-134462466D01*
X90215523Y-134581514D01*
X90215523Y-134700561D01*
X90810761Y-134819609D01*
X89679809Y-135117228D02*
X89620285Y-135176752D01*
X89679809Y-135236276D01*
X89739333Y-135176752D01*
X89679809Y-135117228D01*
X89679809Y-135236276D01*
X89263142Y-134402942D02*
X88786952Y-134402942D01*
X89084571Y-135236276D02*
X89084571Y-134164847D01*
X89025047Y-134045800D01*
X88905999Y-133986276D01*
X88786952Y-133986276D01*
X88370285Y-135236276D02*
X88370285Y-134402942D01*
X88370285Y-134641038D02*
X88310761Y-134521990D01*
X88251238Y-134462466D01*
X88132190Y-134402942D01*
X88013142Y-134402942D01*
X86703619Y-133926752D02*
X87775047Y-135533895D01*
X85810761Y-135176752D02*
X85929809Y-135236276D01*
X86167904Y-135236276D01*
X86286952Y-135176752D01*
X86346476Y-135057704D01*
X86346476Y-134581514D01*
X86286952Y-134462466D01*
X86167904Y-134402942D01*
X85929809Y-134402942D01*
X85810761Y-134462466D01*
X85751238Y-134581514D01*
X85751238Y-134700561D01*
X86346476Y-134819609D01*
X85215523Y-135236276D02*
X85215523Y-134402942D01*
X85215523Y-133986276D02*
X85275047Y-134045800D01*
X85215523Y-134105323D01*
X85155999Y-134045800D01*
X85215523Y-133986276D01*
X85215523Y-134105323D01*
X84798857Y-134402942D02*
X84322666Y-134402942D01*
X84620285Y-135236276D02*
X84620285Y-134164847D01*
X84560761Y-134045800D01*
X84441714Y-133986276D01*
X84322666Y-133986276D01*
X84084571Y-134402942D02*
X83608380Y-134402942D01*
X83905999Y-135236276D02*
X83905999Y-134164847D01*
X83846476Y-134045800D01*
X83727428Y-133986276D01*
X83608380Y-133986276D01*
X82715523Y-135176752D02*
X82834571Y-135236276D01*
X83072666Y-135236276D01*
X83191714Y-135176752D01*
X83251238Y-135057704D01*
X83251238Y-134581514D01*
X83191714Y-134462466D01*
X83072666Y-134402942D01*
X82834571Y-134402942D01*
X82715523Y-134462466D01*
X82655999Y-134581514D01*
X82655999Y-134700561D01*
X83251238Y-134819609D01*
X81941714Y-135236276D02*
X82060761Y-135176752D01*
X82120285Y-135057704D01*
X82120285Y-133986276D01*
X81465523Y-134760085D02*
X80513142Y-134760085D01*
X79441714Y-135176752D02*
X79560761Y-135236276D01*
X79798857Y-135236276D01*
X79917904Y-135176752D01*
X79977428Y-135057704D01*
X79977428Y-134581514D01*
X79917904Y-134462466D01*
X79798857Y-134402942D01*
X79560761Y-134402942D01*
X79441714Y-134462466D01*
X79382190Y-134581514D01*
X79382190Y-134700561D01*
X79977428Y-134819609D01*
X78846476Y-135117228D02*
X78786952Y-135176752D01*
X78846476Y-135236276D01*
X78905999Y-135176752D01*
X78846476Y-135117228D01*
X78846476Y-135236276D01*
X78251238Y-135236276D02*
X78251238Y-133986276D01*
X77715523Y-135236276D02*
X77715523Y-134581514D01*
X77775047Y-134462466D01*
X77894095Y-134402942D01*
X78072666Y-134402942D01*
X78191714Y-134462466D01*
X78251238Y-134521990D01*
X77298857Y-134402942D02*
X76822666Y-134402942D01*
X77120285Y-133986276D02*
X77120285Y-135057704D01*
X77060761Y-135176752D01*
X76941714Y-135236276D01*
X76822666Y-135236276D01*
X76405999Y-135236276D02*
X76405999Y-134402942D01*
X76405999Y-134521990D02*
X76346476Y-134462466D01*
X76227428Y-134402942D01*
X76048857Y-134402942D01*
X75929809Y-134462466D01*
X75870285Y-134581514D01*
X75870285Y-135236276D01*
X75870285Y-134581514D02*
X75810761Y-134462466D01*
X75691714Y-134402942D01*
X75513142Y-134402942D01*
X75394095Y-134462466D01*
X75334571Y-134581514D01*
X75334571Y-135236276D01*
%TO.C,R9*%
X116938866Y-90242380D02*
X117272200Y-89766190D01*
X117510295Y-90242380D02*
X117510295Y-89242380D01*
X117129342Y-89242380D01*
X117034104Y-89290000D01*
X116986485Y-89337619D01*
X116938866Y-89432857D01*
X116938866Y-89575714D01*
X116986485Y-89670952D01*
X117034104Y-89718571D01*
X117129342Y-89766190D01*
X117510295Y-89766190D01*
X116462676Y-90242380D02*
X116272200Y-90242380D01*
X116176961Y-90194761D01*
X116129342Y-90147142D01*
X116034104Y-90004285D01*
X115986485Y-89813809D01*
X115986485Y-89432857D01*
X116034104Y-89337619D01*
X116081723Y-89290000D01*
X116176961Y-89242380D01*
X116367438Y-89242380D01*
X116462676Y-89290000D01*
X116510295Y-89337619D01*
X116557914Y-89432857D01*
X116557914Y-89670952D01*
X116510295Y-89766190D01*
X116462676Y-89813809D01*
X116367438Y-89861428D01*
X116176961Y-89861428D01*
X116081723Y-89813809D01*
X116034104Y-89766190D01*
X115986485Y-89670952D01*
%TO.C,R17*%
X89542857Y-90252380D02*
X89876190Y-89776190D01*
X90114285Y-90252380D02*
X90114285Y-89252380D01*
X89733333Y-89252380D01*
X89638095Y-89300000D01*
X89590476Y-89347619D01*
X89542857Y-89442857D01*
X89542857Y-89585714D01*
X89590476Y-89680952D01*
X89638095Y-89728571D01*
X89733333Y-89776190D01*
X90114285Y-89776190D01*
X88590476Y-90252380D02*
X89161904Y-90252380D01*
X88876190Y-90252380D02*
X88876190Y-89252380D01*
X88971428Y-89395238D01*
X89066666Y-89490476D01*
X89161904Y-89538095D01*
X88257142Y-89252380D02*
X87590476Y-89252380D01*
X88019047Y-90252380D01*
%TO.C,R13*%
X117125357Y-110562380D02*
X117458690Y-110086190D01*
X117696785Y-110562380D02*
X117696785Y-109562380D01*
X117315833Y-109562380D01*
X117220595Y-109610000D01*
X117172976Y-109657619D01*
X117125357Y-109752857D01*
X117125357Y-109895714D01*
X117172976Y-109990952D01*
X117220595Y-110038571D01*
X117315833Y-110086190D01*
X117696785Y-110086190D01*
X116172976Y-110562380D02*
X116744404Y-110562380D01*
X116458690Y-110562380D02*
X116458690Y-109562380D01*
X116553928Y-109705238D01*
X116649166Y-109800476D01*
X116744404Y-109848095D01*
X115839642Y-109562380D02*
X115220595Y-109562380D01*
X115553928Y-109943333D01*
X115411071Y-109943333D01*
X115315833Y-109990952D01*
X115268214Y-110038571D01*
X115220595Y-110133809D01*
X115220595Y-110371904D01*
X115268214Y-110467142D01*
X115315833Y-110514761D01*
X115411071Y-110562380D01*
X115696785Y-110562380D01*
X115792023Y-110514761D01*
X115839642Y-110467142D01*
%TO.C,R20*%
X94622857Y-100402380D02*
X94956190Y-99926190D01*
X95194285Y-100402380D02*
X95194285Y-99402380D01*
X94813333Y-99402380D01*
X94718095Y-99450000D01*
X94670476Y-99497619D01*
X94622857Y-99592857D01*
X94622857Y-99735714D01*
X94670476Y-99830952D01*
X94718095Y-99878571D01*
X94813333Y-99926190D01*
X95194285Y-99926190D01*
X94241904Y-99497619D02*
X94194285Y-99450000D01*
X94099047Y-99402380D01*
X93860952Y-99402380D01*
X93765714Y-99450000D01*
X93718095Y-99497619D01*
X93670476Y-99592857D01*
X93670476Y-99688095D01*
X93718095Y-99830952D01*
X94289523Y-100402380D01*
X93670476Y-100402380D01*
X93051428Y-99402380D02*
X92956190Y-99402380D01*
X92860952Y-99450000D01*
X92813333Y-99497619D01*
X92765714Y-99592857D01*
X92718095Y-99783333D01*
X92718095Y-100021428D01*
X92765714Y-100211904D01*
X92813333Y-100307142D01*
X92860952Y-100354761D01*
X92956190Y-100402380D01*
X93051428Y-100402380D01*
X93146666Y-100354761D01*
X93194285Y-100307142D01*
X93241904Y-100211904D01*
X93289523Y-100021428D01*
X93289523Y-99783333D01*
X93241904Y-99592857D01*
X93194285Y-99497619D01*
X93146666Y-99450000D01*
X93051428Y-99402380D01*
%TO.C,R4*%
X121766666Y-105552380D02*
X122100000Y-105076190D01*
X122338095Y-105552380D02*
X122338095Y-104552380D01*
X121957142Y-104552380D01*
X121861904Y-104600000D01*
X121814285Y-104647619D01*
X121766666Y-104742857D01*
X121766666Y-104885714D01*
X121814285Y-104980952D01*
X121861904Y-105028571D01*
X121957142Y-105076190D01*
X122338095Y-105076190D01*
X120909523Y-104885714D02*
X120909523Y-105552380D01*
X121147619Y-104504761D02*
X121385714Y-105219047D01*
X120766666Y-105219047D01*
%TO.C,R3*%
X95774166Y-82652380D02*
X96107500Y-82176190D01*
X96345595Y-82652380D02*
X96345595Y-81652380D01*
X95964642Y-81652380D01*
X95869404Y-81700000D01*
X95821785Y-81747619D01*
X95774166Y-81842857D01*
X95774166Y-81985714D01*
X95821785Y-82080952D01*
X95869404Y-82128571D01*
X95964642Y-82176190D01*
X96345595Y-82176190D01*
X95440833Y-81652380D02*
X94821785Y-81652380D01*
X95155119Y-82033333D01*
X95012261Y-82033333D01*
X94917023Y-82080952D01*
X94869404Y-82128571D01*
X94821785Y-82223809D01*
X94821785Y-82461904D01*
X94869404Y-82557142D01*
X94917023Y-82604761D01*
X95012261Y-82652380D01*
X95297976Y-82652380D01*
X95393214Y-82604761D01*
X95440833Y-82557142D01*
%TO.C,R25*%
X89542857Y-110552380D02*
X89876190Y-110076190D01*
X90114285Y-110552380D02*
X90114285Y-109552380D01*
X89733333Y-109552380D01*
X89638095Y-109600000D01*
X89590476Y-109647619D01*
X89542857Y-109742857D01*
X89542857Y-109885714D01*
X89590476Y-109980952D01*
X89638095Y-110028571D01*
X89733333Y-110076190D01*
X90114285Y-110076190D01*
X89161904Y-109647619D02*
X89114285Y-109600000D01*
X89019047Y-109552380D01*
X88780952Y-109552380D01*
X88685714Y-109600000D01*
X88638095Y-109647619D01*
X88590476Y-109742857D01*
X88590476Y-109838095D01*
X88638095Y-109980952D01*
X89209523Y-110552380D01*
X88590476Y-110552380D01*
X87685714Y-109552380D02*
X88161904Y-109552380D01*
X88209523Y-110028571D01*
X88161904Y-109980952D01*
X88066666Y-109933333D01*
X87828571Y-109933333D01*
X87733333Y-109980952D01*
X87685714Y-110028571D01*
X87638095Y-110123809D01*
X87638095Y-110361904D01*
X87685714Y-110457142D01*
X87733333Y-110504761D01*
X87828571Y-110552380D01*
X88066666Y-110552380D01*
X88161904Y-110504761D01*
X88209523Y-110457142D01*
%TO.C,R18*%
X94622857Y-95322380D02*
X94956190Y-94846190D01*
X95194285Y-95322380D02*
X95194285Y-94322380D01*
X94813333Y-94322380D01*
X94718095Y-94370000D01*
X94670476Y-94417619D01*
X94622857Y-94512857D01*
X94622857Y-94655714D01*
X94670476Y-94750952D01*
X94718095Y-94798571D01*
X94813333Y-94846190D01*
X95194285Y-94846190D01*
X93670476Y-95322380D02*
X94241904Y-95322380D01*
X93956190Y-95322380D02*
X93956190Y-94322380D01*
X94051428Y-94465238D01*
X94146666Y-94560476D01*
X94241904Y-94608095D01*
X93099047Y-94750952D02*
X93194285Y-94703333D01*
X93241904Y-94655714D01*
X93289523Y-94560476D01*
X93289523Y-94512857D01*
X93241904Y-94417619D01*
X93194285Y-94370000D01*
X93099047Y-94322380D01*
X92908571Y-94322380D01*
X92813333Y-94370000D01*
X92765714Y-94417619D01*
X92718095Y-94512857D01*
X92718095Y-94560476D01*
X92765714Y-94655714D01*
X92813333Y-94703333D01*
X92908571Y-94750952D01*
X93099047Y-94750952D01*
X93194285Y-94798571D01*
X93241904Y-94846190D01*
X93289523Y-94941428D01*
X93289523Y-95131904D01*
X93241904Y-95227142D01*
X93194285Y-95274761D01*
X93099047Y-95322380D01*
X92908571Y-95322380D01*
X92813333Y-95274761D01*
X92765714Y-95227142D01*
X92718095Y-95131904D01*
X92718095Y-94941428D01*
X92765714Y-94846190D01*
X92813333Y-94798571D01*
X92908571Y-94750952D01*
%TO.C,R14*%
X92652380Y-116157142D02*
X92176190Y-115823809D01*
X92652380Y-115585714D02*
X91652380Y-115585714D01*
X91652380Y-115966666D01*
X91700000Y-116061904D01*
X91747619Y-116109523D01*
X91842857Y-116157142D01*
X91985714Y-116157142D01*
X92080952Y-116109523D01*
X92128571Y-116061904D01*
X92176190Y-115966666D01*
X92176190Y-115585714D01*
X92652380Y-117109523D02*
X92652380Y-116538095D01*
X92652380Y-116823809D02*
X91652380Y-116823809D01*
X91795238Y-116728571D01*
X91890476Y-116633333D01*
X91938095Y-116538095D01*
X91985714Y-117966666D02*
X92652380Y-117966666D01*
X91604761Y-117728571D02*
X92319047Y-117490476D01*
X92319047Y-118109523D01*
%TO.C,R23*%
X89642857Y-105552380D02*
X89976190Y-105076190D01*
X90214285Y-105552380D02*
X90214285Y-104552380D01*
X89833333Y-104552380D01*
X89738095Y-104600000D01*
X89690476Y-104647619D01*
X89642857Y-104742857D01*
X89642857Y-104885714D01*
X89690476Y-104980952D01*
X89738095Y-105028571D01*
X89833333Y-105076190D01*
X90214285Y-105076190D01*
X89261904Y-104647619D02*
X89214285Y-104600000D01*
X89119047Y-104552380D01*
X88880952Y-104552380D01*
X88785714Y-104600000D01*
X88738095Y-104647619D01*
X88690476Y-104742857D01*
X88690476Y-104838095D01*
X88738095Y-104980952D01*
X89309523Y-105552380D01*
X88690476Y-105552380D01*
X88357142Y-104552380D02*
X87738095Y-104552380D01*
X88071428Y-104933333D01*
X87928571Y-104933333D01*
X87833333Y-104980952D01*
X87785714Y-105028571D01*
X87738095Y-105123809D01*
X87738095Y-105361904D01*
X87785714Y-105457142D01*
X87833333Y-105504761D01*
X87928571Y-105552380D01*
X88214285Y-105552380D01*
X88309523Y-105504761D01*
X88357142Y-105457142D01*
%TO.C,R27*%
X134182380Y-120007142D02*
X133706190Y-119673809D01*
X134182380Y-119435714D02*
X133182380Y-119435714D01*
X133182380Y-119816666D01*
X133230000Y-119911904D01*
X133277619Y-119959523D01*
X133372857Y-120007142D01*
X133515714Y-120007142D01*
X133610952Y-119959523D01*
X133658571Y-119911904D01*
X133706190Y-119816666D01*
X133706190Y-119435714D01*
X133277619Y-120388095D02*
X133230000Y-120435714D01*
X133182380Y-120530952D01*
X133182380Y-120769047D01*
X133230000Y-120864285D01*
X133277619Y-120911904D01*
X133372857Y-120959523D01*
X133468095Y-120959523D01*
X133610952Y-120911904D01*
X134182380Y-120340476D01*
X134182380Y-120959523D01*
X133182380Y-121292857D02*
X133182380Y-121959523D01*
X134182380Y-121530952D01*
%TO.C,R7*%
X121666666Y-95352380D02*
X122000000Y-94876190D01*
X122238095Y-95352380D02*
X122238095Y-94352380D01*
X121857142Y-94352380D01*
X121761904Y-94400000D01*
X121714285Y-94447619D01*
X121666666Y-94542857D01*
X121666666Y-94685714D01*
X121714285Y-94780952D01*
X121761904Y-94828571D01*
X121857142Y-94876190D01*
X122238095Y-94876190D01*
X121333333Y-94352380D02*
X120666666Y-94352380D01*
X121095238Y-95352380D01*
%TO.C,R26*%
X129102380Y-120007142D02*
X128626190Y-119673809D01*
X129102380Y-119435714D02*
X128102380Y-119435714D01*
X128102380Y-119816666D01*
X128150000Y-119911904D01*
X128197619Y-119959523D01*
X128292857Y-120007142D01*
X128435714Y-120007142D01*
X128530952Y-119959523D01*
X128578571Y-119911904D01*
X128626190Y-119816666D01*
X128626190Y-119435714D01*
X128197619Y-120388095D02*
X128150000Y-120435714D01*
X128102380Y-120530952D01*
X128102380Y-120769047D01*
X128150000Y-120864285D01*
X128197619Y-120911904D01*
X128292857Y-120959523D01*
X128388095Y-120959523D01*
X128530952Y-120911904D01*
X129102380Y-120340476D01*
X129102380Y-120959523D01*
X128102380Y-121816666D02*
X128102380Y-121626190D01*
X128150000Y-121530952D01*
X128197619Y-121483333D01*
X128340476Y-121388095D01*
X128530952Y-121340476D01*
X128911904Y-121340476D01*
X129007142Y-121388095D01*
X129054761Y-121435714D01*
X129102380Y-121530952D01*
X129102380Y-121721428D01*
X129054761Y-121816666D01*
X129007142Y-121864285D01*
X128911904Y-121911904D01*
X128673809Y-121911904D01*
X128578571Y-121864285D01*
X128530952Y-121816666D01*
X128483333Y-121721428D01*
X128483333Y-121530952D01*
X128530952Y-121435714D01*
X128578571Y-121388095D01*
X128673809Y-121340476D01*
%TO.C,R21*%
X89642857Y-100452380D02*
X89976190Y-99976190D01*
X90214285Y-100452380D02*
X90214285Y-99452380D01*
X89833333Y-99452380D01*
X89738095Y-99500000D01*
X89690476Y-99547619D01*
X89642857Y-99642857D01*
X89642857Y-99785714D01*
X89690476Y-99880952D01*
X89738095Y-99928571D01*
X89833333Y-99976190D01*
X90214285Y-99976190D01*
X89261904Y-99547619D02*
X89214285Y-99500000D01*
X89119047Y-99452380D01*
X88880952Y-99452380D01*
X88785714Y-99500000D01*
X88738095Y-99547619D01*
X88690476Y-99642857D01*
X88690476Y-99738095D01*
X88738095Y-99880952D01*
X89309523Y-100452380D01*
X88690476Y-100452380D01*
X87738095Y-100452380D02*
X88309523Y-100452380D01*
X88023809Y-100452380D02*
X88023809Y-99452380D01*
X88119047Y-99595238D01*
X88214285Y-99690476D01*
X88309523Y-99738095D01*
%TO.C,R29*%
X80842380Y-120007142D02*
X80366190Y-119673809D01*
X80842380Y-119435714D02*
X79842380Y-119435714D01*
X79842380Y-119816666D01*
X79890000Y-119911904D01*
X79937619Y-119959523D01*
X80032857Y-120007142D01*
X80175714Y-120007142D01*
X80270952Y-119959523D01*
X80318571Y-119911904D01*
X80366190Y-119816666D01*
X80366190Y-119435714D01*
X79937619Y-120388095D02*
X79890000Y-120435714D01*
X79842380Y-120530952D01*
X79842380Y-120769047D01*
X79890000Y-120864285D01*
X79937619Y-120911904D01*
X80032857Y-120959523D01*
X80128095Y-120959523D01*
X80270952Y-120911904D01*
X80842380Y-120340476D01*
X80842380Y-120959523D01*
X80842380Y-121435714D02*
X80842380Y-121626190D01*
X80794761Y-121721428D01*
X80747142Y-121769047D01*
X80604285Y-121864285D01*
X80413809Y-121911904D01*
X80032857Y-121911904D01*
X79937619Y-121864285D01*
X79890000Y-121816666D01*
X79842380Y-121721428D01*
X79842380Y-121530952D01*
X79890000Y-121435714D01*
X79937619Y-121388095D01*
X80032857Y-121340476D01*
X80270952Y-121340476D01*
X80366190Y-121388095D01*
X80413809Y-121435714D01*
X80461428Y-121530952D01*
X80461428Y-121721428D01*
X80413809Y-121816666D01*
X80366190Y-121864285D01*
X80270952Y-121911904D01*
%TO.C,R28*%
X85922380Y-120007142D02*
X85446190Y-119673809D01*
X85922380Y-119435714D02*
X84922380Y-119435714D01*
X84922380Y-119816666D01*
X84970000Y-119911904D01*
X85017619Y-119959523D01*
X85112857Y-120007142D01*
X85255714Y-120007142D01*
X85350952Y-119959523D01*
X85398571Y-119911904D01*
X85446190Y-119816666D01*
X85446190Y-119435714D01*
X85017619Y-120388095D02*
X84970000Y-120435714D01*
X84922380Y-120530952D01*
X84922380Y-120769047D01*
X84970000Y-120864285D01*
X85017619Y-120911904D01*
X85112857Y-120959523D01*
X85208095Y-120959523D01*
X85350952Y-120911904D01*
X85922380Y-120340476D01*
X85922380Y-120959523D01*
X85350952Y-121530952D02*
X85303333Y-121435714D01*
X85255714Y-121388095D01*
X85160476Y-121340476D01*
X85112857Y-121340476D01*
X85017619Y-121388095D01*
X84970000Y-121435714D01*
X84922380Y-121530952D01*
X84922380Y-121721428D01*
X84970000Y-121816666D01*
X85017619Y-121864285D01*
X85112857Y-121911904D01*
X85160476Y-121911904D01*
X85255714Y-121864285D01*
X85303333Y-121816666D01*
X85350952Y-121721428D01*
X85350952Y-121530952D01*
X85398571Y-121435714D01*
X85446190Y-121388095D01*
X85541428Y-121340476D01*
X85731904Y-121340476D01*
X85827142Y-121388095D01*
X85874761Y-121435714D01*
X85922380Y-121530952D01*
X85922380Y-121721428D01*
X85874761Y-121816666D01*
X85827142Y-121864285D01*
X85731904Y-121911904D01*
X85541428Y-121911904D01*
X85446190Y-121864285D01*
X85398571Y-121816666D01*
X85350952Y-121721428D01*
%TO.C,R12*%
X117442857Y-100352380D02*
X117776190Y-99876190D01*
X118014285Y-100352380D02*
X118014285Y-99352380D01*
X117633333Y-99352380D01*
X117538095Y-99400000D01*
X117490476Y-99447619D01*
X117442857Y-99542857D01*
X117442857Y-99685714D01*
X117490476Y-99780952D01*
X117538095Y-99828571D01*
X117633333Y-99876190D01*
X118014285Y-99876190D01*
X116490476Y-100352380D02*
X117061904Y-100352380D01*
X116776190Y-100352380D02*
X116776190Y-99352380D01*
X116871428Y-99495238D01*
X116966666Y-99590476D01*
X117061904Y-99638095D01*
X116109523Y-99447619D02*
X116061904Y-99400000D01*
X115966666Y-99352380D01*
X115728571Y-99352380D01*
X115633333Y-99400000D01*
X115585714Y-99447619D01*
X115538095Y-99542857D01*
X115538095Y-99638095D01*
X115585714Y-99780952D01*
X116157142Y-100352380D01*
X115538095Y-100352380D01*
%TO.C,R10*%
X117442857Y-95452380D02*
X117776190Y-94976190D01*
X118014285Y-95452380D02*
X118014285Y-94452380D01*
X117633333Y-94452380D01*
X117538095Y-94500000D01*
X117490476Y-94547619D01*
X117442857Y-94642857D01*
X117442857Y-94785714D01*
X117490476Y-94880952D01*
X117538095Y-94928571D01*
X117633333Y-94976190D01*
X118014285Y-94976190D01*
X116490476Y-95452380D02*
X117061904Y-95452380D01*
X116776190Y-95452380D02*
X116776190Y-94452380D01*
X116871428Y-94595238D01*
X116966666Y-94690476D01*
X117061904Y-94738095D01*
X115871428Y-94452380D02*
X115776190Y-94452380D01*
X115680952Y-94500000D01*
X115633333Y-94547619D01*
X115585714Y-94642857D01*
X115538095Y-94833333D01*
X115538095Y-95071428D01*
X115585714Y-95261904D01*
X115633333Y-95357142D01*
X115680952Y-95404761D01*
X115776190Y-95452380D01*
X115871428Y-95452380D01*
X115966666Y-95404761D01*
X116014285Y-95357142D01*
X116061904Y-95261904D01*
X116109523Y-95071428D01*
X116109523Y-94833333D01*
X116061904Y-94642857D01*
X116014285Y-94547619D01*
X115966666Y-94500000D01*
X115871428Y-94452380D01*
%TO.C,R15*%
X87352380Y-116157142D02*
X86876190Y-115823809D01*
X87352380Y-115585714D02*
X86352380Y-115585714D01*
X86352380Y-115966666D01*
X86400000Y-116061904D01*
X86447619Y-116109523D01*
X86542857Y-116157142D01*
X86685714Y-116157142D01*
X86780952Y-116109523D01*
X86828571Y-116061904D01*
X86876190Y-115966666D01*
X86876190Y-115585714D01*
X87352380Y-117109523D02*
X87352380Y-116538095D01*
X87352380Y-116823809D02*
X86352380Y-116823809D01*
X86495238Y-116728571D01*
X86590476Y-116633333D01*
X86638095Y-116538095D01*
X86352380Y-118014285D02*
X86352380Y-117538095D01*
X86828571Y-117490476D01*
X86780952Y-117538095D01*
X86733333Y-117633333D01*
X86733333Y-117871428D01*
X86780952Y-117966666D01*
X86828571Y-118014285D01*
X86923809Y-118061904D01*
X87161904Y-118061904D01*
X87257142Y-118014285D01*
X87304761Y-117966666D01*
X87352380Y-117871428D01*
X87352380Y-117633333D01*
X87304761Y-117538095D01*
X87257142Y-117490476D01*
%TO.C,R8*%
X121566666Y-90252380D02*
X121900000Y-89776190D01*
X122138095Y-90252380D02*
X122138095Y-89252380D01*
X121757142Y-89252380D01*
X121661904Y-89300000D01*
X121614285Y-89347619D01*
X121566666Y-89442857D01*
X121566666Y-89585714D01*
X121614285Y-89680952D01*
X121661904Y-89728571D01*
X121757142Y-89776190D01*
X122138095Y-89776190D01*
X120995238Y-89680952D02*
X121090476Y-89633333D01*
X121138095Y-89585714D01*
X121185714Y-89490476D01*
X121185714Y-89442857D01*
X121138095Y-89347619D01*
X121090476Y-89300000D01*
X120995238Y-89252380D01*
X120804761Y-89252380D01*
X120709523Y-89300000D01*
X120661904Y-89347619D01*
X120614285Y-89442857D01*
X120614285Y-89490476D01*
X120661904Y-89585714D01*
X120709523Y-89633333D01*
X120804761Y-89680952D01*
X120995238Y-89680952D01*
X121090476Y-89728571D01*
X121138095Y-89776190D01*
X121185714Y-89871428D01*
X121185714Y-90061904D01*
X121138095Y-90157142D01*
X121090476Y-90204761D01*
X120995238Y-90252380D01*
X120804761Y-90252380D01*
X120709523Y-90204761D01*
X120661904Y-90157142D01*
X120614285Y-90061904D01*
X120614285Y-89871428D01*
X120661904Y-89776190D01*
X120709523Y-89728571D01*
X120804761Y-89680952D01*
%TO.C,R24*%
X94622857Y-110562380D02*
X94956190Y-110086190D01*
X95194285Y-110562380D02*
X95194285Y-109562380D01*
X94813333Y-109562380D01*
X94718095Y-109610000D01*
X94670476Y-109657619D01*
X94622857Y-109752857D01*
X94622857Y-109895714D01*
X94670476Y-109990952D01*
X94718095Y-110038571D01*
X94813333Y-110086190D01*
X95194285Y-110086190D01*
X94241904Y-109657619D02*
X94194285Y-109610000D01*
X94099047Y-109562380D01*
X93860952Y-109562380D01*
X93765714Y-109610000D01*
X93718095Y-109657619D01*
X93670476Y-109752857D01*
X93670476Y-109848095D01*
X93718095Y-109990952D01*
X94289523Y-110562380D01*
X93670476Y-110562380D01*
X92813333Y-109895714D02*
X92813333Y-110562380D01*
X93051428Y-109514761D02*
X93289523Y-110229047D01*
X92670476Y-110229047D01*
%TO.C,R11*%
X117415057Y-105252380D02*
X117748390Y-104776190D01*
X117986485Y-105252380D02*
X117986485Y-104252380D01*
X117605533Y-104252380D01*
X117510295Y-104300000D01*
X117462676Y-104347619D01*
X117415057Y-104442857D01*
X117415057Y-104585714D01*
X117462676Y-104680952D01*
X117510295Y-104728571D01*
X117605533Y-104776190D01*
X117986485Y-104776190D01*
X116462676Y-105252380D02*
X117034104Y-105252380D01*
X116748390Y-105252380D02*
X116748390Y-104252380D01*
X116843628Y-104395238D01*
X116938866Y-104490476D01*
X117034104Y-104538095D01*
X115510295Y-105252380D02*
X116081723Y-105252380D01*
X115796009Y-105252380D02*
X115796009Y-104252380D01*
X115891247Y-104395238D01*
X115986485Y-104490476D01*
X116081723Y-104538095D01*
%TO.C,R22*%
X94622857Y-105482380D02*
X94956190Y-105006190D01*
X95194285Y-105482380D02*
X95194285Y-104482380D01*
X94813333Y-104482380D01*
X94718095Y-104530000D01*
X94670476Y-104577619D01*
X94622857Y-104672857D01*
X94622857Y-104815714D01*
X94670476Y-104910952D01*
X94718095Y-104958571D01*
X94813333Y-105006190D01*
X95194285Y-105006190D01*
X94241904Y-104577619D02*
X94194285Y-104530000D01*
X94099047Y-104482380D01*
X93860952Y-104482380D01*
X93765714Y-104530000D01*
X93718095Y-104577619D01*
X93670476Y-104672857D01*
X93670476Y-104768095D01*
X93718095Y-104910952D01*
X94289523Y-105482380D01*
X93670476Y-105482380D01*
X93289523Y-104577619D02*
X93241904Y-104530000D01*
X93146666Y-104482380D01*
X92908571Y-104482380D01*
X92813333Y-104530000D01*
X92765714Y-104577619D01*
X92718095Y-104672857D01*
X92718095Y-104768095D01*
X92765714Y-104910952D01*
X93337142Y-105482380D01*
X92718095Y-105482380D01*
%TO.C,R6*%
X121729166Y-110562380D02*
X122062500Y-110086190D01*
X122300595Y-110562380D02*
X122300595Y-109562380D01*
X121919642Y-109562380D01*
X121824404Y-109610000D01*
X121776785Y-109657619D01*
X121729166Y-109752857D01*
X121729166Y-109895714D01*
X121776785Y-109990952D01*
X121824404Y-110038571D01*
X121919642Y-110086190D01*
X122300595Y-110086190D01*
X120872023Y-109562380D02*
X121062500Y-109562380D01*
X121157738Y-109610000D01*
X121205357Y-109657619D01*
X121300595Y-109800476D01*
X121348214Y-109990952D01*
X121348214Y-110371904D01*
X121300595Y-110467142D01*
X121252976Y-110514761D01*
X121157738Y-110562380D01*
X120967261Y-110562380D01*
X120872023Y-110514761D01*
X120824404Y-110467142D01*
X120776785Y-110371904D01*
X120776785Y-110133809D01*
X120824404Y-110038571D01*
X120872023Y-109990952D01*
X120967261Y-109943333D01*
X121157738Y-109943333D01*
X121252976Y-109990952D01*
X121300595Y-110038571D01*
X121348214Y-110133809D01*
%TO.C,R5*%
X121866666Y-100352380D02*
X122200000Y-99876190D01*
X122438095Y-100352380D02*
X122438095Y-99352380D01*
X122057142Y-99352380D01*
X121961904Y-99400000D01*
X121914285Y-99447619D01*
X121866666Y-99542857D01*
X121866666Y-99685714D01*
X121914285Y-99780952D01*
X121961904Y-99828571D01*
X122057142Y-99876190D01*
X122438095Y-99876190D01*
X120961904Y-99352380D02*
X121438095Y-99352380D01*
X121485714Y-99828571D01*
X121438095Y-99780952D01*
X121342857Y-99733333D01*
X121104761Y-99733333D01*
X121009523Y-99780952D01*
X120961904Y-99828571D01*
X120914285Y-99923809D01*
X120914285Y-100161904D01*
X120961904Y-100257142D01*
X121009523Y-100304761D01*
X121104761Y-100352380D01*
X121342857Y-100352380D01*
X121438095Y-100304761D01*
X121485714Y-100257142D01*
%TO.C,R19*%
X89642857Y-95452380D02*
X89976190Y-94976190D01*
X90214285Y-95452380D02*
X90214285Y-94452380D01*
X89833333Y-94452380D01*
X89738095Y-94500000D01*
X89690476Y-94547619D01*
X89642857Y-94642857D01*
X89642857Y-94785714D01*
X89690476Y-94880952D01*
X89738095Y-94928571D01*
X89833333Y-94976190D01*
X90214285Y-94976190D01*
X88690476Y-95452380D02*
X89261904Y-95452380D01*
X88976190Y-95452380D02*
X88976190Y-94452380D01*
X89071428Y-94595238D01*
X89166666Y-94690476D01*
X89261904Y-94738095D01*
X88214285Y-95452380D02*
X88023809Y-95452380D01*
X87928571Y-95404761D01*
X87880952Y-95357142D01*
X87785714Y-95214285D01*
X87738095Y-95023809D01*
X87738095Y-94642857D01*
X87785714Y-94547619D01*
X87833333Y-94500000D01*
X87928571Y-94452380D01*
X88119047Y-94452380D01*
X88214285Y-94500000D01*
X88261904Y-94547619D01*
X88309523Y-94642857D01*
X88309523Y-94880952D01*
X88261904Y-94976190D01*
X88214285Y-95023809D01*
X88119047Y-95071428D01*
X87928571Y-95071428D01*
X87833333Y-95023809D01*
X87785714Y-94976190D01*
X87738095Y-94880952D01*
%TO.C,C3*%
X105576666Y-129037142D02*
X105624285Y-129084761D01*
X105767142Y-129132380D01*
X105862380Y-129132380D01*
X106005238Y-129084761D01*
X106100476Y-128989523D01*
X106148095Y-128894285D01*
X106195714Y-128703809D01*
X106195714Y-128560952D01*
X106148095Y-128370476D01*
X106100476Y-128275238D01*
X106005238Y-128180000D01*
X105862380Y-128132380D01*
X105767142Y-128132380D01*
X105624285Y-128180000D01*
X105576666Y-128227619D01*
X105243333Y-128132380D02*
X104624285Y-128132380D01*
X104957619Y-128513333D01*
X104814761Y-128513333D01*
X104719523Y-128560952D01*
X104671904Y-128608571D01*
X104624285Y-128703809D01*
X104624285Y-128941904D01*
X104671904Y-129037142D01*
X104719523Y-129084761D01*
X104814761Y-129132380D01*
X105100476Y-129132380D01*
X105195714Y-129084761D01*
X105243333Y-129037142D01*
%TO.C,R16*%
X94622857Y-90242380D02*
X94956190Y-89766190D01*
X95194285Y-90242380D02*
X95194285Y-89242380D01*
X94813333Y-89242380D01*
X94718095Y-89290000D01*
X94670476Y-89337619D01*
X94622857Y-89432857D01*
X94622857Y-89575714D01*
X94670476Y-89670952D01*
X94718095Y-89718571D01*
X94813333Y-89766190D01*
X95194285Y-89766190D01*
X93670476Y-90242380D02*
X94241904Y-90242380D01*
X93956190Y-90242380D02*
X93956190Y-89242380D01*
X94051428Y-89385238D01*
X94146666Y-89480476D01*
X94241904Y-89528095D01*
X92813333Y-89242380D02*
X93003809Y-89242380D01*
X93099047Y-89290000D01*
X93146666Y-89337619D01*
X93241904Y-89480476D01*
X93289523Y-89670952D01*
X93289523Y-90051904D01*
X93241904Y-90147142D01*
X93194285Y-90194761D01*
X93099047Y-90242380D01*
X92908571Y-90242380D01*
X92813333Y-90194761D01*
X92765714Y-90147142D01*
X92718095Y-90051904D01*
X92718095Y-89813809D01*
X92765714Y-89718571D01*
X92813333Y-89670952D01*
X92908571Y-89623333D01*
X93099047Y-89623333D01*
X93194285Y-89670952D01*
X93241904Y-89718571D01*
X93289523Y-89813809D01*
D12*
%TO.C,R9*%
X116999264Y-92175000D02*
X116545136Y-92175000D01*
X116999264Y-90705000D02*
X116545136Y-90705000D01*
%TO.C,R17*%
X88672936Y-90705000D02*
X89127064Y-90705000D01*
X88672936Y-92175000D02*
X89127064Y-92175000D01*
%TO.C,R13*%
X116709564Y-112495000D02*
X116255436Y-112495000D01*
X116709564Y-111025000D02*
X116255436Y-111025000D01*
%TO.C,R20*%
X94207064Y-102335000D02*
X93752936Y-102335000D01*
X94207064Y-100865000D02*
X93752936Y-100865000D01*
%TO.C,R4*%
X121267636Y-107415000D02*
X121721764Y-107415000D01*
X121267636Y-105945000D02*
X121721764Y-105945000D01*
%TO.C,R3*%
X95380436Y-83085000D02*
X95834564Y-83085000D01*
X95380436Y-84555000D02*
X95834564Y-84555000D01*
%TO.C,R25*%
X88672936Y-111025000D02*
X89127064Y-111025000D01*
X88672936Y-112495000D02*
X89127064Y-112495000D01*
%TO.C,R18*%
X94207064Y-95785000D02*
X93752936Y-95785000D01*
X94207064Y-97255000D02*
X93752936Y-97255000D01*
%TO.C,R14*%
X94715000Y-116612936D02*
X94715000Y-117067064D01*
X93245000Y-116612936D02*
X93245000Y-117067064D01*
%TO.C,R23*%
X88672936Y-105945000D02*
X89127064Y-105945000D01*
X88672936Y-107415000D02*
X89127064Y-107415000D01*
%TO.C,R27*%
X131345000Y-120877064D02*
X131345000Y-120422936D01*
X132815000Y-120877064D02*
X132815000Y-120422936D01*
%TO.C,R7*%
X121335436Y-95785000D02*
X121789564Y-95785000D01*
X121335436Y-97255000D02*
X121789564Y-97255000D01*
%TO.C,R26*%
X126265000Y-120877064D02*
X126265000Y-120422936D01*
X127735000Y-120877064D02*
X127735000Y-120422936D01*
%TO.C,R21*%
X88672936Y-100865000D02*
X89127064Y-100865000D01*
X88672936Y-102335000D02*
X89127064Y-102335000D01*
%TO.C,R29*%
X78005000Y-120877064D02*
X78005000Y-120422936D01*
X79475000Y-120877064D02*
X79475000Y-120422936D01*
%TO.C,R28*%
X84555000Y-120877064D02*
X84555000Y-120422936D01*
X83085000Y-120877064D02*
X83085000Y-120422936D01*
%TO.C,R12*%
X116545136Y-102335000D02*
X116999264Y-102335000D01*
X116545136Y-100865000D02*
X116999264Y-100865000D01*
%TO.C,R10*%
X116545136Y-95785000D02*
X116999264Y-95785000D01*
X116545136Y-97255000D02*
X116999264Y-97255000D01*
%TO.C,R15*%
X88165000Y-117067064D02*
X88165000Y-116612936D01*
X89635000Y-117067064D02*
X89635000Y-116612936D01*
%TO.C,R8*%
X121335436Y-90705000D02*
X121789564Y-90705000D01*
X121335436Y-92175000D02*
X121789564Y-92175000D01*
%TO.C,R24*%
X94207064Y-112495000D02*
X93752936Y-112495000D01*
X94207064Y-111025000D02*
X93752936Y-111025000D01*
%TO.C,R11*%
X116545136Y-107415000D02*
X116999264Y-107415000D01*
X116545136Y-105945000D02*
X116999264Y-105945000D01*
%TO.C,R22*%
X94207064Y-105945000D02*
X93752936Y-105945000D01*
X94207064Y-107415000D02*
X93752936Y-107415000D01*
%TO.C,R6*%
X121789564Y-112495000D02*
X121335436Y-112495000D01*
X121789564Y-111025000D02*
X121335436Y-111025000D01*
%TO.C,R5*%
X121625136Y-100865000D02*
X122079264Y-100865000D01*
X121625136Y-102335000D02*
X122079264Y-102335000D01*
%TO.C,R19*%
X88672936Y-97255000D02*
X89127064Y-97255000D01*
X88672936Y-95785000D02*
X89127064Y-95785000D01*
%TO.C,C3*%
X105148748Y-126265000D02*
X105671252Y-126265000D01*
X105148748Y-127735000D02*
X105671252Y-127735000D01*
%TO.C,R16*%
X94207064Y-90705000D02*
X93752936Y-90705000D01*
X94207064Y-92175000D02*
X93752936Y-92175000D01*
%TD*%
M02*
